<?xml version="1.0" encoding="UTF-8" standalone="no"?>
<svg
   xmlns:dc="http://purl.org/dc/elements/1.1/"
   xmlns:cc="http://creativecommons.org/ns#"
   xmlns:rdf="http://www.w3.org/1999/02/22-rdf-syntax-ns#"
   xmlns:svg="http://www.w3.org/2000/svg"
   xmlns="http://www.w3.org/2000/svg"
   xmlns:sodipodi="http://sodipodi.sourceforge.net/DTD/sodipodi-0.dtd"
   xmlns:inkscape="http://www.inkscape.org/namespaces/inkscape"
   width="793.700787402"
   height="1122.51968504"
   version="1.1"
   id="svg1039"
   sodipodi:docname="glasses_frame.svg"
   inkscape:version="0.92.4 (5da689c313, 2019-01-14)">
  <metadata
     id="metadata1043">
    <rdf:RDF>
      <cc:Work
         rdf:about="">
        <dc:format>image/svg+xml</dc:format>
        <dc:type
           rdf:resource="http://purl.org/dc/dcmitype/StillImage" />
        <dc:title></dc:title>
      </cc:Work>
    </rdf:RDF>
  </metadata>
  <sodipodi:namedview
     pagecolor="#ffffff"
     bordercolor="#666666"
     borderopacity="1"
     objecttolerance="10"
     gridtolerance="10"
     guidetolerance="10"
     inkscape:pageopacity="0"
     inkscape:pageshadow="2"
     inkscape:window-width="1368"
     inkscape:window-height="836"
     id="namedview1041"
     showgrid="false"
     inkscape:zoom="0.59213251"
     inkscape:cx="93.354168"
     inkscape:cy="387.0518"
     inkscape:window-x="96"
     inkscape:window-y="40"
     inkscape:window-maximized="0"
     inkscape:current-layer="g1027" />
  <desc
     id="desc815">\\Mac\Home\Documents\Coronalab\glasses_frame.dxf - scale = 1.000000, origin = (0.000000, 0.000000), method = manual</desc>
  <defs
     id="defs961">
    <marker
       id="DistanceX"
       orient="auto"
       refX="0.0"
       refY="0.0"
       style="overflow:visible">
      <path
         d="M 3,-3 L -3,3 M 0,-5 L  0,5"
         style="stroke:#000000; stroke-width:0.5"
         id="path817" />
    </marker>
    <pattern
       height="8"
       id="Hatch"
       patternUnits="userSpaceOnUse"
       width="8"
       x="0"
       y="0">
      <path
         d="M8 4 l-4,4"
         linecap="square"
         stroke="#000000"
         stroke-width="0.25"
         id="path820" />
      <path
         d="M6 2 l-4,4"
         linecap="square"
         stroke="#000000"
         stroke-width="0.25"
         id="path822" />
      <path
         d="M4 0 l-4,4"
         linecap="square"
         stroke="#000000"
         stroke-width="0.25"
         id="path824" />
    </pattern>
    <symbol
       id="*MODEL_SPACE" />
    <symbol
       id="*PAPER_SPACE" />
    <symbol
       id="D1">
      <text
         style="font-size: 7.7px; fill: #000000; font-family: Arial"
         x="459.413178"
         y="761.865580"
         id="text831">
        <tspan
           sodipodi:role="line"
           id="tspan829">{\fMicrosoft Sans Serif|b0|i0|c0|p0;121.408{\fMicrosoft Sans Serif|b0|i0|c0|p0;</tspan>
      </text>
      <text
         style="font-size: 7.7px; fill: #000000; font-family: Arial"
         x="459.413178"
         y="761.865580"
         id="text835">
        <tspan
           sodipodi:role="line"
           id="tspan833">{\fMicrosoft Sans Serif|b0|i0|c0|p0;</tspan>
      </text>
      <text
         style="font-size: 7.7px; fill: #000000; font-family: Arial"
         x="459.413178"
         y="761.865580"
         id="text839">
        <tspan
           sodipodi:role="line"
           id="tspan837">{\fMicrosoft Sans Serif|b0|i0|c0|p0;</tspan>
      </text>
      <text
         style="font-size: 7.7px; fill: #000000; font-family: Arial"
         x="437.413178"
         y="761.865580"
         id="text843">
        <tspan
           sodipodi:role="line"
           id="tspan841">{\fMicrosoft Sans Serif|b0|i0|c0|p0;</tspan>
      </text>
      <text
         style="font-size: 7.7px; fill: #000000; font-family: Arial"
         x="481.413178"
         y="761.865580"
         id="text847">
        <tspan
           sodipodi:role="line"
           id="tspan845">{\fMicrosoft Sans Serif|b0|i0|c0|p0;</tspan>
      </text>
      <path
         d="M 247.808799,775.243272 247.808799,755.865580"
         style="stroke:#000000;fill:none"
         id="path849" />
      <path
         d="M 706.672459,775.243272 706.672459,755.865580"
         style="stroke:#000000;fill:none"
         id="path851" />
      <path
         d="M 247.808799,761.865580 L 253.568799,760.665580 L 253.568799,763.065580 L 247.808799,761.865580"
         style="stroke:#000000;fill:none"
         id="path853" />
      <path
         d="M 253.568799,761.865580 428.746512,761.865580"
         style="stroke:#000000;fill:none"
         id="path855" />
      <path
         d="M 706.672459,761.865580 L 700.912459,763.065580 L 700.912459,760.665580 L 706.672459,761.865580"
         style="stroke:#000000;fill:none"
         id="path857" />
      <path
         d="M 700.912459,761.865580 487.413180,761.865580"
         style="stroke:#000000;fill:none"
         id="path859" />
    </symbol>
    <symbol
       id="D2">
      <text
         style="font-size: 7.7px; fill: #000000; font-family: Arial"
         x="467.939347"
         y="832.400373"
         id="text864">
        <tspan
           sodipodi:role="line"
           id="tspan862">{\fMicrosoft Sans Serif|b0|i0|c0|p0;105.822{\fMicrosoft Sans Serif|b0|i0|c0|p0;</tspan>
      </text>
      <text
         style="font-size: 7.7px; fill: #000000; font-family: Arial"
         x="467.939347"
         y="832.400373"
         id="text868">
        <tspan
           sodipodi:role="line"
           id="tspan866">{\fMicrosoft Sans Serif|b0|i0|c0|p0;</tspan>
      </text>
      <text
         style="font-size: 7.7px; fill: #000000; font-family: Arial"
         x="467.939347"
         y="832.400373"
         id="text872">
        <tspan
           sodipodi:role="line"
           id="tspan870">{\fMicrosoft Sans Serif|b0|i0|c0|p0;</tspan>
      </text>
      <text
         style="font-size: 7.7px; fill: #000000; font-family: Arial"
         x="445.939347"
         y="832.400373"
         id="text876">
        <tspan
           sodipodi:role="line"
           id="tspan874">{\fMicrosoft Sans Serif|b0|i0|c0|p0;</tspan>
      </text>
      <text
         style="font-size: 7.7px; fill: #000000; font-family: Arial"
         x="489.939347"
         y="832.400373"
         id="text880">
        <tspan
           sodipodi:role="line"
           id="tspan878">{\fMicrosoft Sans Serif|b0|i0|c0|p0;</tspan>
      </text>
      <path
         d="M 277.262886,850.428713 277.262886,826.400373"
         style="stroke:#000000;fill:none"
         id="path882" />
      <path
         d="M 677.218373,850.428713 677.218373,826.400373"
         style="stroke:#000000;fill:none"
         id="path884" />
      <path
         d="M 277.262886,832.400373 L 283.022886,831.200373 L 283.022886,833.600373 L 277.262886,832.400373"
         style="stroke:#000000;fill:none"
         id="path886" />
      <path
         d="M 283.022886,832.400373 437.272680,832.400375"
         style="stroke:#000000;fill:none"
         id="path888" />
      <path
         d="M 677.218373,832.400373 L 671.458373,833.600373 L 671.458373,831.200373 L 677.218373,832.400373"
         style="stroke:#000000;fill:none"
         id="path890" />
      <path
         d="M 671.458373,832.400373 495.939348,832.400375"
         style="stroke:#000000;fill:none"
         id="path892" />
    </symbol>
    <symbol
       id="D3">
      <text
         style="font-size: 7.7px; fill: #000000; font-family: Arial"
         x="477.240615"
         y="894.408968"
         id="text897">
        <tspan
           sodipodi:role="line"
           id="tspan895">{\fMicrosoft Sans Serif|b0|i0|c0|p0;114.845{\fMicrosoft Sans Serif|b0|i0|c0|p0;</tspan>
      </text>
      <text
         style="font-size: 7.7px; fill: #000000; font-family: Arial"
         x="477.240615"
         y="894.408968"
         id="text901">
        <tspan
           sodipodi:role="line"
           id="tspan899">{\fMicrosoft Sans Serif|b0|i0|c0|p0;</tspan>
      </text>
      <text
         style="font-size: 7.7px; fill: #000000; font-family: Arial"
         x="477.240615"
         y="894.408968"
         id="text905">
        <tspan
           sodipodi:role="line"
           id="tspan903">{\fMicrosoft Sans Serif|b0|i0|c0|p0;</tspan>
      </text>
      <text
         style="font-size: 7.7px; fill: #000000; font-family: Arial"
         x="455.240615"
         y="894.408968"
         id="text909">
        <tspan
           sodipodi:role="line"
           id="tspan907">{\fMicrosoft Sans Serif|b0|i0|c0|p0;</tspan>
      </text>
      <text
         style="font-size: 7.7px; fill: #000000; font-family: Arial"
         x="499.240615"
         y="894.408968"
         id="text913">
        <tspan
           sodipodi:role="line"
           id="tspan911">{\fMicrosoft Sans Serif|b0|i0|c0|p0;</tspan>
      </text>
      <path
         d="M 260.210518,907.786645 260.210518,888.408968"
         style="stroke:#000000;fill:none"
         id="path915" />
      <path
         d="M 694.270712,907.786645 694.270712,888.408968"
         style="stroke:#000000;fill:none"
         id="path917" />
      <path
         d="M 260.210518,894.408968 L 265.970518,893.208968 L 265.970518,895.608968 L 260.210518,894.408968"
         style="stroke:#000000;fill:none"
         id="path919" />
      <path
         d="M 265.970518,894.408968 446.573949,894.408961"
         style="stroke:#000000;fill:none"
         id="path921" />
      <path
         d="M 694.270712,894.408968 L 688.510712,895.608968 L 688.510712,893.208968 L 694.270712,894.408968"
         style="stroke:#000000;fill:none"
         id="path923" />
      <path
         d="M 688.510712,894.408968 505.240617,894.408961"
         style="stroke:#000000;fill:none"
         id="path925" />
    </symbol>
    <symbol
       id="D4">
      <text
         style="font-size: 7.7px; fill: #000000; font-family: Arial"
         x="498.943659"
         y="952.929584"
         id="text930">
        <tspan
           sodipodi:role="line"
           id="tspan928">{\fMicrosoft Sans Serif|b0|i0|c0|p0;20.713{\fMicrosoft Sans Serif|b0|i0|c0|p0;</tspan>
      </text>
      <text
         style="font-size: 7.7px; fill: #000000; font-family: Arial"
         x="498.943659"
         y="952.929584"
         id="text934">
        <tspan
           sodipodi:role="line"
           id="tspan932">{\fMicrosoft Sans Serif|b0|i0|c0|p0;</tspan>
      </text>
      <text
         style="font-size: 7.7px; fill: #000000; font-family: Arial"
         x="498.943659"
         y="952.929584"
         id="text938">
        <tspan
           sodipodi:role="line"
           id="tspan936">{\fMicrosoft Sans Serif|b0|i0|c0|p0;</tspan>
      </text>
      <text
         style="font-size: 7.7px; fill: #000000; font-family: Arial"
         x="479.610326"
         y="952.929584"
         id="text942">
        <tspan
           sodipodi:role="line"
           id="tspan940">{\fMicrosoft Sans Serif|b0|i0|c0|p0;</tspan>
      </text>
      <text
         style="font-size: 7.7px; fill: #000000; font-family: Arial"
         x="518.276993"
         y="952.929584"
         id="text946">
        <tspan
           sodipodi:role="line"
           id="tspan944">{\fMicrosoft Sans Serif|b0|i0|c0|p0;</tspan>
      </text>
      <path
         d="M 483.240615,913.786645 504.943659,913.786645"
         style="stroke:#000000;fill:none"
         id="path948" />
      <path
         d="M 483.240615,992.072523 504.943659,992.072523"
         style="stroke:#000000;fill:none"
         id="path950" />
      <path
         d="M 498.943659,913.786645 L 500.143659,919.546645 L 497.743659,919.546645 L 498.943659,913.786645"
         style="stroke:#000000;fill:none"
         id="path952" />
      <path
         d="M 498.943659,919.546645 498.943658,940.929574"
         style="stroke:#000000;fill:none"
         id="path954" />
      <path
         d="M 498.943659,992.072523 L 497.743659,986.312523 L 500.143659,986.312523 L 498.943659,992.072523"
         style="stroke:#000000;fill:none"
         id="path956" />
      <path
         d="M 498.943659,986.312523 498.943658,964.929579"
         style="stroke:#000000;fill:none"
         id="path958" />
    </symbol>
  </defs>
  <g
     inkscape:groupmode="layer"
     inkscape:label="0"
     id="g963" />
  <g
     inkscape:groupmode="layer"
     inkscape:label="VISIBLE"
     id="g1005">
    <path
       d="M 524.900150,381.510667 A 5.669291,5.669291 -0.000000 0 0 521.792739,389.135364"
       style="stroke:#000000;fill:none"
       id="path965" />
    <path
       d="M 289.158242,675.339279 C 290.487788,672.337679 291.847281,669.272895 293.235577,666.147328 C 325.391793,593.751816 372.872801,489.018939 420.596575,383.773622"
       style="stroke:#000000;fill:none"
       id="path967" />
    <path
       d="M 301.571725,679.929437 C 309.133843,662.860972 317.664621,643.746587 326.941864,623.056641 C 356.951283,556.130151 394.723384,472.815665 432.668429,389.135349"
       style="stroke:#000000;fill:none"
       id="path969" />
    <path
       d="M 526.645494,380.831530 524.900150,381.510667"
       style="stroke:#000000;fill:none"
       id="path971" />
    <path
       d="M 477.230580,991.334593 C 450.664179,989.881679 423.460409,988.414625 386.537189,978.483334 C 381.921786,977.241922 377.154518,975.868257 372.209425,974.343121 C 367.264332,972.817984 362.141415,971.141376 356.924580,969.345875 C 346.490909,965.754874 335.681565,961.688302 325.310935,957.478945 C 314.940305,953.269588 305.008390,948.917446 296.317603,944.751442 C 287.626816,940.585438 280.177158,936.605573 274.660306,933.020430 C 269.143454,929.435288 265.559409,926.244868 263.248603,923.037371 C 262.093200,921.433622 261.256107,919.825605 260.728943,918.287773 C 260.201779,916.749942 259.984543,915.282297 259.915802,914.092248 C 259.881432,913.497223 259.884185,912.971597 259.892916,912.519706 C 259.901647,912.067816 259.916356,911.689660 259.939256,911.282510 C 259.985055,910.468210 260.063620,909.537931 260.214193,908.510528 C 260.515339,906.455723 261.104521,904.012423 262.220775,899.983662 C 263.337029,895.954901 264.924764,890.600590 266.674030,885.234362 C 267.548662,882.551248 268.463678,879.865154 269.381943,877.355481 C 270.300208,874.845808 271.221723,872.512555 272.103687,870.409786 C 273.867614,866.204249 275.473336,862.920649 276.616509,860.571517 C 276.902302,859.984234 277.159186,859.455355 277.377605,858.992787 C 277.705235,858.298934 277.946319,857.754279 278.059807,857.521556 C 278.173295,857.288834 278.159187,857.368044 278.186314,857.484612 C 278.213441,857.601179 278.280557,857.666831 278.240499,857.391139 C 278.173736,856.931653 277.744597,855.676086 276.899445,853.626367 C 276.223322,851.986591 275.280952,849.838558 274.087638,847.046772 C 272.894324,844.254986 271.450068,840.819448 269.874446,837.057599 C 266.723201,829.533900 263.046493,820.704959 259.820940,813.134634 C 258.208164,809.349471 256.708177,805.878963 255.448272,803.051485 C 254.188366,800.224008 253.145567,797.969585 252.266969,796.120016 C 250.509773,792.420877 249.409378,790.341151 248.611996,788.022281 C 248.213306,786.862846 247.890369,785.643625 247.709661,784.403190 C 247.528954,783.162756 247.490476,781.901108 247.561913,780.562698 C 247.704786,777.885879 248.287319,774.902013 249.350975,771.161320 C 250.946457,765.550280 253.624464,758.236378 257.860107,747.799327 C 260.683869,740.841293 264.199914,732.495192 268.550872,722.389382 C 273.318273,711.316317 279.065144,698.178393 285.635016,683.304287"
       style="stroke:#000000;fill:none"
       id="path973" />
    <path
       d="M 665.300826,675.334616 C 657.718426,658.216173 649.167275,639.054120 639.867418,618.311849 C 609.774063,551.192053 571.895873,467.644103 533.864587,383.773626"
       style="stroke:#000000;fill:none"
       id="path975" />
    <path
       d="M 533.864595,383.773643 A 5.669291,5.669291 -0.000000 0 0 526.645494,380.831530"
       style="stroke:#000000;fill:none"
       id="path977" />
    <path
       d="M 477.230580,978.106247 C 497.154604,977.016561 516.605494,975.920727 540.130284,971.374549 C 551.892679,969.101460 564.673549,965.965785 579.043615,961.509633 C 588.623659,958.538866 599.014360,954.937506 609.393588,951.026095 C 624.962429,945.158979 640.505455,938.594247 653.059675,932.539079 C 657.244415,930.520689 661.097065,928.558918 664.498035,926.707470 C 667.899004,924.856021 670.848292,923.114894 673.174271,921.565531 C 677.826229,918.466806 679.984950,916.135136 680.828768,914.850993 C 681.250677,914.208921 681.343860,913.828730 681.379783,913.571912 C 681.415705,913.315094 681.394366,913.181649 681.374376,912.856444 C 681.364380,912.693842 681.354722,912.483300 681.342016,912.210436 C 681.329310,911.937571 681.313557,911.602383 681.293177,911.347777 C 681.252416,910.838564 681.200014,910.455490 681.091632,909.876614 C 680.983251,909.297738 680.818890,908.523060 680.537390,907.383885 C 680.255891,906.244709 679.857253,904.741037 679.321550,902.828455 C 678.250146,899.003291 676.696623,893.792313 675.010095,888.657976 C 674.166831,886.090807 673.290316,883.542798 672.427756,881.215644 C 670.702635,876.561336 669.033334,872.790449 667.604696,869.746669 C 666.533218,867.463833 665.597112,865.589994 664.826584,863.987543 C 664.441321,863.186318 664.097451,862.452939 663.763255,861.444693 C 663.429058,860.436447 663.104533,859.153333 663.049160,857.749846 C 662.993786,856.346360 663.197420,854.949027 663.505184,853.743431 C 664.018123,851.734103 664.712846,850.071649 665.660081,847.858895 C 666.417869,846.088691 667.337265,843.966296 668.512493,841.200839 C 669.687722,838.435383 671.118783,835.026866 672.686757,831.280559 C 675.822706,823.787946 679.506307,814.944175 682.772201,807.294495 C 684.405148,803.469654 685.933668,799.943337 687.246179,797.007715 C 688.558689,794.072093 689.655190,791.727166 690.557310,789.822863 C 691.459430,787.918561 692.167170,786.454882 692.665587,785.351259 C 693.164003,784.247636 693.453096,783.504067 693.594242,783.054322 C 693.735387,782.604577 693.728585,782.448654 693.726227,782.139879 C 693.723869,781.831104 693.725955,781.369476 693.661416,780.708502 C 693.532338,779.386553 693.136760,777.267218 692.214065,774.113807 C 691.291370,770.960395 689.841557,766.772908 687.744040,761.307785 C 685.646523,755.842662 682.901300,749.099904 679.374992,740.734594 C 676.730261,734.460612 673.646169,727.273945 670.092966,719.090231 C 665.547893,708.622045 660.273326,696.612580 654.381112,683.298510"
       style="stroke:#000000;fill:none"
       id="path979" />
    <path
       d="M 477.230580,991.334593 C 497.155382,990.244908 517.438896,989.156540 541.911414,984.482437 C 554.147673,982.145385 567.431183,978.911900 582.252029,974.342997 C 592.132593,971.297062 602.766190,967.623892 613.367076,963.643681 C 629.268405,957.673365 645.096134,951.012207 658.135842,944.753648 C 662.482411,942.667462 666.519200,940.626009 670.159517,938.660930 C 673.799833,936.695852 677.043677,934.807147 679.803106,933.016337 C 685.321966,929.434717 688.903172,926.244678 691.213031,923.037307 C 692.367960,921.433622 693.205053,919.825605 693.732218,918.287773 C 694.259382,916.749942 694.476617,915.282297 694.545358,914.092248 C 694.579729,913.497223 694.576975,912.971597 694.567685,912.524731 C 694.558395,912.077865 694.542568,911.709759 694.521387,911.287724 C 694.479025,910.443655 694.400069,909.520827 694.248769,908.501360 C 694.097470,907.481893 693.873826,906.365786 693.549087,904.994823 C 693.224347,903.623861 692.798512,901.998043 692.240385,899.983662 C 691.124131,895.954901 689.536396,890.600590 687.787131,885.234362 C 686.912498,882.551248 685.997483,879.865154 685.079217,877.355481 C 684.160952,874.845808 683.239437,872.512555 682.357474,870.409786 C 680.593547,866.204249 678.987825,862.920649 677.844652,860.571517 C 677.558859,859.984234 677.301975,859.455355 677.083555,858.992787 C 676.755926,858.298934 676.514842,857.754279 676.401354,857.521556 C 676.287865,857.288834 676.301974,857.368044 676.274847,857.484612 C 676.247720,857.601179 676.180604,857.666831 676.220661,857.391139 C 676.287425,856.931653 676.716563,855.676086 677.561716,853.626367 C 678.237838,851.986591 679.180209,849.838558 680.373522,847.046772 C 681.566836,844.254986 683.011092,840.819448 684.586715,837.057599 C 687.737959,829.533900 691.414668,820.704959 694.640220,813.134634 C 696.252996,809.349471 697.752984,805.878963 699.012889,803.051485 C 700.272794,800.224008 701.318295,797.971084 702.190361,796.120335 C 703.062427,794.269587 703.761057,792.821014 704.357666,791.547799 C 704.954275,790.274584 705.448863,789.176728 705.854536,788.018722 C 706.260210,786.860715 706.576969,785.642560 706.754588,784.402658 C 706.932207,783.162756 706.970685,781.901108 706.899139,780.562177 C 706.756048,777.884315 706.172863,774.897322 705.109379,771.160090 C 704.045895,767.422859 702.502112,762.935389 700.336607,757.260126 C 698.171101,751.584864 695.383873,744.721807 691.828095,736.273543 C 689.161262,729.937346 686.062120,722.709469 682.497172,714.494055 C 678.477275,705.230214 673.894563,694.779432 668.823690,683.298922"
       style="stroke:#000000;fill:none"
       id="path981" />
    <path
       d="M 477.230580,978.106247 C 457.306557,977.016561 437.855667,975.920727 414.330876,971.374549 C 402.568481,969.101460 389.787611,965.965785 375.417545,961.509633 C 365.837501,958.538866 355.446800,954.937506 345.067573,951.026095 C 329.498731,945.158979 313.955706,938.594247 301.401486,932.539079 C 297.216746,930.520689 293.364095,928.558918 289.963126,926.707470 C 286.562156,924.856021 283.612868,923.114894 281.286889,921.565531 C 276.634932,918.466806 274.476210,916.135136 273.632392,914.850993 C 273.210483,914.208921 273.117300,913.828730 273.081378,913.571912 C 273.045456,913.315094 273.066794,913.181649 273.086785,912.856444 C 273.096780,912.693842 273.106438,912.483300 273.119144,912.210436 C 273.131850,911.937571 273.147604,911.602383 273.167984,911.347777 C 273.208744,910.838564 273.261147,910.455490 273.369528,909.876614 C 273.477910,909.297738 273.642271,908.523060 273.923770,907.383885 C 274.205270,906.244709 274.603908,904.741037 275.139610,902.828455 C 276.211015,899.003291 277.764538,893.792313 279.451930,888.658130 C 280.295627,886.091039 281.172790,883.543146 282.034136,881.217197 C 282.895482,878.891249 283.741010,876.787245 284.551062,874.886030 C 286.171168,871.083600 287.649371,868.092325 288.813852,865.682373 C 289.104973,865.079884 289.376485,864.513729 289.631775,863.979542 C 290.014710,863.178262 290.361144,862.448911 290.696623,861.442679 C 291.032103,860.436447 291.356627,859.153333 291.412001,857.749846 C 291.467375,856.346360 291.263740,854.949027 290.955977,853.743431 C 290.443037,851.734103 289.748315,850.071649 288.801080,847.858895 C 288.043292,846.088691 287.123896,843.966296 285.948667,841.200839 C 284.773439,838.435383 283.342378,835.026866 281.774403,831.280559 C 278.638455,823.787946 274.954854,814.944175 271.688097,807.290012 C 270.054719,803.462931 268.525552,799.933251 267.214671,797.006570 C 265.903790,794.079889 264.806630,791.731064 263.904180,789.824813 C 263.001730,787.918561 262.293990,786.454882 261.795574,785.351259 C 261.297157,784.247636 261.008064,783.504067 260.866919,783.054322 C 260.725773,782.604577 260.732575,782.448654 260.734933,782.139879 C 260.737291,781.831104 260.735205,781.369476 260.799744,780.708502 C 260.928822,779.386553 261.324401,777.267218 262.247096,774.113807 C 263.169791,770.960395 264.619603,766.772908 266.717120,761.307785 C 268.814638,755.842662 271.559860,749.099904 275.086168,740.734594 C 277.730900,734.460612 280.814992,727.273945 284.368194,719.090231 C 288.913268,708.622045 294.186913,696.614461 300.078463,683.301747"
       style="stroke:#000000;fill:none"
       id="path983" />
    <path
       d="M 429.561010,381.510667 427.815667,380.831530"
       style="stroke:#000000;fill:none"
       id="path985" />
    <path
       d="M 432.668422,389.135364 A 5.669291,5.669291 -0.000000 0 0 429.561010,381.510667"
       style="stroke:#000000;fill:none"
       id="path987" />
    <path
       d="M 427.815667,380.831530 A 5.669291,5.669291 -0.000000 0 0 420.596566,383.773643"
       style="stroke:#000000;fill:none"
       id="path989" />
    <path
       d="M 654.381112,683.298510 652.887689,679.925871"
       style="stroke:#000000;fill:none"
       id="path991" />
    <path
       d="M 285.635016,683.304287 C 286.784510,680.701846 287.959198,678.046257 289.158242,675.339279"
       style="stroke:#000000;fill:none"
       id="path993" />
    <path
       d="M 652.887689,679.925871 C 645.324797,662.855828 636.793813,643.741021 627.519297,623.056641 C 597.518698,556.148157 559.738152,472.816430 521.792744,389.135374"
       style="stroke:#000000;fill:none"
       id="path995" />
    <path
       d="M 300.078463,683.301747 301.571725,679.929437"
       style="stroke:#000000;fill:none"
       id="path997" />
    <path
       d="M 668.823690,683.298922 C 667.674197,680.696457 666.499619,678.041078 665.300826,675.334616"
       style="stroke:#000000;fill:none"
       id="path999" />
    <path
       d="M 278.151586,857.361244 278.238484,857.377449"
       style="stroke:#000000;fill:none"
       id="path1001" />
    <path
       d="M 676.222684,857.377397 676.309575,857.361244"
       style="stroke:#000000;fill:none"
       id="path1003" />
  </g>
  <g
     inkscape:groupmode="layer"
     inkscape:label="PHANTOM"
     id="g1027" />
  <g
     inkscape:groupmode="layer"
     inkscape:label="DIMENSIONS"
     id="g1037" />
</svg>
