<?xml version="1.0" encoding="UTF-8" standalone="no"?>
<svg
   xmlns:dc="http://purl.org/dc/elements/1.1/"
   xmlns:cc="http://creativecommons.org/ns#"
   xmlns:rdf="http://www.w3.org/1999/02/22-rdf-syntax-ns#"
   xmlns:svg="http://www.w3.org/2000/svg"
   xmlns="http://www.w3.org/2000/svg"
   id="svg3194"
   version="1.1"
   viewBox="0 0 210 297"
   height="297mm"
   width="210mm">
  <defs
     id="defs3188" />
  <metadata
     id="metadata3191">
    <rdf:RDF>
      <cc:Work
         rdf:about="">
        <dc:format>image/svg+xml</dc:format>
        <dc:type
           rdf:resource="http://purl.org/dc/dcmitype/StillImage" />
        <dc:title></dc:title>
      </cc:Work>
    </rdf:RDF>
  </metadata>
  <g
     id="layer1">
    <g
       transform="matrix(2.2683844,0,0,3.9391707,-164.18085,-11.785944)"
       style="stroke-width:0.11801589"
       id="g3792" />
    <g
       transform="matrix(2.2683844,0,0,3.3236117,-159.41832,6.3942492)"
       style="stroke-width:0.12848066"
       id="g3804" />
    <path
       id="path3890-4-7"
       d="M 41.204412,15.483331 33.564304,43.846162 18.754713,44.237579 C 2.5661966,84.123568 26.588373,137.49259 43.16608,155.50023 45.466239,157.99879 43.913536,160.18126 40,157 25,142 0,102 14.82201,40.138923 l 15.330696,-0.769387 8.018085,-27.795871 c 44.825536,0.0133 89.651169,-0.035 134.476729,-0.0434 l 8.01807,27.795871 15.3307,0.769387 c 17.64685,67.745037 -12.05016,98.039167 -25.05058,117.221147 -4.59524,2.32273 -4.55548,-0.61002 -2.94794,-2.39817 16.31647,-17.96534 39.45252,-66.02747 24.06581,-110.724311 L 177.254,43.802772 169.6139,15.439941 c -42.8042,-0.560677 -85.605407,-0.233067 -128.409488,0.0434 z"
       style="fill:none;fill-rule:evenodd;stroke:#000000;stroke-width:0.26458332px;stroke-linecap:butt;stroke-linejoin:miter;stroke-opacity:1" />
  </g>
</svg>
