<?xml version="1.0" encoding="UTF-8" standalone="no"?>
<!-- Created with Inkscape (http://www.inkscape.org/) -->

<svg
   xmlns:dc="http://purl.org/dc/elements/1.1/"
   xmlns:cc="http://creativecommons.org/ns#"
   xmlns:rdf="http://www.w3.org/1999/02/22-rdf-syntax-ns#"
   xmlns:svg="http://www.w3.org/2000/svg"
   xmlns="http://www.w3.org/2000/svg"
   xmlns:sodipodi="http://sodipodi.sourceforge.net/DTD/sodipodi-0.dtd"
   xmlns:inkscape="http://www.inkscape.org/namespaces/inkscape"
   width="210mm"
   height="297mm"
   viewBox="0 0 210 297"
   version="1.1"
   id="svg3194"
   inkscape:version="0.92.4 (5da689c313, 2019-01-14)"
   sodipodi:docname="monture_3.svg">
  <defs
     id="defs3188" />
  <sodipodi:namedview
     id="base"
     pagecolor="#ffffff"
     bordercolor="#666666"
     borderopacity="1.0"
     inkscape:pageopacity="0.0"
     inkscape:pageshadow="2"
     inkscape:zoom="0.49497475"
     inkscape:cx="409.2311"
     inkscape:cy="745.28325"
     inkscape:document-units="mm"
     inkscape:current-layer="layer1"
     showgrid="true"
     showguides="true"
     inkscape:guide-bbox="true"
     inkscape:window-width="1855"
     inkscape:window-height="991"
     inkscape:window-x="29"
     inkscape:window-y="0"
     inkscape:window-maximized="0">
    <sodipodi:guide
       position="72.571427,297.08929"
       orientation="1,0"
       id="guide3747"
       inkscape:locked="false" />
    <sodipodi:guide
       position="-30,195"
       orientation="0,1"
       id="guide3873"
       inkscape:locked="false" />
    <inkscape:grid
       type="xygrid"
       id="grid4048" />
  </sodipodi:namedview>
  <metadata
     id="metadata3191">
    <rdf:RDF>
      <cc:Work
         rdf:about="">
        <dc:format>image/svg+xml</dc:format>
        <dc:type
           rdf:resource="http://purl.org/dc/dcmitype/StillImage" />
        <dc:title></dc:title>
      </cc:Work>
    </rdf:RDF>
  </metadata>
  <g
     inkscape:label="Calque 1"
     inkscape:groupmode="layer"
     id="layer1">
    <g
       id="g3792"
       style="stroke-width:0.11801589"
       transform="matrix(2.2683844,0,0,3.9391707,-164.18085,-11.785944)" />
    <g
       id="g3804"
       style="stroke-width:0.12848066"
       transform="matrix(2.2683844,0,0,3.3236117,-159.41832,6.3942492)" />
    <path
       style="fill:none;fill-rule:evenodd;stroke:#000000;stroke-width:0.26458332px;stroke-linecap:butt;stroke-linejoin:miter;stroke-opacity:1"
       d="m 30.467532,41.848736 c -3.205785,0.239903 -3.127888,0.361018 -4.088344,2.989281 -14.641626,40.149633 4.494013,106.364903 20.795935,124.025693 2.297201,2.48869 11.615608,11.53723 8.733647,11.79455 C 43.043774,173.44199 1.8736883,113.09367 24.25477,43.071283 24.914553,41.106298 25,40 27.724192,39.404173 32.316953,39.121475 38,40 38.959348,36.841679 l 5.561443,-25.268012 c 44.825536,0.0133 77.480339,-0.035 122.305899,-0.0434 l 5.58407,24.1369 C 173.3674,38.826186 174,39 176,39 c 5,0 10.21174,-0.04002 11.35417,4.470833 C 206,97 179,165 154.90954,181.37093 152.091,180.71689 161.157,173.57699 163.45419,171.08831 179.77785,153.40392 200.14869,85.354472 185.43764,45.164741 183.85084,41.004152 180.1609,42 176,42 c -5,0 -6.26559,-2.144603 -7.24327,-6.555112 l -4.4345,-20.004945 C 121.51803,14.879266 69.191826,15.206876 47.789786,15.345103 47.182847,15.058747 42.64393,32.542095 41,39 c -1,3 -6,2.470833 -10.532468,2.848736 z"
       id="path3890-4-7"
       inkscape:connector-curvature="0"
       sodipodi:nodetypes="ccsccccccccccsccccccc" />
    <path
       style="fill:none;stroke:#ff0000;stroke-width:0.70555556;stroke-linecap:round;stroke-linejoin:round"
       inkscape:connector-curvature="0"
       d="m 45,327 c 51.27256,-0.4347 104.012,-0.4114 161.10085,0.36157 44.59888,-0.16805 39.85168,32.49471 5.83504,39.60188 -27.57202,7.05241 -22.50303,30.14601 -31.37059,46.18084 -4.94143,12.82136 -30.5222,15.40045 -44.93954,0.36383 -13.67223,-14.2595 -9.98497,-13.44332 -21.91712,0.31097 -16.944159,19.53167 -50.62364,7.73022 -47.971429,2.54561 -2.57319,-3.05916 -3.95183,-10.10883 -6.56798,-15.81508 C 55.35322,387.50744 40.13015,369.87217 32.4229,365.46149 -6.3646495,343.83246 -1.3646495,328.83246 45,327 Z"
       id="path3802-4-1-0"
       sodipodi:nodetypes="ccccsscccc" />
    <path
       style="fill:none;fill-rule:evenodd;stroke:#ff00ff;stroke-width:0.26458332px;stroke-linecap:butt;stroke-linejoin:miter;stroke-opacity:1"
       d="m 180.83195,41.677961 c 3.20578,0.239903 3.12789,0.361019 4.08834,2.989281 14.64163,40.149635 -4.49401,106.365208 -20.79593,124.026088 -2.2972,2.48872 -11.61561,11.53731 -8.73365,11.79463 12.865,-7.21631 54.03508,-67.56498 31.654,-137.587452 -0.65978,-1.964983 -0.74523,-3.07128 -3.46942,-3.667109 -4.59276,-0.282696 -10.27581,0.595829 -11.23516,-2.562493 l -5.56144,-25.267991 c -44.82554,0.0133 -77.480287,-0.035 -122.305654,-0.0434 l -5.58406,24.136879 c -0.95664,3.159018 -1.58924,3.332833 -3.58925,3.332833 -4.99999,0 -10.21174,-0.04002 -11.35416,4.470834 -18.6458273,53.529166 8.35416,121.529549 32.444623,137.900569 2.818525,-0.65404 -6.247463,-7.79398 -8.544643,-10.28267 -16.32366,-17.6845 -36.69451,-85.734262 -21.98346,-125.923992 1.58681,-4.160588 5.27675,-3.164742 9.43764,-3.164742 5,0 6.26559,-2.144601 7.24327,-6.555111 L 46.977506,15.26917 C 89.7815,14.708497 142.10765,15.036103 163.50969,15.17433 c 0.60694,-0.286357 5.14586,17.196992 6.78979,23.654897 1,2.999999 6,2.470833 10.53247,2.848734 z"
       id="path3890-4-7-1"
       inkscape:connector-curvature="0"
       sodipodi:nodetypes="ccsccccccccccsccccccc" />
  </g>
</svg>
