  0
SECTION
  2
HEADER
  9
$ACADVER
  1
AC1014
  9
$HANDSEED
  5
FFFF
  9
$MEASUREMENT
 70
     1
  0
ENDSEC
  0
SECTION
  2
TABLES
  0
TABLE
  2
VPORT
  5
8
330
0
100
AcDbSymbolTable
 70
     4
  0
VPORT
  5
2E
330
8
100
AcDbSymbolTableRecord
100
AcDbViewportTableRecord
  2
*ACTIVE
 70
     0
 10
0.0
 20
0.0
 11
1.0
 21
1.0
 12
210.0
 22
148.5
 13
0.0
 23
0.0
 14
10.0
 24
10.0
 15
10.0
 25
10.0
 16
0.0
 26
0.0
 36
1.0
 17
0.0
 27
0.0
 37
0.0
 40
341.0
 41
1.24
 42
50.0
 43
0.0
 44
0.0
 50
0.0
 51
0.0
 71
     0
 72
   100
 73
     1
 74
     3
 75
     0
 76
     0
 77
     0
 78
     0
  0
ENDTAB
  0
TABLE
  2
LTYPE
  5
5
330
0
100
AcDbSymbolTable
 70
     1
  0
LTYPE
  5
14
330
5
100
AcDbSymbolTableRecord
100
AcDbLinetypeTableRecord
  2
BYBLOCK
 70
     0
  3

 72
    65
 73
     0
 40
0.0
  0
LTYPE
  5
15
330
5
100
AcDbSymbolTableRecord
100
AcDbLinetypeTableRecord
  2
BYLAYER
 70
     0
  3

 72
    65
 73
     0
 40
0.0
  0
LTYPE
  5
16
330
5
100
AcDbSymbolTableRecord
100
AcDbLinetypeTableRecord
  2
CONTINUOUS
 70
     0
  3
Solid line
 72
    65
 73
     0
 40
0.0
  0
ENDTAB
  0
TABLE
  2
LAYER
  5
2
100
AcDbSymbolTable
 70
3
  0
LAYER
  5
50
100
AcDbSymbolTableRecord
100
AcDbLayerTableRecord
  2
0
 70
0
  6
CONTINUOUS
  0
LAYER
  5
51
100
AcDbSymbolTableRecord
100
AcDbLayerTableRecord
  2
photo
 70
0
  6
CONTINUOUS
  0
LAYER
  5
52
100
AcDbSymbolTableRecord
100
AcDbLayerTableRecord
  2
Calque_1
 70
0
  6
CONTINUOUS
  0
ENDTAB
  0
TABLE
  2
STYLE
  5
3
330
0
100
AcDbSymbolTable
 70
     1
  0
STYLE
  5
11
330
3
100
AcDbSymbolTableRecord
100
AcDbTextStyleTableRecord
  2
STANDARD
 70
     0
 40
0.0
 41
1.0
 50
0.0
 71
     0
 42
2.5
  3
txt
  4

  0
ENDTAB
  0
TABLE
  2
VIEW
  5
6
330
0
100
AcDbSymbolTable
 70
     0
  0
ENDTAB
  0
TABLE
  2
UCS
  5
7
330
0
100
AcDbSymbolTable
 70
     0
  0
ENDTAB
  0
TABLE
  2
APPID
  5
9
330
0
100
AcDbSymbolTable
 70
     2
  0
APPID
  5
12
330
9
100
AcDbSymbolTableRecord
100
AcDbRegAppTableRecord
  2
ACAD
 70
     0
  0
ENDTAB
  0
TABLE
  2
DIMSTYLE
  5
A
330
0
100
AcDbSymbolTable
 70
     1
  0
DIMSTYLE
105
27
330
A
100
AcDbSymbolTableRecord
100
AcDbDimStyleTableRecord
  2
ISO-25
 70
     0
  3

  4

  5

  6

  7

 40
1.0
 41
2.5
 42
0.625
 43
3.75
 44
1.25
 45
0.0
 46
0.0
 47
0.0
 48
0.0
140
2.5
141
2.5
142
0.0
143
0.03937007874016
144
1.0
145
0.0
146
1.0
147
0.625
 71
     0
 72
     0
 73
     0
 74
     0
 75
     0
 76
     0
 77
     1
 78
     8
170
     0
171
     3
172
     1
173
     0
174
     0
175
     0
176
     0
177
     0
178
     0
270
     2
271
     2
272
     2
273
     2
274
     3
340
11
275
     0
280
     0
281
     0
282
     0
283
     0
284
     8
285
     0
286
     0
287
     3
288
     0
  0
ENDTAB
  0
TABLE
  2
BLOCK_RECORD
  5
1
330
0
100
AcDbSymbolTable
 70
     1
  0
BLOCK_RECORD
  5
1F
330
1
100
AcDbSymbolTableRecord
100
AcDbBlockTableRecord
  2
*MODEL_SPACE
  0
BLOCK_RECORD
  5
1B
330
1
100
AcDbSymbolTableRecord
100
AcDbBlockTableRecord
  2
*PAPER_SPACE
  0
ENDTAB
  0
ENDSEC
  0
SECTION
  2
BLOCKS
  0
BLOCK
  5
20
330
1F
100
AcDbEntity
  8
0
100
AcDbBlockBegin
  2
*MODEL_SPACE
 70
     0
 10
0.0
 20
0.0
 30
0.0
  3
*MODEL_SPACE
  1

  0
ENDBLK
  5
21
330
1F
100
AcDbEntity
  8
0
100
AcDbBlockEnd
  0
BLOCK
  5
1C
330
1B
100
AcDbEntity
 67
     1
  8
0
100
AcDbBlockBegin
  2
*PAPER_SPACE
  1

  0
ENDBLK
  5
1D
330
1B
100
AcDbEntity
 67
     1
  8
0
100
AcDbBlockEnd
  0
ENDSEC
  0
SECTION
  2
ENTITIES
  0
SPLINE
  5
100
100
AcDbEntity
  8
Calque_1
 62
7
100
AcDbSpline
 70
8
 71
3
 72
8
 73
4
 74
0
 40
0
 40
0
 40
0
 40
0
 40
1
 40
1
 40
1
 40
1
 10
101.962203
 20
28.857491
 30
0.0
 10
71.962203
 20
33.241661
 30
0.0
 10
60.787263
 20
67.612951
 30
0.0
 10
62.227833
 20
98.619861
 30
0.0
  0
SPLINE
  5
101
100
AcDbEntity
  8
Calque_1
 62
7
100
AcDbSpline
 70
8
 71
3
 72
8
 73
4
 74
0
 40
0
 40
0
 40
0
 40
0
 40
1
 40
1
 40
1
 40
1
 10
62.227833
 20
98.619861
 30
0.0
 10
64.078853
 20
138.461691
 30
0.0
 10
96.445753
 20
123.534771
 30
0.0
 10
97.491363
 20
138.725201
 30
0.0
  0
SPLINE
  5
102
100
AcDbEntity
  8
Calque_1
 62
7
100
AcDbSpline
 70
8
 71
3
 72
8
 73
4
 74
0
 40
0
 40
0
 40
0
 40
0
 40
1
 40
1
 40
1
 40
1
 10
97.491363
 20
138.725201
 30
0.0
 10
96.445763
 20
153.915624
 30
0.0
 10
64.078873
 20
138.988701
 30
0.0
 10
62.227843
 20
178.830527
 30
0.0
  0
SPLINE
  5
103
100
AcDbEntity
  8
Calque_1
 62
7
100
AcDbSpline
 70
8
 71
3
 72
8
 73
4
 74
0
 40
0
 40
0
 40
0
 40
0
 40
1
 40
1
 40
1
 40
1
 10
62.227843
 20
178.830527
 30
0.0
 10
60.787263
 20
209.837451
 30
0.0
 10
74.078873
 20
244.208741
 30
0.0
 10
104.078873
 20
248.592909
 30
0.0
  0
SPLINE
  5
104
100
AcDbEntity
  8
Calque_1
 62
7
100
AcDbSpline
 70
8
 71
3
 72
8
 73
4
 74
0
 40
0
 40
0
 40
0
 40
0
 40
1
 40
1
 40
1
 40
1
 10
104.078873
 20
248.592909
 30
0.0
 10
134.078873
 20
248.592909
 30
0.0
 10
131.124823
 20
177.328152
 30
0.0
 10
131.670533
 20
138.725201
 30
0.0
  0
SPLINE
  5
105
100
AcDbEntity
  8
Calque_1
 62
7
100
AcDbSpline
 70
8
 71
3
 72
8
 73
4
 74
0
 40
0
 40
0
 40
0
 40
0
 40
1
 40
1
 40
1
 40
1
 10
131.670533
 20
138.725201
 30
0.0
 10
131.124813
 20
100.122251
 30
0.0
 10
131.962203
 20
28.857491
 30
0.0
 10
101.962203
 20
28.857491
 30
0.0
  0
SPLINE
  5
106
100
AcDbEntity
  8
Calque_1
 62
1
100
AcDbSpline
 70
8
 71
3
 72
8
 73
4
 74
0
 40
0
 40
0
 40
0
 40
0
 40
1
 40
1
 40
1
 40
1
 10
111.318031
 20
229.440767
 30
0.0
 10
110.329299
 20
229.440767
 30
0.0
 10
109.415672
 20
229.968250
 30
0.0
 10
108.921306
 20
230.824517
 30
0.0
  0
SPLINE
  5
107
100
AcDbEntity
  8
Calque_1
 62
1
100
AcDbSpline
 70
8
 71
3
 72
8
 73
4
 74
0
 40
0
 40
0
 40
0
 40
0
 40
1
 40
1
 40
1
 40
1
 10
108.921306
 20
230.824517
 30
0.0
 10
108.426940
 20
231.680785
 30
0.0
 10
108.426940
 20
232.735750
 30
0.0
 10
108.921306
 20
233.592017
 30
0.0
  0
SPLINE
  5
108
100
AcDbEntity
  8
Calque_1
 62
1
100
AcDbSpline
 70
8
 71
3
 72
8
 73
4
 74
0
 40
0
 40
0
 40
0
 40
0
 40
1
 40
1
 40
1
 40
1
 10
108.921306
 20
233.592017
 30
0.0
 10
109.415672
 20
234.448285
 30
0.0
 10
110.329299
 20
234.975767
 30
0.0
 10
111.318031
 20
234.975767
 30
0.0
  0
SPLINE
  5
109
100
AcDbEntity
  8
Calque_1
 62
1
100
AcDbSpline
 70
8
 71
3
 72
8
 73
4
 74
0
 40
0
 40
0
 40
0
 40
0
 40
1
 40
1
 40
1
 40
1
 10
111.318031
 20
234.975767
 30
0.0
 10
112.306763
 20
234.975767
 30
0.0
 10
113.220390
 20
234.448285
 30
0.0
 10
113.714756
 20
233.592017
 30
0.0
  0
SPLINE
  5
10a
100
AcDbEntity
  8
Calque_1
 62
1
100
AcDbSpline
 70
8
 71
3
 72
8
 73
4
 74
0
 40
0
 40
0
 40
0
 40
0
 40
1
 40
1
 40
1
 40
1
 10
113.714756
 20
233.592017
 30
0.0
 10
114.209122
 20
232.735750
 30
0.0
 10
114.209122
 20
231.680785
 30
0.0
 10
113.714756
 20
230.824517
 30
0.0
  0
SPLINE
  5
10b
100
AcDbEntity
  8
Calque_1
 62
1
100
AcDbSpline
 70
8
 71
3
 72
8
 73
4
 74
0
 40
0
 40
0
 40
0
 40
0
 40
1
 40
1
 40
1
 40
1
 10
113.714756
 20
230.824517
 30
0.0
 10
113.220390
 20
229.968250
 30
0.0
 10
112.306763
 20
229.440767
 30
0.0
 10
111.318031
 20
229.440767
 30
0.0
  0
LWPOLYLINE
  5
10c
100
AcDbEntity
  8
Calque_1
 62
7
100
AcDbPolyline
 90
1
 70
1
 10
101.962203
 20
28.857491
 30
0.0
  0
SPLINE
  5
10d
100
AcDbEntity
  8
Calque_1
 62
1
100
AcDbSpline
 70
8
 71
3
 72
8
 73
4
 74
0
 40
0
 40
0
 40
0
 40
0
 40
1
 40
1
 40
1
 40
1
 10
119.601321
 20
200.078259
 30
0.0
 10
118.612589
 20
200.078259
 30
0.0
 10
117.698962
 20
200.605742
 30
0.0
 10
117.204596
 20
201.462009
 30
0.0
  0
SPLINE
  5
10e
100
AcDbEntity
  8
Calque_1
 62
1
100
AcDbSpline
 70
8
 71
3
 72
8
 73
4
 74
0
 40
0
 40
0
 40
0
 40
0
 40
1
 40
1
 40
1
 40
1
 10
117.204596
 20
201.462009
 30
0.0
 10
116.710230
 20
202.318277
 30
0.0
 10
116.710230
 20
203.373242
 30
0.0
 10
117.204596
 20
204.229509
 30
0.0
  0
SPLINE
  5
10f
100
AcDbEntity
  8
Calque_1
 62
1
100
AcDbSpline
 70
8
 71
3
 72
8
 73
4
 74
0
 40
0
 40
0
 40
0
 40
0
 40
1
 40
1
 40
1
 40
1
 10
117.204596
 20
204.229509
 30
0.0
 10
117.698962
 20
205.085776
 30
0.0
 10
118.612589
 20
205.613259
 30
0.0
 10
119.601321
 20
205.613259
 30
0.0
  0
SPLINE
  5
110
100
AcDbEntity
  8
Calque_1
 62
1
100
AcDbSpline
 70
8
 71
3
 72
8
 73
4
 74
0
 40
0
 40
0
 40
0
 40
0
 40
1
 40
1
 40
1
 40
1
 10
119.601321
 20
205.613259
 30
0.0
 10
120.590053
 20
205.613259
 30
0.0
 10
121.503680
 20
205.085776
 30
0.0
 10
121.998046
 20
204.229509
 30
0.0
  0
SPLINE
  5
111
100
AcDbEntity
  8
Calque_1
 62
1
100
AcDbSpline
 70
8
 71
3
 72
8
 73
4
 74
0
 40
0
 40
0
 40
0
 40
0
 40
1
 40
1
 40
1
 40
1
 10
121.998046
 20
204.229509
 30
0.0
 10
122.492412
 20
203.373242
 30
0.0
 10
122.492412
 20
202.318277
 30
0.0
 10
121.998046
 20
201.462009
 30
0.0
  0
SPLINE
  5
112
100
AcDbEntity
  8
Calque_1
 62
1
100
AcDbSpline
 70
8
 71
3
 72
8
 73
4
 74
0
 40
0
 40
0
 40
0
 40
0
 40
1
 40
1
 40
1
 40
1
 10
121.998046
 20
201.462009
 30
0.0
 10
121.503680
 20
200.605742
 30
0.0
 10
120.590053
 20
200.078259
 30
0.0
 10
119.601321
 20
200.078259
 30
0.0
  0
LWPOLYLINE
  5
113
100
AcDbEntity
  8
Calque_1
 62
1
100
AcDbPolyline
 90
1
 70
1
 10
111.318031
 20
229.440767
 30
0.0
  0
SPLINE
  5
114
100
AcDbEntity
  8
Calque_1
 62
1
100
AcDbSpline
 70
8
 71
3
 72
8
 73
4
 74
0
 40
0
 40
0
 40
0
 40
0
 40
1
 40
1
 40
1
 40
1
 10
119.947151
 20
71.070351
 30
0.0
 10
118.958419
 20
71.070351
 30
0.0
 10
118.044792
 20
71.597834
 30
0.0
 10
117.550426
 20
72.454101
 30
0.0
  0
SPLINE
  5
115
100
AcDbEntity
  8
Calque_1
 62
1
100
AcDbSpline
 70
8
 71
3
 72
8
 73
4
 74
0
 40
0
 40
0
 40
0
 40
0
 40
1
 40
1
 40
1
 40
1
 10
117.550426
 20
72.454101
 30
0.0
 10
117.056060
 20
73.310369
 30
0.0
 10
117.056060
 20
74.365334
 30
0.0
 10
117.550426
 20
75.221601
 30
0.0
  0
SPLINE
  5
116
100
AcDbEntity
  8
Calque_1
 62
1
100
AcDbSpline
 70
8
 71
3
 72
8
 73
4
 74
0
 40
0
 40
0
 40
0
 40
0
 40
1
 40
1
 40
1
 40
1
 10
117.550426
 20
75.221601
 30
0.0
 10
118.044792
 20
76.077868
 30
0.0
 10
118.958419
 20
76.605351
 30
0.0
 10
119.947151
 20
76.605351
 30
0.0
  0
SPLINE
  5
117
100
AcDbEntity
  8
Calque_1
 62
1
100
AcDbSpline
 70
8
 71
3
 72
8
 73
4
 74
0
 40
0
 40
0
 40
0
 40
0
 40
1
 40
1
 40
1
 40
1
 10
119.947151
 20
76.605351
 30
0.0
 10
120.935883
 20
76.605351
 30
0.0
 10
121.849510
 20
76.077868
 30
0.0
 10
122.343876
 20
75.221601
 30
0.0
  0
SPLINE
  5
118
100
AcDbEntity
  8
Calque_1
 62
1
100
AcDbSpline
 70
8
 71
3
 72
8
 73
4
 74
0
 40
0
 40
0
 40
0
 40
0
 40
1
 40
1
 40
1
 40
1
 10
122.343876
 20
75.221601
 30
0.0
 10
122.838242
 20
74.365334
 30
0.0
 10
122.838242
 20
73.310369
 30
0.0
 10
122.343876
 20
72.454101
 30
0.0
  0
SPLINE
  5
119
100
AcDbEntity
  8
Calque_1
 62
1
100
AcDbSpline
 70
8
 71
3
 72
8
 73
4
 74
0
 40
0
 40
0
 40
0
 40
0
 40
1
 40
1
 40
1
 40
1
 10
122.343876
 20
72.454101
 30
0.0
 10
121.849510
 20
71.597834
 30
0.0
 10
120.935883
 20
71.070351
 30
0.0
 10
119.947151
 20
71.070351
 30
0.0
  0
LWPOLYLINE
  5
11a
100
AcDbEntity
  8
Calque_1
 62
1
100
AcDbPolyline
 90
1
 70
1
 10
119.601321
 20
200.078259
 30
0.0
  0
SPLINE
  5
11b
100
AcDbEntity
  8
Calque_1
 62
1
100
AcDbSpline
 70
8
 71
3
 72
8
 73
4
 74
0
 40
0
 40
0
 40
0
 40
0
 40
1
 40
1
 40
1
 40
1
 10
111.134771
 20
42.129091
 30
0.0
 10
110.146039
 20
42.129091
 30
0.0
 10
109.232412
 20
42.656574
 30
0.0
 10
108.738046
 20
43.512841
 30
0.0
  0
SPLINE
  5
11c
100
AcDbEntity
  8
Calque_1
 62
1
100
AcDbSpline
 70
8
 71
3
 72
8
 73
4
 74
0
 40
0
 40
0
 40
0
 40
0
 40
1
 40
1
 40
1
 40
1
 10
108.738046
 20
43.512841
 30
0.0
 10
108.243680
 20
44.369108
 30
0.0
 10
108.243680
 20
45.424074
 30
0.0
 10
108.738046
 20
46.280341
 30
0.0
  0
SPLINE
  5
11d
100
AcDbEntity
  8
Calque_1
 62
1
100
AcDbSpline
 70
8
 71
3
 72
8
 73
4
 74
0
 40
0
 40
0
 40
0
 40
0
 40
1
 40
1
 40
1
 40
1
 10
108.738046
 20
46.280341
 30
0.0
 10
109.232412
 20
47.136608
 30
0.0
 10
110.146039
 20
47.664091
 30
0.0
 10
111.134771
 20
47.664091
 30
0.0
  0
SPLINE
  5
11e
100
AcDbEntity
  8
Calque_1
 62
1
100
AcDbSpline
 70
8
 71
3
 72
8
 73
4
 74
0
 40
0
 40
0
 40
0
 40
0
 40
1
 40
1
 40
1
 40
1
 10
111.134771
 20
47.664091
 30
0.0
 10
112.123503
 20
47.664091
 30
0.0
 10
113.037130
 20
47.136608
 30
0.0
 10
113.531496
 20
46.280341
 30
0.0
  0
SPLINE
  5
11f
100
AcDbEntity
  8
Calque_1
 62
1
100
AcDbSpline
 70
8
 71
3
 72
8
 73
4
 74
0
 40
0
 40
0
 40
0
 40
0
 40
1
 40
1
 40
1
 40
1
 10
113.531496
 20
46.280341
 30
0.0
 10
114.025862
 20
45.424074
 30
0.0
 10
114.025862
 20
44.369108
 30
0.0
 10
113.531496
 20
43.512841
 30
0.0
  0
SPLINE
  5
120
100
AcDbEntity
  8
Calque_1
 62
1
100
AcDbSpline
 70
8
 71
3
 72
8
 73
4
 74
0
 40
0
 40
0
 40
0
 40
0
 40
1
 40
1
 40
1
 40
1
 10
113.531496
 20
43.512841
 30
0.0
 10
113.037130
 20
42.656574
 30
0.0
 10
112.123503
 20
42.129091
 30
0.0
 10
111.134771
 20
42.129091
 30
0.0
  0
LWPOLYLINE
  5
121
100
AcDbEntity
  8
Calque_1
 62
1
100
AcDbPolyline
 90
1
 70
1
 10
119.947151
 20
71.070351
 30
0.0
  0
LWPOLYLINE
  5
122
100
AcDbEntity
  8
Calque_1
 62
1
100
AcDbPolyline
 90
1
 70
1
 10
111.134771
 20
42.129091
 30
0.0
  0
ENDSEC
  0
SECTION
  2
OBJECTS
  0
DICTIONARY
  5
C
330
0
100
AcDbDictionary
  3
ACAD_GROUP
350
D
  3
ACAD_MLINESTYLE
350
17
  0
DICTIONARY
  5
D
330
C
100
AcDbDictionary
  0
DICTIONARY
  5
1A
330
C
100
AcDbDictionary
  0
DICTIONARY
  5
17
330
C
100
AcDbDictionary
  3
STANDARD
350
18
  0
DICTIONARY
  5
19
330
C
100
AcDbDictionary
  0
ENDSEC
  0
EOF
