  0
SECTION
  2
HEADER
  9
$ACADVER
  1
AC1014
  9
$HANDSEED
  5
FFFF
  9
$MEASUREMENT
 70
     1
  0
ENDSEC
  0
SECTION
  2
TABLES
  0
TABLE
  2
VPORT
  5
8
330
0
100
AcDbSymbolTable
 70
     4
  0
VPORT
  5
2E
330
8
100
AcDbSymbolTableRecord
100
AcDbViewportTableRecord
  2
*ACTIVE
 70
     0
 10
0.0
 20
0.0
 11
1.0
 21
1.0
 12
210.0
 22
148.5
 13
0.0
 23
0.0
 14
10.0
 24
10.0
 15
10.0
 25
10.0
 16
0.0
 26
0.0
 36
1.0
 17
0.0
 27
0.0
 37
0.0
 40
341.0
 41
1.24
 42
50.0
 43
0.0
 44
0.0
 50
0.0
 51
0.0
 71
     0
 72
   100
 73
     1
 74
     3
 75
     0
 76
     0
 77
     0
 78
     0
  0
ENDTAB
  0
TABLE
  2
LTYPE
  5
5
330
0
100
AcDbSymbolTable
 70
     1
  0
LTYPE
  5
14
330
5
100
AcDbSymbolTableRecord
100
AcDbLinetypeTableRecord
  2
BYBLOCK
 70
     0
  3

 72
    65
 73
     0
 40
0.0
  0
LTYPE
  5
15
330
5
100
AcDbSymbolTableRecord
100
AcDbLinetypeTableRecord
  2
BYLAYER
 70
     0
  3

 72
    65
 73
     0
 40
0.0
  0
LTYPE
  5
16
330
5
100
AcDbSymbolTableRecord
100
AcDbLinetypeTableRecord
  2
CONTINUOUS
 70
     0
  3
Solid line
 72
    65
 73
     0
 40
0.0
  0
ENDTAB
  0
TABLE
  2
LAYER
  5
2
100
AcDbSymbolTable
 70
4
  0
LAYER
  5
50
100
AcDbSymbolTableRecord
100
AcDbLayerTableRecord
  2
0
 70
0
  6
CONTINUOUS
  0
LAYER
  5
51
100
AcDbSymbolTableRecord
100
AcDbLayerTableRecord
  2
VISIBLE
 70
0
  6
CONTINUOUS
  0
LAYER
  5
52
100
AcDbSymbolTableRecord
100
AcDbLayerTableRecord
  2
PHANTOM
 70
0
  6
CONTINUOUS
  0
LAYER
  5
53
100
AcDbSymbolTableRecord
100
AcDbLayerTableRecord
  2
DIMENSIONS
 70
0
  6
CONTINUOUS
  0
ENDTAB
  0
TABLE
  2
STYLE
  5
3
330
0
100
AcDbSymbolTable
 70
     1
  0
STYLE
  5
11
330
3
100
AcDbSymbolTableRecord
100
AcDbTextStyleTableRecord
  2
STANDARD
 70
     0
 40
0.0
 41
1.0
 50
0.0
 71
     0
 42
2.5
  3
txt
  4

  0
ENDTAB
  0
TABLE
  2
VIEW
  5
6
330
0
100
AcDbSymbolTable
 70
     0
  0
ENDTAB
  0
TABLE
  2
UCS
  5
7
330
0
100
AcDbSymbolTable
 70
     0
  0
ENDTAB
  0
TABLE
  2
APPID
  5
9
330
0
100
AcDbSymbolTable
 70
     2
  0
APPID
  5
12
330
9
100
AcDbSymbolTableRecord
100
AcDbRegAppTableRecord
  2
ACAD
 70
     0
  0
ENDTAB
  0
TABLE
  2
DIMSTYLE
  5
A
330
0
100
AcDbSymbolTable
 70
     1
  0
DIMSTYLE
105
27
330
A
100
AcDbSymbolTableRecord
100
AcDbDimStyleTableRecord
  2
ISO-25
 70
     0
  3

  4

  5

  6

  7

 40
1.0
 41
2.5
 42
0.625
 43
3.75
 44
1.25
 45
0.0
 46
0.0
 47
0.0
 48
0.0
140
2.5
141
2.5
142
0.0
143
0.03937007874016
144
1.0
145
0.0
146
1.0
147
0.625
 71
     0
 72
     0
 73
     0
 74
     0
 75
     0
 76
     0
 77
     1
 78
     8
170
     0
171
     3
172
     1
173
     0
174
     0
175
     0
176
     0
177
     0
178
     0
270
     2
271
     2
272
     2
273
     2
274
     3
340
11
275
     0
280
     0
281
     0
282
     0
283
     0
284
     8
285
     0
286
     0
287
     3
288
     0
  0
ENDTAB
  0
TABLE
  2
BLOCK_RECORD
  5
1
330
0
100
AcDbSymbolTable
 70
     1
  0
BLOCK_RECORD
  5
1F
330
1
100
AcDbSymbolTableRecord
100
AcDbBlockTableRecord
  2
*MODEL_SPACE
  0
BLOCK_RECORD
  5
1B
330
1
100
AcDbSymbolTableRecord
100
AcDbBlockTableRecord
  2
*PAPER_SPACE
  0
ENDTAB
  0
ENDSEC
  0
SECTION
  2
BLOCKS
  0
BLOCK
  5
20
330
1F
100
AcDbEntity
  8
0
100
AcDbBlockBegin
  2
*MODEL_SPACE
 70
     0
 10
0.0
 20
0.0
 30
0.0
  3
*MODEL_SPACE
  1

  0
ENDBLK
  5
21
330
1F
100
AcDbEntity
  8
0
100
AcDbBlockEnd
  0
BLOCK
  5
1C
330
1B
100
AcDbEntity
 67
     1
  8
0
100
AcDbBlockBegin
  2
*PAPER_SPACE
  1

  0
ENDBLK
  5
1D
330
1B
100
AcDbEntity
 67
     1
  8
0
100
AcDbBlockEnd
  0
ENDSEC
  0
SECTION
  2
ENTITIES
  0
SPLINE
  5
100
100
AcDbEntity
  8
VISIBLE
 62
7
100
AcDbSpline
 70
8
 71
3
 72
8
 73
4
 74
0
 40
0
 40
0
 40
0
 40
0
 40
1
 40
1
 40
1
 40
1
 10
138.879831
 20
196.058636
 30
0.0
 10
138.495834
 20
195.909217
 30
0.0
 10
138.190210
 20
195.608417
 30
0.0
 10
138.034702
 20
195.226845
 30
0.0
  0
SPLINE
  5
101
100
AcDbEntity
  8
VISIBLE
 62
7
100
AcDbSpline
 70
8
 71
3
 72
8
 73
4
 74
0
 40
0
 40
0
 40
0
 40
0
 40
1
 40
1
 40
1
 40
1
 10
138.034702
 20
195.226845
 30
0.0
 10
137.879194
 20
194.845273
 30
0.0
 10
137.887497
 20
194.416533
 30
0.0
 10
138.057662
 20
194.041268
 30
0.0
  0
SPLINE
  5
102
100
AcDbEntity
  8
VISIBLE
 62
7
100
AcDbSpline
 70
8
 71
3
 72
8
 73
4
 74
0
 40
0
 40
0
 40
0
 40
0
 40
1
 40
1
 40
1
 40
1
 10
76.506452
 20
118.316482
 30
0.0
 10
76.858227
 20
119.110656
 30
0.0
 10
77.217926
 20
119.921547
 30
0.0
 10
77.585246
 20
120.748519
 30
0.0
  0
SPLINE
  5
103
100
AcDbEntity
  8
VISIBLE
 62
7
100
AcDbSpline
 70
8
 71
3
 72
8
 73
4
 74
0
 40
0
 40
0
 40
0
 40
0
 40
1
 40
1
 40
1
 40
1
 10
77.585246
 20
120.748519
 30
0.0
 10
86.093245
 20
139.903165
 30
0.0
 10
98.655929
 20
167.613739
 30
0.0
 10
111.282844
 20
195.459896
 30
0.0
  0
SPLINE
  5
104
100
AcDbEntity
  8
VISIBLE
 62
7
100
AcDbSpline
 70
8
 71
3
 72
8
 73
4
 74
0
 40
0
 40
0
 40
0
 40
0
 40
1
 40
1
 40
1
 40
1
 10
79.790852
 20
117.102003
 30
0.0
 10
81.791663
 20
121.618034
 30
0.0
 10
84.048764
 20
126.675382
 30
0.0
 10
86.503368
 20
132.149597
 30
0.0
  0
SPLINE
  5
105
100
AcDbEntity
  8
VISIBLE
 62
7
100
AcDbSpline
 70
8
 71
3
 72
8
 73
4
 74
0
 40
0
 40
0
 40
0
 40
0
 40
1
 40
1
 40
1
 40
1
 10
86.503368
 20
132.149597
 30
0.0
 10
94.443360
 20
149.857231
 30
0.0
 10
104.437229
 20
171.900855
 30
0.0
 10
114.476855
 20
194.041272
 30
0.0
  0
SPLINE
  5
106
100
AcDbEntity
  8
VISIBLE
 62
7
100
AcDbSpline
 70
8
 71
3
 72
8
 73
4
 74
0
 40
0
 40
0
 40
0
 40
0
 40
1
 40
1
 40
1
 40
1
 10
126.267258
 20
34.709389
 30
0.0
 10
119.238231
 20
35.093806
 30
0.0
 10
112.040567
 20
35.481964
 30
0.0
 10
102.271298
 20
38.109618
 30
0.0
  0
SPLINE
  5
107
100
AcDbEntity
  8
VISIBLE
 62
7
100
AcDbSpline
 70
8
 71
3
 72
8
 73
4
 74
0
 40
0
 40
0
 40
0
 40
0
 40
1
 40
1
 40
1
 40
1
 10
102.271298
 20
38.109618
 30
0.0
 10
101.050139
 20
38.438075
 30
0.0
 10
99.788800
 20
38.801524
 30
0.0
 10
98.480410
 20
39.205049
 30
0.0
  0
SPLINE
  5
108
100
AcDbEntity
  8
VISIBLE
 62
7
100
AcDbSpline
 70
8
 71
3
 72
8
 73
4
 74
0
 40
0
 40
0
 40
0
 40
0
 40
1
 40
1
 40
1
 40
1
 10
98.480410
 20
39.205049
 30
0.0
 10
97.172021
 20
39.608575
 30
0.0
 10
95.816583
 20
40.052178
 30
0.0
 10
94.436295
 20
40.527237
 30
0.0
  0
SPLINE
  5
109
100
AcDbEntity
  8
VISIBLE
 62
7
100
AcDbSpline
 70
8
 71
3
 72
8
 73
4
 74
0
 40
0
 40
0
 40
0
 40
0
 40
1
 40
1
 40
1
 40
1
 10
94.436295
 20
40.527237
 30
0.0
 10
91.675720
 20
41.477356
 30
0.0
 10
88.815747
 20
42.553303
 30
0.0
 10
86.071852
 20
43.667029
 30
0.0
  0
SPLINE
  5
10a
100
AcDbEntity
  8
VISIBLE
 62
7
100
AcDbSpline
 70
8
 71
3
 72
8
 73
4
 74
0
 40
0
 40
0
 40
0
 40
0
 40
1
 40
1
 40
1
 40
1
 10
86.071852
 20
43.667029
 30
0.0
 10
83.327956
 20
44.780755
 30
0.0
 10
80.700137
 20
45.932259
 30
0.0
 10
78.400699
 20
47.034514
 30
0.0
  0
SPLINE
  5
10b
100
AcDbEntity
  8
VISIBLE
 62
7
100
AcDbSpline
 70
8
 71
3
 72
8
 73
4
 74
0
 40
0
 40
0
 40
0
 40
0
 40
1
 40
1
 40
1
 40
1
 10
78.400699
 20
47.034514
 30
0.0
 10
76.101262
 20
48.136770
 30
0.0
 10
74.130206
 20
49.189775
 30
0.0
 10
72.670539
 20
50.138345
 30
0.0
  0
SPLINE
  5
10c
100
AcDbEntity
  8
VISIBLE
 62
7
100
AcDbSpline
 70
8
 71
3
 72
8
 73
4
 74
0
 40
0
 40
0
 40
0
 40
0
 40
1
 40
1
 40
1
 40
1
 10
72.670539
 20
50.138345
 30
0.0
 10
71.210872
 20
51.086913
 30
0.0
 10
70.262594
 20
51.931045
 30
0.0
 10
69.651193
 20
52.779696
 30
0.0
  0
SPLINE
  5
10d
100
AcDbEntity
  8
VISIBLE
 62
7
100
AcDbSpline
 70
8
 71
3
 72
8
 73
4
 74
0
 40
0
 40
0
 40
0
 40
0
 40
1
 40
1
 40
1
 40
1
 10
69.651193
 20
52.779696
 30
0.0
 10
69.345493
 20
53.204021
 30
0.0
 10
69.124012
 20
53.629475
 30
0.0
 10
68.984533
 20
54.036360
 30
0.0
  0
SPLINE
  5
10e
100
AcDbEntity
  8
VISIBLE
 62
7
100
AcDbSpline
 70
8
 71
3
 72
8
 73
4
 74
0
 40
0
 40
0
 40
0
 40
0
 40
1
 40
1
 40
1
 40
1
 10
68.984533
 20
54.036360
 30
0.0
 10
68.845054
 20
54.443245
 30
0.0
 10
68.787577
 20
54.831559
 30
0.0
 10
68.769389
 20
55.146426
 30
0.0
  0
SPLINE
  5
10f
100
AcDbEntity
  8
VISIBLE
 62
7
100
AcDbSpline
 70
8
 71
3
 72
8
 73
4
 74
0
 40
0
 40
0
 40
0
 40
0
 40
1
 40
1
 40
1
 40
1
 10
68.769389
 20
55.146426
 30
0.0
 10
68.760296
 20
55.303860
 30
0.0
 10
68.761024
 20
55.442932
 30
0.0
 10
68.763334
 20
55.562494
 30
0.0
  0
SPLINE
  5
110
100
AcDbEntity
  8
VISIBLE
 62
7
100
AcDbSpline
 70
8
 71
3
 72
8
 73
4
 74
0
 40
0
 40
0
 40
0
 40
0
 40
1
 40
1
 40
1
 40
1
 10
68.763334
 20
55.562494
 30
0.0
 10
68.765644
 20
55.682057
 30
0.0
 10
68.769536
 20
55.782111
 30
0.0
 10
68.775595
 20
55.889836
 30
0.0
  0
SPLINE
  5
111
100
AcDbEntity
  8
VISIBLE
 62
7
100
AcDbSpline
 70
8
 71
3
 72
8
 73
4
 74
0
 40
0
 40
0
 40
0
 40
0
 40
1
 40
1
 40
1
 40
1
 10
68.775595
 20
55.889836
 30
0.0
 10
68.787712
 20
56.105286
 30
0.0
 10
68.808499
 20
56.351422
 30
0.0
 10
68.848339
 20
56.623256
 30
0.0
  0
SPLINE
  5
112
100
AcDbEntity
  8
VISIBLE
 62
7
100
AcDbSpline
 70
8
 71
3
 72
8
 73
4
 74
0
 40
0
 40
0
 40
0
 40
0
 40
1
 40
1
 40
1
 40
1
 10
68.848339
 20
56.623256
 30
0.0
 10
68.928017
 20
57.166923
 30
0.0
 10
69.083905
 20
57.813380
 30
0.0
 10
69.379247
 20
58.879323
 30
0.0
  0
SPLINE
  5
113
100
AcDbEntity
  8
VISIBLE
 62
7
100
AcDbSpline
 70
8
 71
3
 72
8
 73
4
 74
0
 40
0
 40
0
 40
0
 40
0
 40
1
 40
1
 40
1
 40
1
 10
69.379247
 20
58.879323
 30
0.0
 10
69.674589
 20
59.945266
 30
0.0
 10
70.094677
 20
61.361927
 30
0.0
 10
70.557504
 20
62.781742
 30
0.0
  0
SPLINE
  5
114
100
AcDbEntity
  8
VISIBLE
 62
7
100
AcDbSpline
 70
8
 71
3
 72
8
 73
4
 74
0
 40
0
 40
0
 40
0
 40
0
 40
1
 40
1
 40
1
 40
1
 10
70.557504
 20
62.781742
 30
0.0
 10
70.788917
 20
63.491649
 30
0.0
 10
71.031015
 20
64.202345
 30
0.0
 10
71.273972
 20
64.866362
 30
0.0
  0
SPLINE
  5
115
100
AcDbEntity
  8
VISIBLE
 62
7
100
AcDbSpline
 70
8
 71
3
 72
8
 73
4
 74
0
 40
0
 40
0
 40
0
 40
0
 40
1
 40
1
 40
1
 40
1
 10
71.273972
 20
64.866362
 30
0.0
 10
71.516930
 20
65.530380
 30
0.0
 10
71.760748
 20
66.147720
 30
0.0
 10
71.994101
 20
66.704077
 30
0.0
  0
SPLINE
  5
116
100
AcDbEntity
  8
VISIBLE
 62
7
100
AcDbSpline
 70
8
 71
3
 72
8
 73
4
 74
0
 40
0
 40
0
 40
0
 40
0
 40
1
 40
1
 40
1
 40
1
 10
71.994101
 20
66.704077
 30
0.0
 10
72.460806
 20
67.816792
 30
0.0
 10
72.885653
 20
68.685578
 30
0.0
 10
73.188118
 20
69.307119
 30
0.0
  0
SPLINE
  5
117
100
AcDbEntity
  8
VISIBLE
 62
7
100
AcDbSpline
 70
8
 71
3
 72
8
 73
4
 74
0
 40
0
 40
0
 40
0
 40
0
 40
1
 40
1
 40
1
 40
1
 10
73.188118
 20
69.307119
 30
0.0
 10
73.263734
 20
69.462505
 30
0.0
 10
73.331701
 20
69.602437
 30
0.0
 10
73.389491
 20
69.724825
 30
0.0
  0
SPLINE
  5
118
100
AcDbEntity
  8
VISIBLE
 62
7
100
AcDbSpline
 70
8
 71
3
 72
8
 73
4
 74
0
 40
0
 40
0
 40
0
 40
0
 40
1
 40
1
 40
1
 40
1
 10
73.389491
 20
69.724825
 30
0.0
 10
73.476177
 20
69.908407
 30
0.0
 10
73.539964
 20
70.052514
 30
0.0
 10
73.569991
 20
70.114088
 30
0.0
  0
SPLINE
  5
119
100
AcDbEntity
  8
VISIBLE
 62
7
100
AcDbSpline
 70
8
 71
3
 72
8
 73
4
 74
0
 40
0
 40
0
 40
0
 40
0
 40
1
 40
1
 40
1
 40
1
 10
73.569991
 20
70.114088
 30
0.0
 10
73.600018
 20
70.175663
 30
0.0
 10
73.596285
 20
70.154705
 30
0.0
 10
73.603462
 20
70.123863
 30
0.0
  0
SPLINE
  5
11a
100
AcDbEntity
  8
VISIBLE
 62
7
100
AcDbSpline
 70
8
 71
3
 72
8
 73
4
 74
0
 40
0
 40
0
 40
0
 40
0
 40
1
 40
1
 40
1
 40
1
 10
73.603462
 20
70.123863
 30
0.0
 10
73.610640
 20
70.093021
 30
0.0
 10
73.628397
 20
70.075651
 30
0.0
 10
73.617799
 20
70.148594
 30
0.0
  0
SPLINE
  5
11b
100
AcDbEntity
  8
VISIBLE
 62
7
100
AcDbSpline
 70
8
 71
3
 72
8
 73
4
 74
0
 40
0
 40
0
 40
0
 40
0
 40
1
 40
1
 40
1
 40
1
 10
73.617799
 20
70.148594
 30
0.0
 10
73.600134
 20
70.270167
 30
0.0
 10
73.486591
 20
70.602369
 30
0.0
 10
73.262978
 20
71.144690
 30
0.0
  0
SPLINE
  5
11c
100
AcDbEntity
  8
VISIBLE
 62
7
100
AcDbSpline
 70
8
 71
3
 72
8
 73
4
 74
0
 40
0
 40
0
 40
0
 40
0
 40
1
 40
1
 40
1
 40
1
 10
73.262978
 20
71.144690
 30
0.0
 10
73.084087
 20
71.578548
 30
0.0
 10
72.834752
 20
72.146882
 30
0.0
 10
72.519021
 20
72.885542
 30
0.0
  0
SPLINE
  5
11d
100
AcDbEntity
  8
VISIBLE
 62
7
100
AcDbSpline
 70
8
 71
3
 72
8
 73
4
 74
0
 40
0
 40
0
 40
0
 40
0
 40
1
 40
1
 40
1
 40
1
 10
72.519021
 20
72.885542
 30
0.0
 10
72.203290
 20
73.624202
 30
0.0
 10
71.821164
 20
74.533188
 30
0.0
 10
71.404281
 20
75.528510
 30
0.0
  0
SPLINE
  5
11e
100
AcDbEntity
  8
VISIBLE
 62
7
100
AcDbSpline
 70
8
 71
3
 72
8
 73
4
 74
0
 40
0
 40
0
 40
0
 40
0
 40
1
 40
1
 40
1
 40
1
 10
71.404281
 20
75.528510
 30
0.0
 10
70.570514
 20
77.519156
 30
0.0
 10
69.597718
 20
79.855146
 30
0.0
 10
68.744290
 20
81.858128
 30
0.0
  0
SPLINE
  5
11f
100
AcDbEntity
  8
VISIBLE
 62
7
100
AcDbSpline
 70
8
 71
3
 72
8
 73
4
 74
0
 40
0
 40
0
 40
0
 40
0
 40
1
 40
1
 40
1
 40
1
 10
68.744290
 20
81.858128
 30
0.0
 10
68.317577
 20
82.859619
 30
0.0
 10
67.920705
 20
83.777858
 30
0.0
 10
67.587355
 20
84.525961
 30
0.0
  0
SPLINE
  5
120
100
AcDbEntity
  8
VISIBLE
 62
7
100
AcDbSpline
 70
8
 71
3
 72
8
 73
4
 74
0
 40
0
 40
0
 40
0
 40
0
 40
1
 40
1
 40
1
 40
1
 10
67.587355
 20
84.525961
 30
0.0
 10
67.254005
 20
85.274065
 30
0.0
 10
66.978098
 20
85.870547
 30
0.0
 10
66.745636
 20
86.359912
 30
0.0
  0
SPLINE
  5
121
100
AcDbEntity
  8
VISIBLE
 62
7
100
AcDbSpline
 70
8
 71
3
 72
8
 73
4
 74
0
 40
0
 40
0
 40
0
 40
0
 40
1
 40
1
 40
1
 40
1
 10
66.745636
 20
86.359912
 30
0.0
 10
66.280711
 20
87.338643
 30
0.0
 10
65.989565
 20
87.888904
 30
0.0
 10
65.778591
 20
88.502438
 30
0.0
  0
SPLINE
  5
122
100
AcDbEntity
  8
VISIBLE
 62
7
100
AcDbSpline
 70
8
 71
3
 72
8
 73
4
 74
0
 40
0
 40
0
 40
0
 40
0
 40
1
 40
1
 40
1
 40
1
 10
65.778591
 20
88.502438
 30
0.0
 10
65.673104
 20
88.809205
 30
0.0
 10
65.587660
 20
89.131791
 30
0.0
 10
65.539848
 20
89.459989
 30
0.0
  0
SPLINE
  5
123
100
AcDbEntity
  8
VISIBLE
 62
7
100
AcDbSpline
 70
8
 71
3
 72
8
 73
4
 74
0
 40
0
 40
0
 40
0
 40
0
 40
1
 40
1
 40
1
 40
1
 10
65.539848
 20
89.459989
 30
0.0
 10
65.492036
 20
89.788187
 30
0.0
 10
65.481855
 20
90.121999
 30
0.0
 10
65.500756
 20
90.476119
 30
0.0
  0
SPLINE
  5
124
100
AcDbEntity
  8
VISIBLE
 62
7
100
AcDbSpline
 70
8
 71
3
 72
8
 73
4
 74
0
 40
0
 40
0
 40
0
 40
0
 40
1
 40
1
 40
1
 40
1
 10
65.500756
 20
90.476119
 30
0.0
 10
65.538558
 20
91.184361
 30
0.0
 10
65.692686
 20
91.973842
 30
0.0
 10
65.974112
 20
92.963567
 30
0.0
  0
SPLINE
  5
125
100
AcDbEntity
  8
VISIBLE
 62
7
100
AcDbSpline
 70
8
 71
3
 72
8
 73
4
 74
0
 40
0
 40
0
 40
0
 40
0
 40
1
 40
1
 40
1
 40
1
 10
65.974112
 20
92.963567
 30
0.0
 10
66.396250
 20
94.448155
 30
0.0
 10
67.104806
 20
96.383292
 30
0.0
 10
68.225487
 20
99.144761
 30
0.0
  0
SPLINE
  5
126
100
AcDbEntity
  8
VISIBLE
 62
7
100
AcDbSpline
 70
8
 71
3
 72
8
 73
4
 74
0
 40
0
 40
0
 40
0
 40
0
 40
1
 40
1
 40
1
 40
1
 10
68.225487
 20
99.144761
 30
0.0
 10
68.972607
 20
100.985741
 30
0.0
 10
69.902894
 20
103.193980
 30
0.0
 10
71.054085
 20
105.867809
 30
0.0
  0
SPLINE
  5
127
100
AcDbEntity
  8
VISIBLE
 62
7
100
AcDbSpline
 70
8
 71
3
 72
8
 73
4
 74
0
 40
0
 40
0
 40
0
 40
0
 40
1
 40
1
 40
1
 40
1
 10
71.054085
 20
105.867809
 30
0.0
 10
72.315460
 20
108.797558
 30
0.0
 10
73.835986
 20
112.273634
 30
0.0
 10
75.574265
 20
116.209074
 30
0.0
  0
SPLINE
  5
128
100
AcDbEntity
  8
VISIBLE
 62
7
100
AcDbSpline
 70
8
 71
3
 72
8
 73
4
 74
0
 40
0
 40
0
 40
0
 40
0
 40
1
 40
1
 40
1
 40
1
 10
176.027510
 20
118.317716
 30
0.0
 10
174.021334
 20
122.846971
 30
0.0
 10
171.758842
 20
127.916931
 30
0.0
 10
169.298254
 20
133.404990
 30
0.0
  0
SPLINE
  5
129
100
AcDbEntity
  8
VISIBLE
 62
7
100
AcDbSpline
 70
8
 71
3
 72
8
 73
4
 74
0
 40
0
 40
0
 40
0
 40
0
 40
1
 40
1
 40
1
 40
1
 10
169.298254
 20
133.404990
 30
0.0
 10
161.336054
 20
151.163769
 30
0.0
 10
151.314116
 20
173.269164
 30
0.0
 10
141.251672
 20
195.459895
 30
0.0
  0
SPLINE
  5
12a
100
AcDbEntity
  8
VISIBLE
 62
7
100
AcDbSpline
 70
8
 71
3
 72
8
 73
4
 74
0
 40
0
 40
0
 40
0
 40
0
 40
1
 40
1
 40
1
 40
1
 10
141.251674
 20
195.459890
 30
0.0
 10
140.922696
 20
196.185387
 30
0.0
 10
140.084000
 20
196.527194
 30
0.0
 10
139.341620
 20
196.238324
 30
0.0
  0
SPLINE
  5
12b
100
AcDbEntity
  8
VISIBLE
 62
7
100
AcDbSpline
 70
8
 71
3
 72
8
 73
4
 74
0
 40
0
 40
0
 40
0
 40
0
 40
1
 40
1
 40
1
 40
1
 10
126.267258
 20
38.209389
 30
0.0
 10
131.538822
 20
38.497702
 30
0.0
 10
136.685204
 20
38.787641
 30
0.0
 10
142.909471
 20
39.990484
 30
0.0
  0
SPLINE
  5
12c
100
AcDbEntity
  8
VISIBLE
 62
7
100
AcDbSpline
 70
8
 71
3
 72
8
 73
4
 74
0
 40
0
 40
0
 40
0
 40
0
 40
1
 40
1
 40
1
 40
1
 10
142.909471
 20
39.990484
 30
0.0
 10
146.021605
 20
40.591905
 30
0.0
 10
149.403210
 20
41.421553
 30
0.0
 10
153.205290
 20
42.600576
 30
0.0
  0
SPLINE
  5
12d
100
AcDbEntity
  8
VISIBLE
 62
7
100
AcDbSpline
 70
8
 71
3
 72
8
 73
4
 74
0
 40
0
 40
0
 40
0
 40
0
 40
1
 40
1
 40
1
 40
1
 10
153.205290
 20
42.600576
 30
0.0
 10
155.740010
 20
43.386592
 30
0.0
 10
158.489216
 20
44.339452
 30
0.0
 10
161.235387
 20
45.374346
 30
0.0
  0
SPLINE
  5
12e
100
AcDbEntity
  8
VISIBLE
 62
7
100
AcDbSpline
 70
8
 71
3
 72
8
 73
4
 74
0
 40
0
 40
0
 40
0
 40
0
 40
1
 40
1
 40
1
 40
1
 10
161.235387
 20
45.374346
 30
0.0
 10
165.354643
 20
46.926687
 30
0.0
 10
169.467068
 20
48.663605
 30
0.0
 10
172.788706
 20
50.265702
 30
0.0
  0
SPLINE
  5
12f
100
AcDbEntity
  8
VISIBLE
 62
7
100
AcDbSpline
 70
8
 71
3
 72
8
 73
4
 74
0
 40
0
 40
0
 40
0
 40
0
 40
1
 40
1
 40
1
 40
1
 10
172.788706
 20
50.265702
 30
0.0
 10
173.895918
 20
50.799734
 30
0.0
 10
174.915265
 20
51.318786
 30
0.0
 10
175.815105
 20
51.808649
 30
0.0
  0
SPLINE
  5
130
100
AcDbEntity
  8
VISIBLE
 62
7
100
AcDbSpline
 70
8
 71
3
 72
8
 73
4
 74
0
 40
0
 40
0
 40
0
 40
0
 40
1
 40
1
 40
1
 40
1
 10
175.815105
 20
51.808649
 30
0.0
 10
176.714945
 20
52.298511
 30
0.0
 10
177.495277
 20
52.759184
 30
0.0
 10
178.110693
 20
53.169120
 30
0.0
  0
SPLINE
  5
131
100
AcDbEntity
  8
VISIBLE
 62
7
100
AcDbSpline
 70
8
 71
3
 72
8
 73
4
 74
0
 40
0
 40
0
 40
0
 40
0
 40
1
 40
1
 40
1
 40
1
 10
178.110693
 20
53.169120
 30
0.0
 10
179.341523
 20
53.988991
 30
0.0
 10
179.912685
 20
54.605912
 30
0.0
 10
180.135945
 20
54.945675
 30
0.0
  0
SPLINE
  5
132
100
AcDbEntity
  8
VISIBLE
 62
7
100
AcDbSpline
 70
8
 71
3
 72
8
 73
4
 74
0
 40
0
 40
0
 40
0
 40
0
 40
1
 40
1
 40
1
 40
1
 10
180.135945
 20
54.945675
 30
0.0
 10
180.247575
 20
55.115556
 30
0.0
 10
180.272230
 20
55.216149
 30
0.0
 10
180.281734
 20
55.284098
 30
0.0
  0
SPLINE
  5
133
100
AcDbEntity
  8
VISIBLE
 62
7
100
AcDbSpline
 70
8
 71
3
 72
8
 73
4
 74
0
 40
0
 40
0
 40
0
 40
0
 40
1
 40
1
 40
1
 40
1
 10
180.281734
 20
55.284098
 30
0.0
 10
180.291239
 20
55.352048
 30
0.0
 10
180.285593
 20
55.387355
 30
0.0
 10
180.280304
 20
55.473399
 30
0.0
  0
SPLINE
  5
134
100
AcDbEntity
  8
VISIBLE
 62
7
100
AcDbSpline
 70
8
 71
3
 72
8
 73
4
 74
0
 40
0
 40
0
 40
0
 40
0
 40
1
 40
1
 40
1
 40
1
 10
180.280304
 20
55.473399
 30
0.0
 10
180.277659
 20
55.516421
 30
0.0
 10
180.275104
 20
55.572127
 30
0.0
 10
180.271742
 20
55.644322
 30
0.0
  0
SPLINE
  5
135
100
AcDbEntity
  8
VISIBLE
 62
7
100
AcDbSpline
 70
8
 71
3
 72
8
 73
4
 74
0
 40
0
 40
0
 40
0
 40
0
 40
1
 40
1
 40
1
 40
1
 10
180.271742
 20
55.644322
 30
0.0
 10
180.268380
 20
55.716518
 30
0.0
 10
180.264212
 20
55.805203
 30
0.0
 10
180.258820
 20
55.872567
 30
0.0
  0
SPLINE
  5
136
100
AcDbEntity
  8
VISIBLE
 62
7
100
AcDbSpline
 70
8
 71
3
 72
8
 73
4
 74
0
 40
0
 40
0
 40
0
 40
0
 40
1
 40
1
 40
1
 40
1
 10
180.258820
 20
55.872567
 30
0.0
 10
180.248035
 20
56.007297
 30
0.0
 10
180.234170
 20
56.108652
 30
0.0
 10
180.205494
 20
56.261813
 30
0.0
  0
SPLINE
  5
137
100
AcDbEntity
  8
VISIBLE
 62
7
100
AcDbSpline
 70
8
 71
3
 72
8
 73
4
 74
0
 40
0
 40
0
 40
0
 40
0
 40
1
 40
1
 40
1
 40
1
 10
180.205494
 20
56.261813
 30
0.0
 10
180.176818
 20
56.414973
 30
0.0
 10
180.133331
 20
56.619940
 30
0.0
 10
180.058851
 20
56.921347
 30
0.0
  0
SPLINE
  5
138
100
AcDbEntity
  8
VISIBLE
 62
7
100
AcDbSpline
 70
8
 71
3
 72
8
 73
4
 74
0
 40
0
 40
0
 40
0
 40
0
 40
1
 40
1
 40
1
 40
1
 10
180.058851
 20
56.921347
 30
0.0
 10
179.984371
 20
57.222754
 30
0.0
 10
179.878898
 20
57.620601
 30
0.0
 10
179.737160
 20
58.126638
 30
0.0
  0
SPLINE
  5
139
100
AcDbEntity
  8
VISIBLE
 62
7
100
AcDbSpline
 70
8
 71
3
 72
8
 73
4
 74
0
 40
0
 40
0
 40
0
 40
0
 40
1
 40
1
 40
1
 40
1
 10
179.737160
 20
58.126638
 30
0.0
 10
179.453684
 20
59.138713
 30
0.0
 10
179.042648
 20
60.517451
 30
0.0
 10
178.596421
 20
61.875911
 30
0.0
  0
SPLINE
  5
13a
100
AcDbEntity
  8
VISIBLE
 62
7
100
AcDbSpline
 70
8
 71
3
 72
8
 73
4
 74
0
 40
0
 40
0
 40
0
 40
0
 40
1
 40
1
 40
1
 40
1
 10
178.596421
 20
61.875911
 30
0.0
 10
178.373307
 20
62.555141
 30
0.0
 10
178.141396
 20
63.229301
 30
0.0
 10
177.913177
 20
63.845028
 30
0.0
  0
SPLINE
  5
13b
100
AcDbEntity
  8
VISIBLE
 62
7
100
AcDbSpline
 70
8
 71
3
 72
8
 73
4
 74
0
 40
0
 40
0
 40
0
 40
0
 40
1
 40
1
 40
1
 40
1
 10
177.913177
 20
63.845028
 30
0.0
 10
177.456739
 20
65.076480
 30
0.0
 10
177.015070
 20
66.074194
 30
0.0
 10
176.637076
 20
66.879527
 30
0.0
  0
SPLINE
  5
13c
100
AcDbEntity
  8
VISIBLE
 62
7
100
AcDbSpline
 70
8
 71
3
 72
8
 73
4
 74
0
 40
0
 40
0
 40
0
 40
0
 40
1
 40
1
 40
1
 40
1
 10
176.637076
 20
66.879527
 30
0.0
 10
176.353581
 20
67.483528
 30
0.0
 10
176.105903
 20
67.979314
 30
0.0
 10
175.902034
 20
68.403296
 30
0.0
  0
SPLINE
  5
13d
100
AcDbEntity
  8
VISIBLE
 62
7
100
AcDbSpline
 70
8
 71
3
 72
8
 73
4
 74
0
 40
0
 40
0
 40
0
 40
0
 40
1
 40
1
 40
1
 40
1
 10
175.902034
 20
68.403296
 30
0.0
 10
175.800100
 20
68.615287
 30
0.0
 10
175.709117
 20
68.809327
 30
0.0
 10
175.620695
 20
69.076092
 30
0.0
  0
SPLINE
  5
13e
100
AcDbEntity
  8
VISIBLE
 62
7
100
AcDbSpline
 70
8
 71
3
 72
8
 73
4
 74
0
 40
0
 40
0
 40
0
 40
0
 40
1
 40
1
 40
1
 40
1
 10
175.620695
 20
69.076092
 30
0.0
 10
175.532272
 20
69.342857
 30
0.0
 10
175.446408
 20
69.682347
 30
0.0
 10
175.431757
 20
70.053687
 30
0.0
  0
SPLINE
  5
13f
100
AcDbEntity
  8
VISIBLE
 62
7
100
AcDbSpline
 70
8
 71
3
 72
8
 73
4
 74
0
 40
0
 40
0
 40
0
 40
0
 40
1
 40
1
 40
1
 40
1
 10
175.431757
 20
70.053687
 30
0.0
 10
175.417106
 20
70.425026
 30
0.0
 10
175.470984
 20
70.794737
 30
0.0
 10
175.552413
 20
71.113717
 30
0.0
  0
SPLINE
  5
140
100
AcDbEntity
  8
VISIBLE
 62
7
100
AcDbSpline
 70
8
 71
3
 72
8
 73
4
 74
0
 40
0
 40
0
 40
0
 40
0
 40
1
 40
1
 40
1
 40
1
 10
175.552413
 20
71.113717
 30
0.0
 10
175.688128
 20
71.645352
 30
0.0
 10
175.871941
 20
72.085210
 30
0.0
 10
176.122563
 20
72.670667
 30
0.0
  0
SPLINE
  5
141
100
AcDbEntity
  8
VISIBLE
 62
7
100
AcDbSpline
 70
8
 71
3
 72
8
 73
4
 74
0
 40
0
 40
0
 40
0
 40
0
 40
1
 40
1
 40
1
 40
1
 10
176.122563
 20
72.670667
 30
0.0
 10
176.323061
 20
73.139034
 30
0.0
 10
176.566318
 20
73.700584
 30
0.0
 10
176.877264
 20
74.432278
 30
0.0
  0
SPLINE
  5
142
100
AcDbEntity
  8
VISIBLE
 62
7
100
AcDbSpline
 70
8
 71
3
 72
8
 73
4
 74
0
 40
0
 40
0
 40
0
 40
0
 40
1
 40
1
 40
1
 40
1
 10
176.877264
 20
74.432278
 30
0.0
 10
177.188210
 20
75.163972
 30
0.0
 10
177.566845
 20
76.065808
 30
0.0
 10
177.981704
 20
77.057019
 30
0.0
  0
SPLINE
  5
143
100
AcDbEntity
  8
VISIBLE
 62
7
100
AcDbSpline
 70
8
 71
3
 72
8
 73
4
 74
0
 40
0
 40
0
 40
0
 40
0
 40
1
 40
1
 40
1
 40
1
 10
177.981704
 20
77.057019
 30
0.0
 10
178.811424
 20
79.039439
 30
0.0
 10
179.786044
 20
81.379354
 30
0.0
 10
180.650145
 20
83.403332
 30
0.0
  0
SPLINE
  5
144
100
AcDbEntity
  8
VISIBLE
 62
7
100
AcDbSpline
 70
8
 71
3
 72
8
 73
4
 74
0
 40
0
 40
0
 40
0
 40
0
 40
1
 40
1
 40
1
 40
1
 10
180.650145
 20
83.403332
 30
0.0
 10
181.082195
 20
84.415321
 30
0.0
 10
181.486616
 20
85.348325
 30
0.0
 10
181.833885
 20
86.125042
 30
0.0
  0
SPLINE
  5
145
100
AcDbEntity
  8
VISIBLE
 62
7
100
AcDbSpline
 70
8
 71
3
 72
8
 73
4
 74
0
 40
0
 40
0
 40
0
 40
0
 40
1
 40
1
 40
1
 40
1
 10
181.833885
 20
86.125042
 30
0.0
 10
182.181153
 20
86.901759
 30
0.0
 10
182.471269
 20
87.522187
 30
0.0
 10
182.709955
 20
88.026034
 30
0.0
  0
SPLINE
  5
146
100
AcDbEntity
  8
VISIBLE
 62
7
100
AcDbSpline
 70
8
 71
3
 72
8
 73
4
 74
0
 40
0
 40
0
 40
0
 40
0
 40
1
 40
1
 40
1
 40
1
 10
182.709955
 20
88.026034
 30
0.0
 10
182.948641
 20
88.529881
 30
0.0
 10
183.135897
 20
88.917146
 30
0.0
 10
183.267770
 20
89.209146
 30
0.0
  0
SPLINE
  5
147
100
AcDbEntity
  8
VISIBLE
 62
7
100
AcDbSpline
 70
8
 71
3
 72
8
 73
4
 74
0
 40
0
 40
0
 40
0
 40
0
 40
1
 40
1
 40
1
 40
1
 10
183.267770
 20
89.209146
 30
0.0
 10
183.399642
 20
89.501146
 30
0.0
 10
183.476132
 20
89.697882
 30
0.0
 10
183.513477
 20
89.816877
 30
0.0
  0
SPLINE
  5
148
100
AcDbEntity
  8
VISIBLE
 62
7
100
AcDbSpline
 70
8
 71
3
 72
8
 73
4
 74
0
 40
0
 40
0
 40
0
 40
0
 40
1
 40
1
 40
1
 40
1
 10
183.513477
 20
89.816877
 30
0.0
 10
183.550821
 20
89.935872
 30
0.0
 10
183.549021
 20
89.977127
 30
0.0
 10
183.548398
 20
90.058824
 30
0.0
  0
SPLINE
  5
149
100
AcDbEntity
  8
VISIBLE
 62
7
100
AcDbSpline
 70
8
 71
3
 72
8
 73
4
 74
0
 40
0
 40
0
 40
0
 40
0
 40
1
 40
1
 40
1
 40
1
 10
183.548398
 20
90.058824
 30
0.0
 10
183.547774
 20
90.140520
 30
0.0
 10
183.548326
 20
90.262659
 30
0.0
 10
183.531250
 20
90.437542
 30
0.0
  0
SPLINE
  5
14a
100
AcDbEntity
  8
VISIBLE
 62
7
100
AcDbSpline
 70
8
 71
3
 72
8
 73
4
 74
0
 40
0
 40
0
 40
0
 40
0
 40
1
 40
1
 40
1
 40
1
 10
183.531250
 20
90.437542
 30
0.0
 10
183.497098
 20
90.787308
 30
0.0
 10
183.392434
 20
91.348049
 30
0.0
 10
183.148305
 20
92.182389
 30
0.0
  0
SPLINE
  5
14b
100
AcDbEntity
  8
VISIBLE
 62
7
100
AcDbSpline
 70
8
 71
3
 72
8
 73
4
 74
0
 40
0
 40
0
 40
0
 40
0
 40
1
 40
1
 40
1
 40
1
 10
183.148305
 20
92.182389
 30
0.0
 10
182.904175
 20
93.016729
 30
0.0
 10
182.520579
 20
94.124668
 30
0.0
 10
181.965611
 20
95.570649
 30
0.0
  0
SPLINE
  5
14c
100
AcDbEntity
  8
VISIBLE
 62
7
100
AcDbSpline
 70
8
 71
3
 72
8
 73
4
 74
0
 40
0
 40
0
 40
0
 40
0
 40
1
 40
1
 40
1
 40
1
 10
181.965611
 20
95.570649
 30
0.0
 10
181.410643
 20
97.016629
 30
0.0
 10
180.684302
 20
98.800650
 30
0.0
 10
179.751300
 20
101.013972
 30
0.0
  0
SPLINE
  5
14d
100
AcDbEntity
  8
VISIBLE
 62
7
100
AcDbSpline
 70
8
 71
3
 72
8
 73
4
 74
0
 40
0
 40
0
 40
0
 40
0
 40
1
 40
1
 40
1
 40
1
 10
179.751300
 20
101.013972
 30
0.0
 10
179.051548
 20
102.673963
 30
0.0
 10
178.235549
 20
104.575435
 30
0.0
 10
177.295431
 20
106.740710
 30
0.0
  0
SPLINE
  5
14e
100
AcDbEntity
  8
VISIBLE
 62
7
100
AcDbSpline
 70
8
 71
3
 72
8
 73
4
 74
0
 40
0
 40
0
 40
0
 40
0
 40
1
 40
1
 40
1
 40
1
 10
177.295431
 20
106.740710
 30
0.0
 10
176.092880
 20
109.510417
 30
0.0
 10
174.697318
 20
112.687922
 30
0.0
 10
173.138336
 20
116.210603
 30
0.0
  0
SPLINE
  5
14f
100
AcDbEntity
  8
VISIBLE
 62
7
100
AcDbSpline
 70
8
 71
3
 72
8
 73
4
 74
0
 40
0
 40
0
 40
0
 40
0
 40
1
 40
1
 40
1
 40
1
 10
126.267258
 20
34.709389
 30
0.0
 10
131.539028
 20
34.997701
 30
0.0
 10
136.905708
 20
35.285665
 30
0.0
 10
143.380728
 20
36.522355
 30
0.0
  0
SPLINE
  5
150
100
AcDbEntity
  8
VISIBLE
 62
7
100
AcDbSpline
 70
8
 71
3
 72
8
 73
4
 74
0
 40
0
 40
0
 40
0
 40
0
 40
1
 40
1
 40
1
 40
1
 10
143.380728
 20
36.522355
 30
0.0
 10
146.618238
 20
37.140700
 30
0.0
 10
150.132834
 20
37.996226
 30
0.0
 10
154.054183
 20
39.205082
 30
0.0
  0
SPLINE
  5
151
100
AcDbEntity
  8
VISIBLE
 62
7
100
AcDbSpline
 70
8
 71
3
 72
8
 73
4
 74
0
 40
0
 40
0
 40
0
 40
0
 40
1
 40
1
 40
1
 40
1
 10
154.054183
 20
39.205082
 30
0.0
 10
156.668415
 20
40.010986
 30
0.0
 10
159.481888
 20
40.982845
 30
0.0
 10
162.286706
 20
42.035943
 30
0.0
  0
SPLINE
  5
152
100
AcDbEntity
  8
VISIBLE
 62
7
100
AcDbSpline
 70
8
 71
3
 72
8
 73
4
 74
0
 40
0
 40
0
 40
0
 40
0
 40
1
 40
1
 40
1
 40
1
 10
162.286706
 20
42.035943
 30
0.0
 10
166.493932
 20
43.615589
 30
0.0
 10
170.681685
 20
45.378020
 30
0.0
 10
174.131775
 20
47.033931
 30
0.0
  0
SPLINE
  5
153
100
AcDbEntity
  8
VISIBLE
 62
7
100
AcDbSpline
 70
8
 71
3
 72
8
 73
4
 74
0
 40
0
 40
0
 40
0
 40
0
 40
1
 40
1
 40
1
 40
1
 10
174.131775
 20
47.033931
 30
0.0
 10
175.281805
 20
47.585901
 30
0.0
 10
176.349872
 20
48.126035
 30
0.0
 10
177.313039
 20
48.645962
 30
0.0
  0
SPLINE
  5
154
100
AcDbEntity
  8
VISIBLE
 62
7
100
AcDbSpline
 70
8
 71
3
 72
8
 73
4
 74
0
 40
0
 40
0
 40
0
 40
0
 40
1
 40
1
 40
1
 40
1
 10
177.313039
 20
48.645962
 30
0.0
 10
178.276206
 20
49.165889
 30
0.0
 10
179.134473
 20
49.665609
 30
0.0
 10
179.864572
 20
50.139428
 30
0.0
  0
SPLINE
  5
155
100
AcDbEntity
  8
VISIBLE
 62
7
100
AcDbSpline
 70
8
 71
3
 72
8
 73
4
 74
0
 40
0
 40
0
 40
0
 40
0
 40
1
 40
1
 40
1
 40
1
 10
179.864572
 20
50.139428
 30
0.0
 10
181.324770
 20
51.087064
 30
0.0
 10
182.272298
 20
51.931096
 30
0.0
 10
182.883448
 20
52.779713
 30
0.0
  0
SPLINE
  5
156
100
AcDbEntity
  8
VISIBLE
 62
7
100
AcDbSpline
 70
8
 71
3
 72
8
 73
4
 74
0
 40
0
 40
0
 40
0
 40
0
 40
1
 40
1
 40
1
 40
1
 10
182.883448
 20
52.779713
 30
0.0
 10
183.189023
 20
53.204021
 30
0.0
 10
183.410504
 20
53.629475
 30
0.0
 10
183.549983
 20
54.036360
 30
0.0
  0
SPLINE
  5
157
100
AcDbEntity
  8
VISIBLE
 62
7
100
AcDbSpline
 70
8
 71
3
 72
8
 73
4
 74
0
 40
0
 40
0
 40
0
 40
0
 40
1
 40
1
 40
1
 40
1
 10
183.549983
 20
54.036360
 30
0.0
 10
183.689461
 20
54.443245
 30
0.0
 10
183.746938
 20
54.831559
 30
0.0
 10
183.765126
 20
55.146426
 30
0.0
  0
SPLINE
  5
158
100
AcDbEntity
  8
VISIBLE
 62
7
100
AcDbSpline
 70
8
 71
3
 72
8
 73
4
 74
0
 40
0
 40
0
 40
0
 40
0
 40
1
 40
1
 40
1
 40
1
 10
183.765126
 20
55.146426
 30
0.0
 10
183.774220
 20
55.303860
 30
0.0
 10
183.773491
 20
55.442932
 30
0.0
 10
183.771033
 20
55.561165
 30
0.0
  0
SPLINE
  5
159
100
AcDbEntity
  8
VISIBLE
 62
7
100
AcDbSpline
 70
8
 71
3
 72
8
 73
4
 74
0
 40
0
 40
0
 40
0
 40
0
 40
1
 40
1
 40
1
 40
1
 10
183.771033
 20
55.561165
 30
0.0
 10
183.768575
 20
55.679398
 30
0.0
 10
183.764388
 20
55.776793
 30
0.0
 10
183.758784
 20
55.888456
 30
0.0
  0
SPLINE
  5
15a
100
AcDbEntity
  8
VISIBLE
 62
7
100
AcDbSpline
 70
8
 71
3
 72
8
 73
4
 74
0
 40
0
 40
0
 40
0
 40
0
 40
1
 40
1
 40
1
 40
1
 10
183.758784
 20
55.888456
 30
0.0
 10
183.747575
 20
56.111783
 30
0.0
 10
183.726685
 20
56.355948
 30
0.0
 10
183.686653
 20
56.625682
 30
0.0
  0
SPLINE
  5
15b
100
AcDbEntity
  8
VISIBLE
 62
7
100
AcDbSpline
 70
8
 71
3
 72
8
 73
4
 74
0
 40
0
 40
0
 40
0
 40
0
 40
1
 40
1
 40
1
 40
1
 10
183.686653
 20
56.625682
 30
0.0
 10
183.646622
 20
56.895416
 30
0.0
 10
183.587450
 20
57.190719
 30
0.0
 10
183.501529
 20
57.553453
 30
0.0
  0
SPLINE
  5
15c
100
AcDbEntity
  8
VISIBLE
 62
7
100
AcDbSpline
 70
8
 71
3
 72
8
 73
4
 74
0
 40
0
 40
0
 40
0
 40
0
 40
1
 40
1
 40
1
 40
1
 10
183.501529
 20
57.553453
 30
0.0
 10
183.415608
 20
57.916187
 30
0.0
 10
183.302940
 20
58.346351
 30
0.0
 10
183.155269
 20
58.879323
 30
0.0
  0
SPLINE
  5
15d
100
AcDbEntity
  8
VISIBLE
 62
7
100
AcDbSpline
 70
8
 71
3
 72
8
 73
4
 74
0
 40
0
 40
0
 40
0
 40
0
 40
1
 40
1
 40
1
 40
1
 10
183.155269
 20
58.879323
 30
0.0
 10
182.859926
 20
59.945266
 30
0.0
 10
182.439838
 20
61.361927
 30
0.0
 10
181.977012
 20
62.781742
 30
0.0
  0
SPLINE
  5
15e
100
AcDbEntity
  8
VISIBLE
 62
7
100
AcDbSpline
 70
8
 71
3
 72
8
 73
4
 74
0
 40
0
 40
0
 40
0
 40
0
 40
1
 40
1
 40
1
 40
1
 10
181.977012
 20
62.781742
 30
0.0
 10
181.745598
 20
63.491649
 30
0.0
 10
181.503501
 20
64.202345
 30
0.0
 10
181.260543
 20
64.866362
 30
0.0
  0
SPLINE
  5
15f
100
AcDbEntity
  8
VISIBLE
 62
7
100
AcDbSpline
 70
8
 71
3
 72
8
 73
4
 74
0
 40
0
 40
0
 40
0
 40
0
 40
1
 40
1
 40
1
 40
1
 10
181.260543
 20
64.866362
 30
0.0
 10
181.017585
 20
65.530380
 30
0.0
 10
180.773768
 20
66.147720
 30
0.0
 10
180.540415
 20
66.704077
 30
0.0
  0
SPLINE
  5
160
100
AcDbEntity
  8
VISIBLE
 62
7
100
AcDbSpline
 70
8
 71
3
 72
8
 73
4
 74
0
 40
0
 40
0
 40
0
 40
0
 40
1
 40
1
 40
1
 40
1
 10
180.540415
 20
66.704077
 30
0.0
 10
180.073709
 20
67.816792
 30
0.0
 10
179.648862
 20
68.685578
 30
0.0
 10
179.346398
 20
69.307119
 30
0.0
  0
SPLINE
  5
161
100
AcDbEntity
  8
VISIBLE
 62
7
100
AcDbSpline
 70
8
 71
3
 72
8
 73
4
 74
0
 40
0
 40
0
 40
0
 40
0
 40
1
 40
1
 40
1
 40
1
 10
179.346398
 20
69.307119
 30
0.0
 10
179.270781
 20
69.462505
 30
0.0
 10
179.202814
 20
69.602437
 30
0.0
 10
179.145024
 20
69.724825
 30
0.0
  0
SPLINE
  5
162
100
AcDbEntity
  8
VISIBLE
 62
7
100
AcDbSpline
 70
8
 71
3
 72
8
 73
4
 74
0
 40
0
 40
0
 40
0
 40
0
 40
1
 40
1
 40
1
 40
1
 10
179.145024
 20
69.724825
 30
0.0
 10
179.058339
 20
69.908407
 30
0.0
 10
178.994552
 20
70.052514
 30
0.0
 10
178.964525
 20
70.114088
 30
0.0
  0
SPLINE
  5
163
100
AcDbEntity
  8
VISIBLE
 62
7
100
AcDbSpline
 70
8
 71
3
 72
8
 73
4
 74
0
 40
0
 40
0
 40
0
 40
0
 40
1
 40
1
 40
1
 40
1
 10
178.964525
 20
70.114088
 30
0.0
 10
178.934498
 20
70.175663
 30
0.0
 10
178.938231
 20
70.154705
 30
0.0
 10
178.931053
 20
70.123863
 30
0.0
  0
SPLINE
  5
164
100
AcDbEntity
  8
VISIBLE
 62
7
100
AcDbSpline
 70
8
 71
3
 72
8
 73
4
 74
0
 40
0
 40
0
 40
0
 40
0
 40
1
 40
1
 40
1
 40
1
 10
178.931053
 20
70.123863
 30
0.0
 10
178.923876
 20
70.093021
 30
0.0
 10
178.906118
 20
70.075651
 30
0.0
 10
178.916717
 20
70.148594
 30
0.0
  0
SPLINE
  5
165
100
AcDbEntity
  8
VISIBLE
 62
7
100
AcDbSpline
 70
8
 71
3
 72
8
 73
4
 74
0
 40
0
 40
0
 40
0
 40
0
 40
1
 40
1
 40
1
 40
1
 10
178.916717
 20
70.148594
 30
0.0
 10
178.934381
 20
70.270167
 30
0.0
 10
179.047924
 20
70.602369
 30
0.0
 10
179.271537
 20
71.144690
 30
0.0
  0
SPLINE
  5
166
100
AcDbEntity
  8
VISIBLE
 62
7
100
AcDbSpline
 70
8
 71
3
 72
8
 73
4
 74
0
 40
0
 40
0
 40
0
 40
0
 40
1
 40
1
 40
1
 40
1
 10
179.271537
 20
71.144690
 30
0.0
 10
179.450428
 20
71.578548
 30
0.0
 10
179.699764
 20
72.146882
 30
0.0
 10
180.015494
 20
72.885542
 30
0.0
  0
SPLINE
  5
167
100
AcDbEntity
  8
VISIBLE
 62
7
100
AcDbSpline
 70
8
 71
3
 72
8
 73
4
 74
0
 40
0
 40
0
 40
0
 40
0
 40
1
 40
1
 40
1
 40
1
 10
180.015494
 20
72.885542
 30
0.0
 10
180.331225
 20
73.624202
 30
0.0
 10
180.713351
 20
74.533188
 30
0.0
 10
181.130235
 20
75.528510
 30
0.0
  0
SPLINE
  5
168
100
AcDbEntity
  8
VISIBLE
 62
7
100
AcDbSpline
 70
8
 71
3
 72
8
 73
4
 74
0
 40
0
 40
0
 40
0
 40
0
 40
1
 40
1
 40
1
 40
1
 10
181.130235
 20
75.528510
 30
0.0
 10
181.964002
 20
77.519156
 30
0.0
 10
182.936798
 20
79.855146
 30
0.0
 10
183.790225
 20
81.858128
 30
0.0
  0
SPLINE
  5
169
100
AcDbEntity
  8
VISIBLE
 62
7
100
AcDbSpline
 70
8
 71
3
 72
8
 73
4
 74
0
 40
0
 40
0
 40
0
 40
0
 40
1
 40
1
 40
1
 40
1
 10
183.790225
 20
81.858128
 30
0.0
 10
184.216939
 20
82.859619
 30
0.0
 10
184.613810
 20
83.777858
 30
0.0
 10
184.947160
 20
84.525961
 30
0.0
  0
SPLINE
  5
16a
100
AcDbEntity
  8
VISIBLE
 62
7
100
AcDbSpline
 70
8
 71
3
 72
8
 73
4
 74
0
 40
0
 40
0
 40
0
 40
0
 40
1
 40
1
 40
1
 40
1
 10
184.947160
 20
84.525961
 30
0.0
 10
185.280510
 20
85.274065
 30
0.0
 10
185.557132
 20
85.870151
 30
0.0
 10
185.787866
 20
86.359828
 30
0.0
  0
SPLINE
  5
16b
100
AcDbEntity
  8
VISIBLE
 62
7
100
AcDbSpline
 70
8
 71
3
 72
8
 73
4
 74
0
 40
0
 40
0
 40
0
 40
0
 40
1
 40
1
 40
1
 40
1
 10
185.787866
 20
86.359828
 30
0.0
 10
186.018600
 20
86.849505
 30
0.0
 10
186.203446
 20
87.232773
 30
0.0
 10
186.361299
 20
87.569645
 30
0.0
  0
SPLINE
  5
16c
100
AcDbEntity
  8
VISIBLE
 62
7
100
AcDbSpline
 70
8
 71
3
 72
8
 73
4
 74
0
 40
0
 40
0
 40
0
 40
0
 40
1
 40
1
 40
1
 40
1
 10
186.361299
 20
87.569645
 30
0.0
 10
186.519152
 20
87.906516
 30
0.0
 10
186.650012
 20
88.196991
 30
0.0
 10
186.757346
 20
88.503380
 30
0.0
  0
SPLINE
  5
16d
100
AcDbEntity
  8
VISIBLE
 62
7
100
AcDbSpline
 70
8
 71
3
 72
8
 73
4
 74
0
 40
0
 40
0
 40
0
 40
0
 40
1
 40
1
 40
1
 40
1
 10
186.757346
 20
88.503380
 30
0.0
 10
186.864681
 20
88.809769
 30
0.0
 10
186.948490
 20
89.132073
 30
0.0
 10
186.995485
 20
89.460130
 30
0.0
  0
SPLINE
  5
16e
100
AcDbEntity
  8
VISIBLE
 62
7
100
AcDbSpline
 70
8
 71
3
 72
8
 73
4
 74
0
 40
0
 40
0
 40
0
 40
0
 40
1
 40
1
 40
1
 40
1
 10
186.995485
 20
89.460130
 30
0.0
 10
187.042480
 20
89.788187
 30
0.0
 10
187.052660
 20
90.121999
 30
0.0
 10
187.033731
 20
90.476257
 30
0.0
  0
SPLINE
  5
16f
100
AcDbEntity
  8
VISIBLE
 62
7
100
AcDbSpline
 70
8
 71
3
 72
8
 73
4
 74
0
 40
0
 40
0
 40
0
 40
0
 40
1
 40
1
 40
1
 40
1
 10
187.033731
 20
90.476257
 30
0.0
 10
186.995871
 20
91.184775
 30
0.0
 10
186.841570
 20
91.975084
 30
0.0
 10
186.560190
 20
92.963893
 30
0.0
  0
SPLINE
  5
170
100
AcDbEntity
  8
VISIBLE
 62
7
100
AcDbSpline
 70
8
 71
3
 72
8
 73
4
 74
0
 40
0
 40
0
 40
0
 40
0
 40
1
 40
1
 40
1
 40
1
 10
186.560190
 20
92.963893
 30
0.0
 10
186.278810
 20
93.952702
 30
0.0
 10
185.870350
 20
95.140012
 30
0.0
 10
185.297394
 20
96.641592
 30
0.0
  0
SPLINE
  5
171
100
AcDbEntity
  8
VISIBLE
 62
7
100
AcDbSpline
 70
8
 71
3
 72
8
 73
4
 74
0
 40
0
 40
0
 40
0
 40
0
 40
1
 40
1
 40
1
 40
1
 10
185.297394
 20
96.641592
 30
0.0
 10
184.724437
 20
98.143171
 30
0.0
 10
183.986983
 20
99.959022
 30
0.0
 10
183.046183
 20
102.194292
 30
0.0
  0
SPLINE
  5
172
100
AcDbEntity
  8
VISIBLE
 62
7
100
AcDbSpline
 70
8
 71
3
 72
8
 73
4
 74
0
 40
0
 40
0
 40
0
 40
0
 40
1
 40
1
 40
1
 40
1
 10
183.046183
 20
102.194292
 30
0.0
 10
182.340584
 20
103.870744
 30
0.0
 10
181.520603
 20
105.783120
 30
0.0
 10
180.577377
 20
107.956781
 30
0.0
  0
SPLINE
  5
173
100
AcDbEntity
  8
VISIBLE
 62
7
100
AcDbSpline
 70
8
 71
3
 72
8
 73
4
 74
0
 40
0
 40
0
 40
0
 40
0
 40
1
 40
1
 40
1
 40
1
 10
180.577377
 20
107.956781
 30
0.0
 10
179.513779
 20
110.407839
 30
0.0
 10
178.301270
 20
113.172942
 30
0.0
 10
176.959601
 20
116.210494
 30
0.0
  0
SPLINE
  5
174
100
AcDbEntity
  8
VISIBLE
 62
7
100
AcDbSpline
 70
8
 71
3
 72
8
 73
4
 74
0
 40
0
 40
0
 40
0
 40
0
 40
1
 40
1
 40
1
 40
1
 10
126.267258
 20
38.209389
 30
0.0
 10
120.995693
 20
38.497702
 30
0.0
 10
115.849312
 20
38.787641
 30
0.0
 10
109.625044
 20
39.990484
 30
0.0
  0
SPLINE
  5
175
100
AcDbEntity
  8
VISIBLE
 62
7
100
AcDbSpline
 70
8
 71
3
 72
8
 73
4
 74
0
 40
0
 40
0
 40
0
 40
0
 40
1
 40
1
 40
1
 40
1
 10
109.625044
 20
39.990484
 30
0.0
 10
106.512911
 20
40.591905
 30
0.0
 10
103.131305
 20
41.421553
 30
0.0
 10
99.329225
 20
42.600576
 30
0.0
  0
SPLINE
  5
176
100
AcDbEntity
  8
VISIBLE
 62
7
100
AcDbSpline
 70
8
 71
3
 72
8
 73
4
 74
0
 40
0
 40
0
 40
0
 40
0
 40
1
 40
1
 40
1
 40
1
 10
99.329225
 20
42.600576
 30
0.0
 10
96.794505
 20
43.386592
 30
0.0
 10
94.045299
 20
44.339452
 30
0.0
 10
91.299129
 20
45.374346
 30
0.0
  0
SPLINE
  5
177
100
AcDbEntity
  8
VISIBLE
 62
7
100
AcDbSpline
 70
8
 71
3
 72
8
 73
4
 74
0
 40
0
 40
0
 40
0
 40
0
 40
1
 40
1
 40
1
 40
1
 10
91.299129
 20
45.374346
 30
0.0
 10
87.179873
 20
46.926687
 30
0.0
 10
83.067447
 20
48.663605
 30
0.0
 10
79.745810
 20
50.265702
 30
0.0
  0
SPLINE
  5
178
100
AcDbEntity
  8
VISIBLE
 62
7
100
AcDbSpline
 70
8
 71
3
 72
8
 73
4
 74
0
 40
0
 40
0
 40
0
 40
0
 40
1
 40
1
 40
1
 40
1
 10
79.745810
 20
50.265702
 30
0.0
 10
78.638597
 20
50.799734
 30
0.0
 10
77.619250
 20
51.318786
 30
0.0
 10
76.719410
 20
51.808649
 30
0.0
  0
SPLINE
  5
179
100
AcDbEntity
  8
VISIBLE
 62
7
100
AcDbSpline
 70
8
 71
3
 72
8
 73
4
 74
0
 40
0
 40
0
 40
0
 40
0
 40
1
 40
1
 40
1
 40
1
 10
76.719410
 20
51.808649
 30
0.0
 10
75.819570
 20
52.298511
 30
0.0
 10
75.039238
 20
52.759184
 30
0.0
 10
74.423823
 20
53.169120
 30
0.0
  0
SPLINE
  5
17a
100
AcDbEntity
  8
VISIBLE
 62
7
100
AcDbSpline
 70
8
 71
3
 72
8
 73
4
 74
0
 40
0
 40
0
 40
0
 40
0
 40
1
 40
1
 40
1
 40
1
 10
74.423823
 20
53.169120
 30
0.0
 10
73.192992
 20
53.988991
 30
0.0
 10
72.621831
 20
54.605912
 30
0.0
 10
72.398570
 20
54.945675
 30
0.0
  0
SPLINE
  5
17b
100
AcDbEntity
  8
VISIBLE
 62
7
100
AcDbSpline
 70
8
 71
3
 72
8
 73
4
 74
0
 40
0
 40
0
 40
0
 40
0
 40
1
 40
1
 40
1
 40
1
 10
72.398570
 20
54.945675
 30
0.0
 10
72.286940
 20
55.115556
 30
0.0
 10
72.262286
 20
55.216149
 30
0.0
 10
72.252781
 20
55.284098
 30
0.0
  0
SPLINE
  5
17c
100
AcDbEntity
  8
VISIBLE
 62
7
100
AcDbSpline
 70
8
 71
3
 72
8
 73
4
 74
0
 40
0
 40
0
 40
0
 40
0
 40
1
 40
1
 40
1
 40
1
 10
72.252781
 20
55.284098
 30
0.0
 10
72.243277
 20
55.352048
 30
0.0
 10
72.248923
 20
55.387355
 30
0.0
 10
72.254212
 20
55.473399
 30
0.0
  0
SPLINE
  5
17d
100
AcDbEntity
  8
VISIBLE
 62
7
100
AcDbSpline
 70
8
 71
3
 72
8
 73
4
 74
0
 40
0
 40
0
 40
0
 40
0
 40
1
 40
1
 40
1
 40
1
 10
72.254212
 20
55.473399
 30
0.0
 10
72.256856
 20
55.516421
 30
0.0
 10
72.259412
 20
55.572127
 30
0.0
 10
72.262774
 20
55.644322
 30
0.0
  0
SPLINE
  5
17e
100
AcDbEntity
  8
VISIBLE
 62
7
100
AcDbSpline
 70
8
 71
3
 72
8
 73
4
 74
0
 40
0
 40
0
 40
0
 40
0
 40
1
 40
1
 40
1
 40
1
 10
72.262774
 20
55.644322
 30
0.0
 10
72.266135
 20
55.716518
 30
0.0
 10
72.270304
 20
55.805203
 30
0.0
 10
72.275696
 20
55.872567
 30
0.0
  0
SPLINE
  5
17f
100
AcDbEntity
  8
VISIBLE
 62
7
100
AcDbSpline
 70
8
 71
3
 72
8
 73
4
 74
0
 40
0
 40
0
 40
0
 40
0
 40
1
 40
1
 40
1
 40
1
 10
72.275696
 20
55.872567
 30
0.0
 10
72.286480
 20
56.007297
 30
0.0
 10
72.300345
 20
56.108652
 30
0.0
 10
72.329021
 20
56.261813
 30
0.0
  0
SPLINE
  5
180
100
AcDbEntity
  8
VISIBLE
 62
7
100
AcDbSpline
 70
8
 71
3
 72
8
 73
4
 74
0
 40
0
 40
0
 40
0
 40
0
 40
1
 40
1
 40
1
 40
1
 10
72.329021
 20
56.261813
 30
0.0
 10
72.357697
 20
56.414973
 30
0.0
 10
72.401184
 20
56.619940
 30
0.0
 10
72.475664
 20
56.921347
 30
0.0
  0
SPLINE
  5
181
100
AcDbEntity
  8
VISIBLE
 62
7
100
AcDbSpline
 70
8
 71
3
 72
8
 73
4
 74
0
 40
0
 40
0
 40
0
 40
0
 40
1
 40
1
 40
1
 40
1
 10
72.475664
 20
56.921347
 30
0.0
 10
72.550144
 20
57.222754
 30
0.0
 10
72.655617
 20
57.620601
 30
0.0
 10
72.797355
 20
58.126638
 30
0.0
  0
SPLINE
  5
182
100
AcDbEntity
  8
VISIBLE
 62
7
100
AcDbSpline
 70
8
 71
3
 72
8
 73
4
 74
0
 40
0
 40
0
 40
0
 40
0
 40
1
 40
1
 40
1
 40
1
 10
72.797355
 20
58.126638
 30
0.0
 10
73.080831
 20
59.138713
 30
0.0
 10
73.491867
 20
60.517451
 30
0.0
 10
73.938323
 20
61.875870
 30
0.0
  0
SPLINE
  5
183
100
AcDbEntity
  8
VISIBLE
 62
7
100
AcDbSpline
 70
8
 71
3
 72
8
 73
4
 74
0
 40
0
 40
0
 40
0
 40
0
 40
1
 40
1
 40
1
 40
1
 10
73.938323
 20
61.875870
 30
0.0
 10
74.161551
 20
62.555079
 30
0.0
 10
74.393634
 20
63.229209
 30
0.0
 10
74.621532
 20
63.844617
 30
0.0
  0
SPLINE
  5
184
100
AcDbEntity
  8
VISIBLE
 62
7
100
AcDbSpline
 70
8
 71
3
 72
8
 73
4
 74
0
 40
0
 40
0
 40
0
 40
0
 40
1
 40
1
 40
1
 40
1
 10
74.621532
 20
63.844617
 30
0.0
 10
74.849430
 20
64.460024
 30
0.0
 10
75.073142
 20
65.016708
 30
0.0
 10
75.287468
 20
65.519738
 30
0.0
  0
SPLINE
  5
185
100
AcDbEntity
  8
VISIBLE
 62
7
100
AcDbSpline
 70
8
 71
3
 72
8
 73
4
 74
0
 40
0
 40
0
 40
0
 40
0
 40
1
 40
1
 40
1
 40
1
 10
75.287468
 20
65.519738
 30
0.0
 10
75.716122
 20
66.525798
 30
0.0
 10
76.107229
 20
67.317239
 30
0.0
 10
76.415332
 20
67.954872
 30
0.0
  0
SPLINE
  5
186
100
AcDbEntity
  8
VISIBLE
 62
7
100
AcDbSpline
 70
8
 71
3
 72
8
 73
4
 74
0
 40
0
 40
0
 40
0
 40
0
 40
1
 40
1
 40
1
 40
1
 10
76.415332
 20
67.954872
 30
0.0
 10
76.492357
 20
68.114281
 30
0.0
 10
76.564195
 20
68.264076
 30
0.0
 10
76.631740
 20
68.405413
 30
0.0
  0
SPLINE
  5
187
100
AcDbEntity
  8
VISIBLE
 62
7
100
AcDbSpline
 70
8
 71
3
 72
8
 73
4
 74
0
 40
0
 40
0
 40
0
 40
0
 40
1
 40
1
 40
1
 40
1
 10
76.631740
 20
68.405413
 30
0.0
 10
76.733059
 20
68.617418
 30
0.0
 10
76.824719
 20
68.810392
 30
0.0
 10
76.913482
 20
69.076625
 30
0.0
  0
SPLINE
  5
188
100
AcDbEntity
  8
VISIBLE
 62
7
100
AcDbSpline
 70
8
 71
3
 72
8
 73
4
 74
0
 40
0
 40
0
 40
0
 40
0
 40
1
 40
1
 40
1
 40
1
 10
76.913482
 20
69.076625
 30
0.0
 10
77.002244
 20
69.342857
 30
0.0
 10
77.088108
 20
69.682347
 30
0.0
 10
77.102759
 20
70.053687
 30
0.0
  0
SPLINE
  5
189
100
AcDbEntity
  8
VISIBLE
 62
7
100
AcDbSpline
 70
8
 71
3
 72
8
 73
4
 74
0
 40
0
 40
0
 40
0
 40
0
 40
1
 40
1
 40
1
 40
1
 10
77.102759
 20
70.053687
 30
0.0
 10
77.117410
 20
70.425026
 30
0.0
 10
77.063531
 20
70.794737
 30
0.0
 10
76.982102
 20
71.113717
 30
0.0
  0
SPLINE
  5
18a
100
AcDbEntity
  8
VISIBLE
 62
7
100
AcDbSpline
 70
8
 71
3
 72
8
 73
4
 74
0
 40
0
 40
0
 40
0
 40
0
 40
1
 40
1
 40
1
 40
1
 10
76.982102
 20
71.113717
 30
0.0
 10
76.846387
 20
71.645352
 30
0.0
 10
76.662575
 20
72.085210
 30
0.0
 10
76.411952
 20
72.670667
 30
0.0
  0
SPLINE
  5
18b
100
AcDbEntity
  8
VISIBLE
 62
7
100
AcDbSpline
 70
8
 71
3
 72
8
 73
4
 74
0
 40
0
 40
0
 40
0
 40
0
 40
1
 40
1
 40
1
 40
1
 10
76.411952
 20
72.670667
 30
0.0
 10
76.211454
 20
73.139034
 30
0.0
 10
75.968197
 20
73.700584
 30
0.0
 10
75.657251
 20
74.432278
 30
0.0
  0
SPLINE
  5
18c
100
AcDbEntity
  8
VISIBLE
 62
7
100
AcDbSpline
 70
8
 71
3
 72
8
 73
4
 74
0
 40
0
 40
0
 40
0
 40
0
 40
1
 40
1
 40
1
 40
1
 10
75.657251
 20
74.432278
 30
0.0
 10
75.346306
 20
75.163972
 30
0.0
 10
74.967671
 20
76.065808
 30
0.0
 10
74.552811
 20
77.057019
 30
0.0
  0
SPLINE
  5
18d
100
AcDbEntity
  8
VISIBLE
 62
7
100
AcDbSpline
 70
8
 71
3
 72
8
 73
4
 74
0
 40
0
 40
0
 40
0
 40
0
 40
1
 40
1
 40
1
 40
1
 10
74.552811
 20
77.057019
 30
0.0
 10
73.723091
 20
79.039439
 30
0.0
 10
72.748472
 20
81.379354
 30
0.0
 10
71.884142
 20
83.404518
 30
0.0
  0
SPLINE
  5
18e
100
AcDbEntity
  8
VISIBLE
 62
7
100
AcDbSpline
 70
8
 71
3
 72
8
 73
4
 74
0
 40
0
 40
0
 40
0
 40
0
 40
1
 40
1
 40
1
 40
1
 10
71.884142
 20
83.404518
 30
0.0
 10
71.451978
 20
84.417100
 30
0.0
 10
71.047386
 20
85.350994
 30
0.0
 10
70.700548
 20
86.125345
 30
0.0
  0
SPLINE
  5
18f
100
AcDbEntity
  8
VISIBLE
 62
7
100
AcDbSpline
 70
8
 71
3
 72
8
 73
4
 74
0
 40
0
 40
0
 40
0
 40
0
 40
1
 40
1
 40
1
 40
1
 10
70.700548
 20
86.125345
 30
0.0
 10
70.353711
 20
86.899696
 30
0.0
 10
70.063421
 20
87.521156
 30
0.0
 10
69.824648
 20
88.025518
 30
0.0
  0
SPLINE
  5
190
100
AcDbEntity
  8
VISIBLE
 62
7
100
AcDbSpline
 70
8
 71
3
 72
8
 73
4
 74
0
 40
0
 40
0
 40
0
 40
0
 40
1
 40
1
 40
1
 40
1
 10
69.824648
 20
88.025518
 30
0.0
 10
69.585874
 20
88.529881
 30
0.0
 10
69.398618
 20
88.917146
 30
0.0
 10
69.266746
 20
89.209146
 30
0.0
  0
SPLINE
  5
191
100
AcDbEntity
  8
VISIBLE
 62
7
100
AcDbSpline
 70
8
 71
3
 72
8
 73
4
 74
0
 40
0
 40
0
 40
0
 40
0
 40
1
 40
1
 40
1
 40
1
 10
69.266746
 20
89.209146
 30
0.0
 10
69.134873
 20
89.501146
 30
0.0
 10
69.058384
 20
89.697882
 30
0.0
 10
69.021039
 20
89.816877
 30
0.0
  0
SPLINE
  5
192
100
AcDbEntity
  8
VISIBLE
 62
7
100
AcDbSpline
 70
8
 71
3
 72
8
 73
4
 74
0
 40
0
 40
0
 40
0
 40
0
 40
1
 40
1
 40
1
 40
1
 10
69.021039
 20
89.816877
 30
0.0
 10
68.983694
 20
89.935872
 30
0.0
 10
68.985494
 20
89.977127
 30
0.0
 10
68.986118
 20
90.058824
 30
0.0
  0
SPLINE
  5
193
100
AcDbEntity
  8
VISIBLE
 62
7
100
AcDbSpline
 70
8
 71
3
 72
8
 73
4
 74
0
 40
0
 40
0
 40
0
 40
0
 40
1
 40
1
 40
1
 40
1
 10
68.986118
 20
90.058824
 30
0.0
 10
68.986742
 20
90.140520
 30
0.0
 10
68.986190
 20
90.262659
 30
0.0
 10
69.003266
 20
90.437542
 30
0.0
  0
SPLINE
  5
194
100
AcDbEntity
  8
VISIBLE
 62
7
100
AcDbSpline
 70
8
 71
3
 72
8
 73
4
 74
0
 40
0
 40
0
 40
0
 40
0
 40
1
 40
1
 40
1
 40
1
 10
69.003266
 20
90.437542
 30
0.0
 10
69.037417
 20
90.787308
 30
0.0
 10
69.142081
 20
91.348049
 30
0.0
 10
69.386211
 20
92.182389
 30
0.0
  0
SPLINE
  5
195
100
AcDbEntity
  8
VISIBLE
 62
7
100
AcDbSpline
 70
8
 71
3
 72
8
 73
4
 74
0
 40
0
 40
0
 40
0
 40
0
 40
1
 40
1
 40
1
 40
1
 10
69.386211
 20
92.182389
 30
0.0
 10
69.630341
 20
93.016729
 30
0.0
 10
70.013937
 20
94.124668
 30
0.0
 10
70.568905
 20
95.570649
 30
0.0
  0
SPLINE
  5
196
100
AcDbEntity
  8
VISIBLE
 62
7
100
AcDbSpline
 70
8
 71
3
 72
8
 73
4
 74
0
 40
0
 40
0
 40
0
 40
0
 40
1
 40
1
 40
1
 40
1
 10
70.568905
 20
95.570649
 30
0.0
 10
71.123873
 20
97.016629
 30
0.0
 10
71.850213
 20
98.800650
 30
0.0
 10
72.783215
 20
101.013972
 30
0.0
  0
SPLINE
  5
197
100
AcDbEntity
  8
VISIBLE
 62
7
100
AcDbSpline
 70
8
 71
3
 72
8
 73
4
 74
0
 40
0
 40
0
 40
0
 40
0
 40
1
 40
1
 40
1
 40
1
 10
72.783215
 20
101.013972
 30
0.0
 10
73.482967
 20
102.673963
 30
0.0
 10
74.298967
 20
104.575435
 30
0.0
 10
75.239085
 20
106.740710
 30
0.0
  0
SPLINE
  5
198
100
AcDbEntity
  8
VISIBLE
 62
7
100
AcDbSpline
 70
8
 71
3
 72
8
 73
4
 74
0
 40
0
 40
0
 40
0
 40
0
 40
1
 40
1
 40
1
 40
1
 10
75.239085
 20
106.740710
 30
0.0
 10
76.441635
 20
109.510417
 30
0.0
 10
77.836954
 20
112.687424
 30
0.0
 10
79.395760
 20
116.209746
 30
0.0
  0
LWPOLYLINE
  5
199
100
AcDbEntity
  8
VISIBLE
 62
7
100
AcDbPolyline
 90
2
 70
0
 10
139.341620
 20
196.238324
 30
0.0
 10
138.879831
 20
196.058636
 30
0.0
  0
SPLINE
  5
19a
100
AcDbEntity
  8
VISIBLE
 62
7
100
AcDbSpline
 70
8
 71
3
 72
8
 73
4
 74
0
 40
0
 40
0
 40
0
 40
0
 40
1
 40
1
 40
1
 40
1
 10
114.476853
 20
194.041268
 30
0.0
 10
114.647018
 20
194.416533
 30
0.0
 10
114.655321
 20
194.845273
 30
0.0
 10
114.499813
 20
195.226845
 30
0.0
  0
SPLINE
  5
19b
100
AcDbEntity
  8
VISIBLE
 62
7
100
AcDbSpline
 70
8
 71
3
 72
8
 73
4
 74
0
 40
0
 40
0
 40
0
 40
0
 40
1
 40
1
 40
1
 40
1
 10
114.499813
 20
195.226845
 30
0.0
 10
114.344305
 20
195.608417
 30
0.0
 10
114.038681
 20
195.909218
 30
0.0
 10
113.654684
 20
196.058636
 30
0.0
  0
SPLINE
  5
19c
100
AcDbEntity
  8
VISIBLE
 62
7
100
AcDbSpline
 70
8
 71
3
 72
8
 73
4
 74
0
 40
0
 40
0
 40
0
 40
0
 40
1
 40
1
 40
1
 40
1
 10
113.192895
 20
196.238324
 30
0.0
 10
112.450516
 20
196.527194
 30
0.0
 10
111.611820
 20
196.185387
 30
0.0
 10
111.282841
 20
195.459890
 30
0.0
  0
LWPOLYLINE
  5
19d
100
AcDbEntity
  8
VISIBLE
 62
7
100
AcDbPolyline
 90
2
 70
0
 10
113.654684
 20
196.058636
 30
0.0
 10
113.192895
 20
196.238324
 30
0.0
  0
SPLINE
  5
19e
100
AcDbEntity
  8
VISIBLE
 62
7
100
AcDbSpline
 70
8
 71
3
 72
8
 73
4
 74
0
 40
0
 40
0
 40
0
 40
0
 40
1
 40
1
 40
1
 40
1
 10
75.574265
 20
116.209074
 30
0.0
 10
75.878402
 20
116.897637
 30
0.0
 10
76.189204
 20
117.600261
 30
0.0
 10
76.506452
 20
118.316482
 30
0.0
  0
SPLINE
  5
19f
100
AcDbEntity
  8
VISIBLE
 62
7
100
AcDbSpline
 70
8
 71
3
 72
8
 73
4
 74
0
 40
0
 40
0
 40
0
 40
0
 40
1
 40
1
 40
1
 40
1
 10
172.743201
 20
117.102947
 30
0.0
 10
170.742186
 20
121.619396
 30
0.0
 10
168.485030
 20
126.676855
 30
0.0
 10
166.031147
 20
132.149597
 30
0.0
  0
SPLINE
  5
1a0
100
AcDbEntity
  8
VISIBLE
 62
7
100
AcDbSpline
 70
8
 71
3
 72
8
 73
4
 74
0
 40
0
 40
0
 40
0
 40
0
 40
1
 40
1
 40
1
 40
1
 10
166.031147
 20
132.149597
 30
0.0
 10
158.093489
 20
149.852467
 30
0.0
 10
148.097386
 20
171.900653
 30
0.0
 10
138.057664
 20
194.041266
 30
0.0
  0
LWPOLYLINE
  5
1a1
100
AcDbEntity
  8
VISIBLE
 62
7
100
AcDbPolyline
 90
2
 70
0
 10
173.138336
 20
116.210603
 30
0.0
 10
172.743201
 20
117.102947
 30
0.0
  0
SPLINE
  5
1a2
100
AcDbEntity
  8
VISIBLE
 62
7
100
AcDbSpline
 70
8
 71
3
 72
8
 73
4
 74
0
 40
0
 40
0
 40
0
 40
0
 40
1
 40
1
 40
1
 40
1
 10
176.959601
 20
116.210494
 30
0.0
 10
176.655465
 20
116.899062
 30
0.0
 10
176.344691
 20
117.601631
 30
0.0
 10
176.027510
 20
118.317716
 30
0.0
  0
LWPOLYLINE
  5
1a3
100
AcDbEntity
  8
VISIBLE
 62
7
100
AcDbPolyline
 90
2
 70
0
 10
79.395760
 20
116.209746
 30
0.0
 10
79.790852
 20
117.102003
 30
0.0
  0
LWPOLYLINE
  5
1a4
100
AcDbEntity
  8
VISIBLE
 62
7
100
AcDbPolyline
 90
2
 70
0
 10
73.594274
 20
70.156504
 30
0.0
 10
73.617266
 20
70.152217
 30
0.0
  0
LWPOLYLINE
  5
1a5
100
AcDbEntity
  8
VISIBLE
 62
7
100
AcDbPolyline
 90
2
 70
0
 10
178.917252
 20
70.152230
 30
0.0
 10
178.940242
 20
70.156504
 30
0.0
  0
ENDSEC
  0
SECTION
  2
OBJECTS
  0
DICTIONARY
  5
C
330
0
100
AcDbDictionary
  3
ACAD_GROUP
350
D
  3
ACAD_MLINESTYLE
350
17
  0
DICTIONARY
  5
D
330
C
100
AcDbDictionary
  0
DICTIONARY
  5
1A
330
C
100
AcDbDictionary
  0
DICTIONARY
  5
17
330
C
100
AcDbDictionary
  3
STANDARD
350
18
  0
DICTIONARY
  5
19
330
C
100
AcDbDictionary
  0
ENDSEC
  0
EOF
