  0
SECTION
  2
HEADER
  9
$ACADVER
  1
AC1014
  9
$ACADMAINTVER
 70
     9
  9
$DWGCODEPAGE
  3
ANSI_1252
  9
$INSBASE
 10
0.0
 20
0.0
 30
0.0
  9
$EXTMIN
 10
1.000000000000000E+20
 20
1.000000000000000E+20
 30
1.000000000000000E+20
  9
$EXTMAX
 10
-1.000000000000000E+20
 20
-1.000000000000000E+20
 30
-1.000000000000000E+20
  9
$LIMMIN
 10
0.0
 20
0.0
  9
$LIMMAX
 10
12.0
 20
9.0
  9
$ORTHOMODE
 70
     0
  9
$REGENMODE
 70
     1
  9
$FILLMODE
 70
     1
  9
$QTEXTMODE
 70
     0
  9
$MIRRTEXT
 70
     1
  9
$DRAGMODE
 70
     2
  9
$LTSCALE
 40
1.0
  9
$OSMODE
 70
    37
  9
$ATTMODE
 70
     1
  9
$TEXTSIZE
 40
0.2
  9
$TRACEWID
 40
0.05
  9
$TEXTSTYLE
  7
STANDARD
  9
$CLAYER
  8
0
  9
$CELTYPE
  6
BYLAYER
  9
$CECOLOR
 62
   256
  9
$CELTSCALE
 40
1.0
  9
$DELOBJ
 70
     1
  9
$DISPSILH
 70
     0
  9
$DIMSCALE
 40
1.0
  9
$DIMASZ
 40
0.06
  9
$DIMEXO
 40
0.0625
  9
$DIMDLI
 40
0.38
  9
$DIMRND
 40
0.0
  9
$DIMDLE
 40
0.0
  9
$DIMEXE
 40
0.18
  9
$DIMTP
 40
0.0
  9
$DIMTM
 40
0.0
  9
$DIMTXT
 40
0.0482483533954122
  9
$DIMCEN
 40
0.09
  9
$DIMTSZ
 40
0.0
  9
$DIMTOL
 70
     0
  9
$DIMLIM
 70
     0
  9
$DIMTIH
 70
     1
  9
$DIMTOH
 70
     1
  9
$DIMSE1
 70
     0
  9
$DIMSE2
 70
     0
  9
$DIMTAD
 70
     0
  9
$DIMZIN
 70
     0
  9
$DIMBLK
  1

  9
$DIMASO
 70
     1
  9
$DIMSHO
 70
     1
  9
$DIMPOST
  1

  9
$DIMAPOST
  1

  9
$DIMALT
 70
     0
  9
$DIMALTD
 70
     2
  9
$DIMALTF
 40
25.4
  9
$DIMLFAC
 40
1.0
  9
$DIMTOFL
 70
     0
  9
$DIMTVP
 40
0.0
  9
$DIMTIX
 70
     0
  9
$DIMSOXD
 70
     0
  9
$DIMSAH
 70
     0
  9
$DIMBLK1
  1

  9
$DIMBLK2
  1

  9
$DIMSTYLE
  2
STANDARD
  9
$DIMCLRD
 70
     0
  9
$DIMCLRE
 70
     0
  9
$DIMCLRT
 70
     0
  9
$DIMTFAC
 40
1.0
  9
$DIMGAP
 40
0.09
  9
$DIMJUST
 70
     0
  9
$DIMSD1
 70
     0
  9
$DIMSD2
 70
     0
  9
$DIMTOLJ
 70
     1
  9
$DIMTZIN
 70
     0
  9
$DIMALTZ
 70
     0
  9
$DIMALTTZ
 70
     0
  9
$DIMFIT
 70
     3
  9
$DIMUPT
 70
     0
  9
$DIMUNIT
 70
     2
  9
$DIMDEC
 70
     4
  9
$DIMTDEC
 70
     4
  9
$DIMALTU
 70
     2
  9
$DIMALTTD
 70
     2
  9
$DIMTXSTY
  7
STANDARD
  9
$DIMAUNIT
 70
     0
  9
$LUNITS
 70
     2
  9
$LUPREC
 70
     4
  9
$SKETCHINC
 40
0.1
  9
$FILLETRAD
 40
0.5
  9
$AUNITS
 70
     0
  9
$AUPREC
 70
     0
  9
$MENU
  1
.
  9
$ELEVATION
 40
0.0
  9
$PELEVATION
 40
0.0
  9
$THICKNESS
 40
0.0
  9
$LIMCHECK
 70
     0
  9
$CHAMFERA
 40
0.0
  9
$CHAMFERB
 40
0.0
  9
$CHAMFERC
 40
0.0
  9
$CHAMFERD
 40
0.0
  9
$SKPOLY
 70
     0
  9
$TDCREATE
 40
2458956.879996759
  9
$TDUPDATE
 40
2458956.879997847
  9
$TDINDWG
 40
0.0000000116
  9
$TDUSRTIMER
 40
0.0000000116
  9
$USRTIMER
 70
     1
  9
$ANGBASE
 50
0.0
  9
$ANGDIR
 70
     0
  9
$PDMODE
 70
     0
  9
$PDSIZE
 40
0.0
  9
$PLINEWID
 40
0.0
  9
$COORDS
 70
     1
  9
$SPLFRAME
 70
     0
  9
$SPLINETYPE
 70
     6
  9
$SPLINESEGS
 70
     8
  9
$ATTDIA
 70
     0
  9
$ATTREQ
 70
     1
  9
$HANDLING
 70
     1
  9
$HANDSEED
  5
BD
  9
$SURFTAB1
 70
     6
  9
$SURFTAB2
 70
     6
  9
$SURFTYPE
 70
     6
  9
$SURFU
 70
     6
  9
$SURFV
 70
     6
  9
$UCSNAME
  2

  9
$UCSORG
 10
0.0
 20
0.0
 30
0.0
  9
$UCSXDIR
 10
1.0
 20
0.0
 30
0.0
  9
$UCSYDIR
 10
0.0
 20
1.0
 30
0.0
  9
$PUCSNAME
  2

  9
$PUCSORG
 10
0.0
 20
0.0
 30
0.0
  9
$PUCSXDIR
 10
1.0
 20
0.0
 30
0.0
  9
$PUCSYDIR
 10
0.0
 20
1.0
 30
0.0
  9
$USERI1
 70
     0
  9
$USERI2
 70
     0
  9
$USERI3
 70
     0
  9
$USERI4
 70
     0
  9
$USERI5
 70
     0
  9
$USERR1
 40
0.0
  9
$USERR2
 40
0.0
  9
$USERR3
 40
0.0
  9
$USERR4
 40
0.0
  9
$USERR5
 40
0.0
  9
$WORLDVIEW
 70
     1
  9
$SHADEDGE
 70
     3
  9
$SHADEDIF
 70
    70
  9
$TILEMODE
 70
     1
  9
$MAXACTVP
 70
    64
  9
$PINSBASE
 10
0.0
 20
0.0
 30
0.0
  9
$PLIMCHECK
 70
     0
  9
$PEXTMIN
 10
1.000000000000000E+20
 20
1.000000000000000E+20
 30
1.000000000000000E+20
  9
$PEXTMAX
 10
-1.000000000000000E+20
 20
-1.000000000000000E+20
 30
-1.000000000000000E+20
  9
$PLIMMIN
 10
0.0
 20
0.0
  9
$PLIMMAX
 10
12.0
 20
9.0
  9
$UNITMODE
 70
     0
  9
$VISRETAIN
 70
     1
  9
$PLINEGEN
 70
     0
  9
$PSLTSCALE
 70
     1
  9
$TREEDEPTH
 70
  3020
  9
$PICKSTYLE
 70
     1
  9
$CMLSTYLE
  2
STANDARD
  9
$CMLJUST
 70
     0
  9
$CMLSCALE
 40
1.0
  9
$PROXYGRAPHICS
 70
     1
  9
$MEASUREMENT
 70
     0
  0
ENDSEC
  0
SECTION
  2
CLASSES
  0
CLASS
  1
ACDBDICTIONARYWDFLT
  2
AcDbDictionaryWithDefault
  3
ObjectDBX Classes
 90
        0
280
     0
281
     0
  0
CLASS
  1
VISUALSTYLE
  2
AcDbVisualStyle
  3
ObjectDBX Classes
 90
     4095
280
     0
281
     0
  0
CLASS
  1
MATERIAL
  2
AcDbMaterial
  3
ObjectDBX Classes
 90
     1153
280
     0
281
     0
  0
CLASS
  1
SCALE
  2
AcDbScale
  3
ObjectDBX Classes
 90
     1153
280
     0
281
     0
  0
CLASS
  1
TABLESTYLE
  2
AcDbTableStyle
  3
ObjectDBX Classes
 90
     4095
280
     0
281
     0
  0
CLASS
  1
MLEADERSTYLE
  2
AcDbMLeaderStyle
  3
ACDB_MLEADERSTYLE_CLASS
 90
     4095
280
     0
281
     0
  0
CLASS
  1
SUN
  2
AcDbSun
  3
SCENEOE
 90
     1153
280
     0
281
     0
  0
CLASS
  1
DICTIONARYVAR
  2
AcDbDictionaryVar
  3
ObjectDBX Classes
 90
        0
280
     0
281
     0
  0
CLASS
  1
XRECORD
  2
AcDbXrecord
  3
ObjectDBX Classes
 90
        0
280
     0
281
     0
  0
CLASS
  1
LWPOLYLINE
  2
AcDbPolyline
  3
ObjectDBX Classes
 90
        0
280
     0
281
     1
  0
CLASS
  1
HATCH
  2
AcDbHatch
  3
ObjectDBX Classes
 90
        0
280
     0
281
     1
  0
CLASS
  1
ACDBPLACEHOLDER
  2
AcDbPlaceHolder
  3
ObjectDBX Classes
 90
        0
280
     0
281
     0
  0
CLASS
  1
LAYOUT
  2
AcDbLayout
  3
ObjectDBX Classes
 90
        0
280
     0
281
     0
  0
ENDSEC
  0
SECTION
  2
TABLES
  0
TABLE
  2
VPORT
  5
8
102
{ACAD_XDICTIONARY
360
B2
102
}
330
0
100
AcDbSymbolTable
 70
     1
  0
VPORT
  5
29
330
8
100
AcDbSymbolTableRecord
100
AcDbViewportTableRecord
  2
*ACTIVE
 70
     0
 10
0.0
 20
0.0
 11
1.0
 21
1.0
 12
10.42990654205607
 22
4.5
 13
0.0
 23
0.0
 14
0.5
 24
0.5
 15
0.5
 25
0.5
 16
0.0
 26
0.0
 36
1.0
 17
0.0
 27
0.0
 37
0.0
 40
9.0
 41
1.972972972850329
 42
50.0
 43
0.0
 44
0.0
 50
0.0
 51
0.0
 71
     0
 72
   100
 73
     1
 74
     3
 75
     0
 76
     0
 77
     0
 78
     0
  0
ENDTAB
  0
TABLE
  2
LTYPE
  5
5
330
0
100
AcDbSymbolTable
 70
     1
  0
LTYPE
  5
14
330
5
100
AcDbSymbolTableRecord
100
AcDbLinetypeTableRecord
  2
BYBLOCK
 70
     0
  3

 72
    65
 73
     0
 40
0.0
  0
LTYPE
  5
15
330
5
100
AcDbSymbolTableRecord
100
AcDbLinetypeTableRecord
  2
BYLAYER
 70
     0
  3

 72
    65
 73
     0
 40
0.0
  0
LTYPE
  5
16
330
5
100
AcDbSymbolTableRecord
100
AcDbLinetypeTableRecord
  2
CONTINUOUS
 70
     0
  3
Solid line
 72
    65
 73
     0
 40
0.0
  0
ENDTAB
  0
TABLE
  2
LAYER
  5
2
330
0
100
AcDbSymbolTable
 70
     3
  0
LAYER
  5
10
330
2
100
AcDbSymbolTableRecord
100
AcDbLayerTableRecord
  2
0
 70
     0
 62
     7
  6
CONTINUOUS
  0
LAYER
  5
6E
330
2
100
AcDbSymbolTableRecord
100
AcDbLayerTableRecord
  2
VISIBLE
 70
     0
 62
     7
  6
CONTINUOUS
  0
LAYER
  5
74
330
2
100
AcDbSymbolTableRecord
100
AcDbLayerTableRecord
  2
TANGENT_EDGES
 70
     0
 62
     7
  6
CONTINUOUS
  0
ENDTAB
  0
TABLE
  2
STYLE
  5
3
330
0
100
AcDbSymbolTable
 70
     1
  0
STYLE
  5
11
330
3
100
AcDbSymbolTableRecord
100
AcDbTextStyleTableRecord
  2
STANDARD
 70
     0
 40
0.0
 41
1.0
 50
0.0
 71
     0
 42
0.2
  3
txt
  4

  0
ENDTAB
  0
TABLE
  2
VIEW
  5
6
330
0
100
AcDbSymbolTable
 70
     0
  0
ENDTAB
  0
TABLE
  2
UCS
  5
7
330
0
100
AcDbSymbolTable
 70
     0
  0
ENDTAB
  0
TABLE
  2
APPID
  5
9
330
0
100
AcDbSymbolTable
 70
     2
  0
APPID
  5
12
330
9
100
AcDbSymbolTableRecord
100
AcDbRegAppTableRecord
  2
ACAD
 70
     0
  0
APPID
  5
BC
330
9
100
AcDbSymbolTableRecord
100
AcDbRegAppTableRecord
  2
ACAD_MLEADERVER
 70
     0
  0
ENDTAB
  0
TABLE
  2
DIMSTYLE
  5
A
330
0
100
AcDbSymbolTable
 70
     1
  0
DIMSTYLE
105
27
330
A
100
AcDbSymbolTableRecord
100
AcDbDimStyleTableRecord
  2
STANDARD
 70
     0
  3

  4

  5

  6

  7

 40
1.0
 41
0.18
 42
0.0625
 43
0.38
 44
0.18
 45
0.0
 46
0.0
 47
0.0
 48
0.0
140
0.18
141
0.09
142
0.0
143
25.4
144
1.0
145
0.0
146
1.0
147
0.09
 71
     0
 72
     0
 73
     1
 74
     1
 75
     0
 76
     0
 77
     0
 78
     0
170
     0
171
     2
172
     0
173
     0
174
     0
175
     0
176
     0
177
     0
178
     0
270
     2
271
     4
272
     4
273
     2
274
     2
340
11
275
     0
280
     0
281
     0
282
     0
283
     1
284
     0
285
     0
286
     0
287
     3
288
     0
  0
ENDTAB
  0
TABLE
  2
BLOCK_RECORD
  5
1
330
0
100
AcDbSymbolTable
 70
     0
  0
BLOCK_RECORD
  5
1F
330
1
100
AcDbSymbolTableRecord
100
AcDbBlockTableRecord
  2
*MODEL_SPACE
  0
BLOCK_RECORD
  5
1B
330
1
100
AcDbSymbolTableRecord
100
AcDbBlockTableRecord
  2
*PAPER_SPACE
  0
ENDTAB
  0
ENDSEC
  0
SECTION
  2
BLOCKS
  0
BLOCK
  5
20
330
1F
100
AcDbEntity
  8
0
100
AcDbBlockBegin
  2
*MODEL_SPACE
 70
     0
 10
0.0
 20
0.0
 30
0.0
  3
*MODEL_SPACE
  1

  0
ENDBLK
  5
21
330
1F
100
AcDbEntity
  8
0
100
AcDbBlockEnd
  0
BLOCK
  5
1C
330
1B
100
AcDbEntity
 67
     1
  8
0
100
AcDbBlockBegin
  2
*PAPER_SPACE
 70
     0
 10
0.0
 20
0.0
 30
0.0
  3
*PAPER_SPACE
  1

  0
ENDBLK
  5
1D
330
1B
100
AcDbEntity
 67
     1
  8
0
100
AcDbBlockEnd
  0
ENDSEC
  0
SECTION
  2
ENTITIES
  0
LINE
  5
6F
330
1F
100
AcDbEntity
  8
VISIBLE
100
AcDbLine
 10
3.647005621037706
 20
7.64413061792024
 30
0.0
 11
3.628783321340713
 21
7.636758869406454
 31
0.0
  0
LINE
  5
70
330
1F
100
AcDbEntity
  8
VISIBLE
100
AcDbLine
 10
2.150943202708178
 20
7.636758869407972
 30
0.0
 11
2.132720903013306
 21
7.6441306179209
 31
0.0
  0
LINE
  5
71
330
1F
100
AcDbEntity
  8
VISIBLE
100
AcDbLine
 10
5.455128956442287
 20
3.332084032698142
 30
0.0
 11
4.95895472241563
 21
4.558582139280892
 31
0.0
  0
ARC
  5
72
330
1F
100
AcDbEntity
  8
VISIBLE
100
AcDbCircle
 10
2.128796331991307
 20
7.582013795725823
 30
0.0
 40
0.0590551181102361
100
AcDbArc
 50
337.9744297656785
 51
67.97442976567663
  0
LINE
  5
73
330
1F
100
AcDbEntity
  8
VISIBLE
100
AcDbLine
 10
0.3245975676103612
 20
3.332084032698143
 30
0.0
 11
0.8207718016370191
 21
4.558582139280892
 31
0.0
  0
ARC
  5
75
330
1F
100
AcDbEntity
  8
TANGENT_EDGES
  6
CONTINUOUS
 62
     1
100
AcDbCircle
 10
0.8846280251665042
 20
4.532749394307602
 30
0.0
 40
0.0688835829229466
100
AcDbArc
 50
157.9746225942331
 51
337.9676908600506
  0
LINE
  5
76
330
1F
100
AcDbEntity
  8
VISIBLE
100
AcDbLine
 10
0.9484842486959879
 20
4.506916649334309
 30
0.0
 11
2.183541405673457
 21
7.55986692500895
 31
0.0
  0
LINE
  5
77
330
1F
100
AcDbEntity
  8
VISIBLE
100
AcDbLine
 10
0.8207718016370191
 20
4.558582139280892
 30
0.0
 11
2.055828958614487
 21
7.611532414955533
 31
0.0
  0
ARC
  5
78
330
1F
100
AcDbEntity
  8
VISIBLE
100
AcDbCircle
 10
3.669152491756009
 20
7.589385544238666
 30
0.0
 40
0.0590551181102364
100
AcDbArc
 50
22.02557023432336
 51
112.0255702343234
  0
SPLINE
  5
79
330
1F
100
AcDbEntity
  8
VISIBLE
100
AcDbSpline
210
0.0
220
0.0
230
1.0
 70
     8
 71
     3
 72
    42
 73
    38
 74
     0
 42
0.000000001
 43
0.000001
 40
-1.0
 40
-1.0
 40
-1.0
 40
-1.0
 40
-0.8395433820902132
 40
-0.8395433820902132
 40
-0.7860578427869509
 40
-0.6969152772815137
 40
-0.6969152772815137
 40
-0.6434297379782514
 40
-0.5721156855739018
 40
-0.5721156855739018
 40
-0.5364586593717269
 40
-0.5008016331695521
 40
-0.4829731200684646
 40
-0.4651446069673772
 40
-0.4294875807652023
 40
-0.4294875807652023
 40
-0.4027448111135712
 40
-0.3760020414619401
 40
-0.3581735283608526
 40
-0.3581735283608526
 40
-0.3225165021586778
 40
-0.3046879890575903
 40
-0.3046879890575903
 40
-0.2779452194059592
 40
-0.2601167063048718
 40
-0.2601167063048718
 40
-0.2422881932037843
 40
-0.2422881932037843
 40
-0.2155454235521532
 40
-0.1798883973499784
 40
-0.1442313711478035
 40
-0.1085743449456286
 40
-0.0907458318445412
 40
-0.0729173187434538
 40
-0.0550888056423664
 40
-0.0283460359907352
 40
-0.0030140518454826
 40
-0.0030140518454826
 40
-0.0030140518454826
 40
-0.0030140518454826
 10
2.889863262026324
 20
1.203436985711733
 30
0.0
 10
3.199294833566331
 20
1.209756606373528
 30
0.0
 10
3.505943292461446
 20
1.216127799166024
 30
0.0
 10
3.951558697438705
 20
1.270730542198444
 30
0.0
 10
4.259928005734165
 20
1.317839130130988
 30
0.0
 10
4.551320591082482
 20
1.392869525140192
 30
0.0
 10
4.773380193372383
 20
1.480337640641008
 30
0.0
 10
4.926999107978839
 20
1.56330321945918
 30
0.0
 10
5.009780048263194
 20
1.651879172194016
 30
0.0
 10
5.063444506795996
 20
1.72584035613665
 30
0.0
 10
5.091816448266749
 20
1.772628373029147
 30
0.0
 10
5.109138574743985
 20
1.825721972800402
 30
0.0
 10
5.113645021063132
 20
1.869782246899607
 30
0.0
 10
5.112998813465185
 20
1.917095792038189
 30
0.0
 10
5.108090065890429
 20
1.948012509493051
 30
0.0
 10
5.103181292601876
 20
1.968574013937789
 30
0.0
 10
5.099437413249355
 20
1.979551070241195
 30
0.0
 10
5.080681357366223
 20
2.021393007376346
 30
0.0
 10
5.059692450785549
 20
2.071008641598547
 30
0.0
 10
5.03126193864721
 20
2.140308009001259
 30
0.0
 10
4.997478860376201
 20
2.225713086051563
 30
0.0
 10
4.974714996044737
 20
2.291443214526312
 30
0.0
 10
4.960942232149046
 20
2.336755509595906
 30
0.0
 10
4.953410820050689
 20
2.370579655662447
 30
0.0
 10
4.955611153379429
 20
2.400399230064767
 30
0.0
 10
4.957783106167311
 20
2.416418172159765
 30
0.0
 10
4.958210350220114
 20
2.419335462977487
 30
0.0
 10
4.961071036116696
 20
2.438479271690379
 30
0.0
 10
4.968713986800882
 20
2.478037333524147
 30
0.0
 10
5.008915196283188
 20
2.575847319266394
 30
0.0
 10
5.123823729138063
 20
2.77899848958831
 30
0.0
 10
5.2327031938972
 20
2.971534096561371
 30
0.0
 10
5.294567431165159
 20
3.096125249470531
 30
0.0
 10
5.320917051044258
 20
3.164067440279978
 30
0.0
 10
5.334265356383566
 20
3.219394277476674
 30
0.0
 10
5.333724334873768
 20
3.253074117578909
 30
0.0
 10
5.328393319979539
 20
3.273869287798068
 30
0.0
 10
5.324595660008839
 20
3.287389972504521
 30
0.0
  0
LINE
  5
7A
330
1F
100
AcDbEntity
  8
VISIBLE
100
AcDbLine
 10
5.324596981147572
 20
3.287388163109584
 30
0.0
 11
4.83124227535666
 21
4.506916649334309
 31
0.0
  0
SPLINE
  5
7B
330
1F
100
AcDbEntity
  8
VISIBLE
100
AcDbSpline
210
0.0
220
0.0
230
1.0
 70
     8
 71
     3
 72
    48
 73
    44
 74
     0
 42
0.000000001
 43
0.000001
 40
-1.0
 40
-1.0
 40
-1.0
 40
-1.0
 40
-0.8395433820902132
 40
-0.8395433820902132
 40
-0.7860578427869509
 40
-0.7147437903826012
 40
-0.6790867641804263
 40
-0.6790867641804263
 40
-0.6434297379782514
 40
-0.5721156855739018
 40
-0.5721156855739018
 40
-0.5364586593717269
 40
-0.5008016331695521
 40
-0.4829731200684646
 40
-0.4651446069673772
 40
-0.4473160938662898
 40
-0.4294875807652023
 40
-0.4116590676641149
 40
-0.3938305545630275
 40
-0.3715449131866682
 40
-0.3581735283608526
 40
-0.3225165021586778
 40
-0.3046879890575903
 40
-0.3046879890575903
 40
-0.2868594759565029
 40
-0.2690309628554155
 40
-0.2601167063048718
 40
-0.251202449754328
 40
-0.251202449754328
 40
-0.2333739366532406
 40
-0.2155454235521532
 40
-0.1798883973499784
 40
-0.1798883973499784
 40
-0.1442313711478035
 40
-0.1085743449456286
 40
-0.0907458318445412
 40
-0.0907458318445412
 40
-0.0640030621929101
 40
-0.0372602925412789
 40
-0.0194317794401915
 40
-0.0016032663391041
 40
-0.0016032663391041
 40
0.0029327243650361
 40
0.0029327243650361
 40
0.0029327243650361
 40
0.0029327243650361
 10
2.889863262026324
 20
1.065641710121181
 30
0.0
 10
3.199298018760496
 20
1.071961330783047
 30
0.0
 10
3.511479778468042
 20
1.078185681135028
 30
0.0
 10
3.968273288329572
 20
1.13392408710037
 30
0.0
 10
4.244982934929865
 20
1.176127270174905
 30
0.0
 10
4.586274781394974
 20
1.25847909727743
 30
0.0
 10
4.76995442544065
 20
1.32967348549944
 30
0.0
 10
4.878874384358026
 20
1.381253879385363
 30
0.0
 10
5.021700269889811
 20
1.463986985630158
 30
0.0
 10
5.111241782654683
 20
1.5576632744629
 30
0.0
 10
5.177186148244262
 20
1.647765421410772
 30
0.0
 10
5.215120070721037
 20
1.708431817190547
 30
0.0
 10
5.243774456116578
 20
1.791169319428052
 30
0.0
 10
5.251522659474007
 20
1.86153844045582
 30
0.0
 10
5.251021172334908
 20
1.910355111675793
 30
0.0
 10
5.246718498466986
 20
1.953761126017662
 30
0.0
 10
5.240715795765743
 20
1.988289744585596
 30
0.0
 10
5.231595377846443
 20
2.019773064540325
 30
0.0
 10
5.218719644369248
 20
2.050633507770007
 30
0.0
 10
5.202413808524919
 20
2.08703806265388
 30
0.0
 10
5.168700905057214
 20
2.16742494442876
 30
0.0
 10
5.12698067511584
 20
2.272864105979167
 30
0.0
 10
5.106191399603369
 20
2.332879608410598
 30
0.0
 10
5.097305538738798
 20
2.361622506011733
 30
0.0
 10
5.092803757516895
 20
2.381024093883044
 30
0.0
 10
5.092821981874014
 20
2.384547533935477
 30
0.0
 10
5.092796564639325
 20
2.387161405717784
 30
0.0
 10
5.093508362911827
 20
2.391932275122379
 30
0.0
 10
5.095015394270041
 20
2.402164318552903
 30
0.0
 10
5.096078598186702
 20
2.411280209770433
 30
0.0
 10
5.101506797767081
 20
2.436187116967762
 30
0.0
 10
5.118502836245391
 20
2.479961385602293
 30
0.0
 10
5.166146558553073
 20
2.573956323979609
 30
0.0
 10
5.241729717207368
 20
2.707800685481017
 30
0.0
 10
5.351996093155876
 20
2.902447543399361
 30
0.0
 10
5.401989445984425
 20
3.002458102786947
 30
0.0
 10
5.436157339722868
 20
3.077978997455434
 30
0.0
 10
5.463924148533154
 20
3.154028946145973
 30
0.0
 10
5.473811330065621
 20
3.233124675962466
 30
0.0
 10
5.466975786520509
 20
3.289646266816507
 30
0.0
 10
5.460228000047478
 20
3.31398841516714
 30
0.0
 10
5.456569521658492
 20
3.326991887857396
 30
0.0
 10
5.455834627389036
 20
3.329599479950792
 30
0.0
 10
5.455104782133465
 20
3.332185959325654
 30
0.0
  0
SPLINE
  5
7C
330
1F
100
AcDbEntity
  8
VISIBLE
100
AcDbSpline
210
0.0
220
0.0
230
1.0
 70
     8
 71
     3
 72
    44
 73
    40
 74
     0
 42
0.000000001
 43
0.000001
 40
-1.0
 40
-1.0
 40
-1.0
 40
-1.0
 40
-0.8395433820902132
 40
-0.8395433820902132
 40
-0.7860578427869509
 40
-0.7147437903826012
 40
-0.6790867641804263
 40
-0.6434297379782514
 40
-0.5721156855739018
 40
-0.5721156855739018
 40
-0.5364586593717269
 40
-0.5008016331695521
 40
-0.4740588635179209
 40
-0.4473160938662898
 40
-0.4294875807652023
 40
-0.4116590676641149
 40
-0.3938305545630275
 40
-0.3715449131866682
 40
-0.3581735283608526
 40
-0.3225165021586778
 40
-0.3046879890575903
 40
-0.3046879890575903
 40
-0.2868594759565029
 40
-0.2690309628554155
 40
-0.2601167063048718
 40
-0.251202449754328
 40
-0.251202449754328
 40
-0.2333739366532406
 40
-0.2155454235521532
 40
-0.1798883973499784
 40
-0.1798883973499784
 40
-0.1264028580467161
 40
-0.0907458318445412
 40
-0.0640030621929101
 40
-0.0372602925412789
 40
-0.0194317794401915
 40
-0.0016032663391041
 40
-0.0016032663391041
 40
0.0029327243650363
 40
0.0029327243650363
 40
0.0029327243650363
 40
0.0029327243650363
 10
2.889863262026324
 20
1.065641710121182
 30
0.0
 10
2.580428505292152
 20
1.071961330783048
 30
0.0
 10
2.268246745584606
 20
1.078185681135029
 30
0.0
 10
1.811453235723077
 20
1.13392408710037
 30
0.0
 10
1.534743589122752
 20
1.176127270174905
 30
0.0
 10
1.193451742657727
 20
1.258479097277426
 30
0.0
 10
0.948480445500471
 20
1.353541986393176
 30
0.0
 10
0.7580262541627749
 20
1.463986985630163
 30
0.0
 10
0.668484741398049
 20
1.557663274462901
 30
0.0
 10
0.6025403758083461
 20
1.647765421410772
 30
0.0
 10
0.5646064533316322
 20
1.708431817190541
 30
0.0
 10
0.5329952572322374
 20
1.799662470508229
 30
0.0
 10
0.5268294942533562
 20
1.887574935959542
 30
0.0
 10
0.5319851318065494
 20
1.947948345256956
 30
0.0
 10
0.5390107282869061
 20
1.988289744585596
 30
0.0
 10
0.5481311462061966
 20
2.019773064540325
 30
0.0
 10
0.5610068796834113
 20
2.050633507770007
 30
0.0
 10
0.5773127155277371
 20
2.08703806265388
 30
0.0
 10
0.6110256189954142
 20
2.167424944428764
 30
0.0
 10
0.6527458489368296
 20
2.272864105979167
 30
0.0
 10
0.6735351244492587
 20
2.332879608410598
 30
0.0
 10
0.682420985313871
 20
2.361622506011733
 30
0.0
 10
0.6869227665357434
 20
2.38102409388305
 30
0.0
 10
0.6869045421786453
 20
2.384547533935477
 30
0.0
 10
0.6869299594133227
 20
2.387161405717784
 30
0.0
 10
0.6862181611408213
 20
2.391932275122373
 30
0.0
 10
0.6847111297826074
 20
2.402164318552913
 30
0.0
 10
0.6836479258659471
 20
2.411280209770427
 30
0.0
 10
0.6782197262855876
 20
2.436187116967757
 30
0.0
 10
0.6612236878072588
 20
2.479961385602314
 30
0.0
 10
0.6016690349226552
 20
2.597455058573908
 30
0.0
 10
0.4897916746698794
 20
2.789244358681762
 30
0.0
 10
0.3619855336254458
 20
3.02715066650396
 30
0.0
 10
0.3158023755195107
 20
3.154028946145988
 30
0.0
 10
0.305915193987039
 20
3.233124675962466
 30
0.0
 10
0.3127507375321392
 20
3.289646266816517
 30
0.0
 10
0.3194985240051702
 20
3.313988415167119
 30
0.0
 10
0.3231570023941557
 20
3.326991887857401
 30
0.0
 10
0.323891896663612
 20
3.329599479950801
 30
0.0
 10
0.324621741919183
 20
3.332185959325664
 30
0.0
  0
ARC
  5
7D
330
1F
100
AcDbEntity
  8
TANGENT_EDGES
  6
CONTINUOUS
 62
     1
100
AcDbCircle
 10
4.895098498886144
 20
4.532749394307602
 30
0.0
 40
0.0688835829240456
100
AcDbArc
 50
202.032289007708
 51
22.02537799189613
  0
ARC
  5
7E
330
1F
100
AcDbEntity
  8
VISIBLE
100
AcDbCircle
 10
2.110574032296435
 20
7.589385544238748
 30
0.0
 40
0.0590551181102364
100
AcDbArc
 50
67.97442976567663
 51
157.9744297656766
  0
ARC
  5
7F
330
1F
100
AcDbEntity
  8
VISIBLE
100
AcDbCircle
 10
0.8846280251665042
 20
4.532749394307602
 30
0.0
 40
0.0688835829229464
100
AcDbArc
 50
337.9676908025282
 51
337.9744297656771
  0
LINE
  5
80
330
1F
100
AcDbEntity
  8
VISIBLE
100
AcDbLine
 10
4.83124227535666
 20
4.506916649334309
 30
0.0
 11
3.596185118379192
 21
7.55986692500895
 31
0.0
  0
SPLINE
  5
81
330
1F
100
AcDbEntity
  8
VISIBLE
100
AcDbSpline
210
0.0
220
0.0
230
1.0
 70
     8
 71
     3
 72
    46
 73
    42
 74
     0
 42
0.000000001
 43
0.000001
 40
-1.0
 40
-1.0
 40
-1.0
 40
-1.0
 40
-0.8395433820902132
 40
-0.8395433820902132
 40
-0.7860578427869509
 40
-0.7147437903826012
 40
-0.6790867641804263
 40
-0.6790867641804263
 40
-0.6434297379782514
 40
-0.5721156855739018
 40
-0.5721156855739018
 40
-0.5364586593717269
 40
-0.5008016331695521
 40
-0.4829731200684646
 40
-0.4651446069673772
 40
-0.4473160938662898
 40
-0.4294875807652023
 40
-0.4116590676641149
 40
-0.3938305545630275
 40
-0.3715449131866682
 40
-0.3581735283608526
 40
-0.3225165021586778
 40
-0.3046879890575903
 40
-0.3046879890575903
 40
-0.2868594759565029
 40
-0.2690309628554155
 40
-0.2601167063048718
 40
-0.251202449754328
 40
-0.251202449754328
 40
-0.2333739366532406
 40
-0.2155454235521532
 40
-0.1798883973499784
 40
-0.1798883973499784
 40
-0.1442313711478035
 40
-0.1085743449456286
 40
-0.0907458318445412
 40
-0.0907458318445412
 40
-0.0640030621929101
 40
-0.0372602925412789
 40
-0.0194317794401915
 40
-0.0030140518597213
 40
-0.0030140518597213
 40
-0.0030140518597213
 40
-0.0030140518597213
 10
2.889863262026324
 20
1.203436985711733
 30
0.0
 10
2.580431690486318
 20
1.209756606373528
 30
0.0
 10
2.273783231591203
 20
1.216127799166024
 30
0.0
 10
1.828167826613943
 20
1.270730542198444
 30
0.0
 10
1.558313918749547
 20
1.311996403512668
 30
0.0
 10
1.228168623725242
 20
1.392325066280546
 30
0.0
 10
1.059931157694771
 20
1.458207657984768
 30
0.0
 10
0.9637788962826372
 20
1.504039722406912
 30
0.0
 10
0.8410235563457498
 20
1.5760737937446
 30
0.0
 10
0.7699464757894541
 20
1.651879172194016
 30
0.0
 10
0.7162820172566526
 20
1.72584035613665
 30
0.0
 10
0.6879100757858998
 20
1.772628373029147
 30
0.0
 10
0.6705879493086639
 20
1.825721972800402
 30
0.0
 10
0.6660815029895164
 20
1.869782246899607
 30
0.0
 10
0.6665774364270112
 20
1.905329721223696
 30
0.0
 10
0.669968589334164
 20
1.937654437070124
 30
0.0
 10
0.6745526477081949
 20
1.961727714266118
 30
0.0
 10
0.6784083442358702
 20
1.973959062948264
 30
0.0
 10
0.6876896506441099
 20
1.99641987407975
 30
0.0
 10
0.7049188889064508
 20
2.035014448044005
 30
0.0
 10
0.7399760869330523
 20
2.118825575060107
 30
0.0
 10
0.7822476636764466
 20
2.225713086051563
 30
0.0
 10
0.805011528007912
 20
2.291443214526312
 30
0.0
 10
0.8160297391244646
 20
2.327693050581987
 30
0.0
 10
0.8235022567531702
 20
2.35716776530027
 30
0.0
 10
0.8253193235679164
 20
2.38935592776824
 30
0.0
 10
0.8229936151517019
 20
2.4093720655751
 30
0.0
 10
0.8219938179576269
 20
2.415465538182681
 30
0.0
 10
0.821034992357538
 20
2.422370984779141
 30
0.0
 10
0.8190625479656162
 20
2.438286965845526
 30
0.0
 10
0.8072886736810956
 20
2.486707721510274
 30
0.0
 10
0.785191199606158
 20
2.540343624928926
 30
0.0
 10
0.7327246348843235
 20
2.64336861173495
 30
0.0
 10
0.6559027949145859
 20
2.77899848958831
 30
0.0
 10
0.5470233301554481
 20
2.971534096561371
 30
0.0
 10
0.5004775635350582
 20
3.065209678847178
 30
0.0
 10
0.4704963652475058
 20
3.131931110119097
 30
0.0
 10
0.4488627286074918
 20
3.194246411972067
 30
0.0
 10
0.4451718168451491
 20
3.238347991773012
 30
0.0
 10
0.4485249638496271
 20
3.26309240403733
 30
0.0
 10
0.4526644231758832
 20
3.278607963815034
 30
0.0
 10
0.4551302606642325
 20
3.287387712466102
 30
0.0
  0
LINE
  5
82
330
1F
100
AcDbEntity
  8
VISIBLE
100
AcDbLine
 10
0.4551295429050768
 20
3.287388163109585
 30
0.0
 11
0.9484842486959879
 21
4.506916649334309
 31
0.0
  0
ARC
  5
83
330
1F
100
AcDbEntity
  8
VISIBLE
100
AcDbCircle
 10
4.895098498886144
 20
4.532749394307602
 30
0.0
 40
0.0688835829229461
100
AcDbArc
 50
202.025570234323
 51
202.0322890644298
  0
ARC
  5
84
330
1F
100
AcDbEntity
  8
VISIBLE
100
AcDbCircle
 10
3.650930192057584
 20
7.582013795724302
 30
0.0
 40
0.0590551181102364
100
AcDbArc
 50
112.0255702343234
 51
202.0255702343227
  0
LINE
  5
85
330
1F
100
AcDbEntity
  8
VISIBLE
100
AcDbLine
 10
4.95895472241563
 20
4.558582139280892
 30
0.0
 11
3.723897565438161
 21
7.611532414955533
 31
0.0
  0
SPLINE
  5
86
330
1F
100
AcDbEntity
  8
TANGENT_EDGES
  6
CONTINUOUS
 62
     1
100
AcDbSpline
210
0.0
220
0.0
230
1.0
 70
     8
 71
     3
 72
    26
 73
    22
 74
     0
 42
0.000000001
 43
0.000001
 40
-0.0010215034618504
 40
-0.0010215034618504
 40
-0.0010215034618504
 40
-0.0010215034618504
 40
0.0000000376098557
 40
0.0000000376098557
 40
0.019193558727738
 40
0.019193558727738
 40
0.0327405094851012
 40
0.0327405094851012
 40
0.0412073537084532
 40
0.0412073537084532
 40
0.0464991313480482
 40
0.0464991313480482
 40
0.0517909089876432
 40
0.0517909089876432
 40
0.0602577532109952
 40
0.0602577532109952
 40
0.0738047039683584
 40
0.0738047039683584
 40
0.0929990896244743
 40
0.0929990896244743
 40
0.0940197661579468
 40
0.0940197661579468
 40
0.0940197661579468
 40
0.0940197661579468
 10
0.820771762739029
 20
4.558582043127254
 30
0.0
 10
0.8207362222842614
 20
4.558494185898355
 30
0.0
 10
0.8207096085343712
 20
4.558402849798032
 30
0.0
 10
0.8203581665781896
 20
4.556523370398967
 30
0.0
 10
0.8230953416155811
 20
4.553483573013503
 30
0.0
 10
0.8340057073054825
 20
4.546103771624217
 30
0.0
 10
0.8404357257034181
 20
4.542358507708283
 30
0.0
 10
0.8544411466702244
 20
4.535277797143264
 30
0.0
 10
0.8607074712796376
 20
4.532309449297327
 30
0.0
 10
0.8718798206038776
 20
4.527386199542027
 30
0.0
 10
0.8764258803902147
 20
4.525465284783279
 30
0.0
 10
0.8854612894152871
 20
4.521810043907076
 30
0.0
 10
0.8900641715280868
 20
4.520029789384981
 30
0.0
 10
0.901516575023696
 20
4.515800273191601
 30
0.0
 10
0.9080837518620619
 20
4.513576868181091
 30
0.0
 10
0.9230717213694599
 20
4.50892836973104
 30
0.0
 10
0.9302965975832924
 20
4.507149567557263
 30
0.0
 10
0.9432689477387781
 20
4.504867728233079
 30
0.0
 10
0.9473500218641473
 20
4.505149301603749
 30
0.0
 10
0.9484042402696751
 20
4.506744474672102
 30
0.0
 10
0.9484484983289285
 20
4.506828297007528
 30
0.0
 10
0.9484840785764705
 20
4.506916228839009
 30
0.0
  0
LINE
  5
87
330
1F
100
AcDbEntity
  8
TANGENT_EDGES
  6
CONTINUOUS
 62
     1
100
AcDbLine
 10
3.723897565438148
 20
7.611532414955531
 30
0.0
 11
3.596185118379203
 21
7.559866925008957
 31
0.0
  0
SPLINE
  5
88
330
1F
100
AcDbEntity
  8
TANGENT_EDGES
  6
CONTINUOUS
 62
     1
100
AcDbSpline
210
0.0
220
0.0
230
1.0
 70
     8
 71
     3
 72
    26
 73
    22
 74
     0
 42
0.000000001
 43
0.000001
 40
-0.0010205083521145
 40
-0.0010205083521145
 40
-0.0010205083521145
 40
-0.0010205083521145
 40
0.0000001713562516
 40
0.0000001713562516
 40
0.0191945516083703
 40
0.0191945516083703
 40
0.0327415035769529
 40
0.0327415035769529
 40
0.0412083485573169
 40
0.0412083485573169
 40
0.0465001266700445
 40
0.0465001266700445
 40
0.0517919047827721
 40
0.0517919047827721
 40
0.0602587497631362
 40
0.0602587497631362
 40
0.0738057017317187
 40
0.0738057017317187
 40
0.092999220033578
 40
0.092999220033578
 40
0.0940207616922035
 40
0.0940207616922035
 40
0.0940207616922035
 40
0.0940207616922035
 10
4.831242444967872
 20
4.506916230095349
 30
0.0
 10
4.831278025067412
 20
4.506828298571865
 30
0.0
 10
4.831322283588808
 20
4.506744474976247
 30
0.0
 10
4.832376501972846
 20
4.5051493019881
 30
0.0
 10
4.836457575711121
 20
4.504867728850494
 30
0.0
 10
4.849429925593152
 20
4.507149568053817
 30
0.0
 10
4.856654803597085
 20
4.508928370686162
 30
0.0
 10
4.871642775555401
 20
4.513576869784234
 30
0.0
 10
4.878209953103742
 20
4.515800274979753
 30
0.0
 10
4.889662357056942
 20
4.520029791252837
 30
0.0
 10
4.894265239114032
 20
4.521810045729092
 30
0.0
 10
4.903300647665827
 20
4.525465286391833
 30
0.0
 10
4.907846707179969
 20
4.527386201044139
 30
0.0
 10
4.919019055404809
 20
4.532309450384467
 30
0.0
 10
4.925285379369376
 20
4.535277798017059
 30
0.0
 10
4.939290799069672
 20
4.542358508219827
 30
0.0
 10
4.945720817420705
 20
4.546103772261493
 30
0.0
 10
4.956631181891538
 20
4.553483573178996
 30
0.0
 10
4.959368357396359
 20
4.556523370565754
 30
0.0
 10
4.959016915495082
 20
4.558402849895772
 30
0.0
 10
4.958990301622137
 20
4.558494186273317
 30
0.0
 10
4.958954761195386
 20
4.558582043419523
 30
0.0
  0
LINE
  5
89
330
1F
100
AcDbEntity
  8
TANGENT_EDGES
  6
CONTINUOUS
 62
     1
100
AcDbLine
 10
2.183541405673462
 20
7.559866925008952
 30
0.0
 11
2.055828958614484
 21
7.611532414955537
 31
0.0
  0
ENDSEC
  0
SECTION
  2
OBJECTS
  0
DICTIONARY
  5
C
330
0
100
AcDbDictionary
  3
ACAD_GROUP
350
D
  3
ACAD_LAYOUT
350
1A
  3
ACAD_MATERIAL
350
43
  3
ACAD_MLEADERSTYLE
350
6B
  3
ACAD_MLINESTYLE
350
17
  3
ACAD_PLOTSETTINGS
350
19
  3
ACAD_SCALELIST
350
47
  3
ACAD_VISUALSTYLE
350
2A
  3
ACDBHEADERROUNDTRIPXREC
350
8A
  3
ACDBVARIABLEDICTIONARY
350
AB
  0
DICTIONARY
  5
B2
330
8
100
AcDbDictionary
280
     1
  3
ACAD_XREC_ROUNDTRIP
360
B3
  0
DICTIONARY
  5
D
102
{ACAD_REACTORS
330
C
102
}
330
C
100
AcDbDictionary
  0
DICTIONARY
  5
1A
102
{ACAD_REACTORS
330
C
102
}
330
C
100
AcDbDictionary
  0
DICTIONARY
  5
43
102
{ACAD_REACTORS
330
C
102
}
330
C
100
AcDbDictionary
  3
BYBLOCK
350
45
  3
BYLAYER
350
44
  3
GLOBAL
350
46
  0
DICTIONARY
  5
6B
102
{ACAD_REACTORS
330
C
102
}
330
C
100
AcDbDictionary
  3
STANDARD
350
6C
  0
DICTIONARY
  5
17
102
{ACAD_REACTORS
330
C
102
}
330
C
100
AcDbDictionary
  3
STANDARD
350
18
  0
DICTIONARY
  5
19
102
{ACAD_REACTORS
330
C
102
}
330
C
100
AcDbDictionary
  0
DICTIONARY
  5
47
102
{ACAD_REACTORS
330
C
102
}
330
C
100
AcDbDictionary
  3
A0
350
48
  3
A1
350
49
  3
A2
350
4A
  3
A3
350
4B
  3
A4
350
4C
  3
A5
350
4D
  3
A6
350
4E
  3
A7
350
4F
  3
A8
350
50
  3
A9
350
51
  3
B0
350
52
  3
B1
350
53
  3
B2
350
54
  3
B3
350
55
  3
B4
350
56
  3
B5
350
57
  3
B6
350
58
  3
B7
350
59
  3
B8
350
5A
  3
B9
350
5B
  3
C0
350
5C
  3
C1
350
5D
  3
C2
350
5E
  3
C3
350
5F
  3
C4
350
60
  3
C5
350
61
  3
C6
350
62
  3
C7
350
63
  3
C8
350
64
  3
C9
350
65
  3
D0
350
66
  3
D1
350
67
  3
D2
350
68
  0
DICTIONARY
  5
2A
102
{ACAD_REACTORS
330
C
102
}
330
C
100
AcDbDictionary
  3
2DWIREFRAME
350
2F
  3
BASIC
350
32
  3
BRIGHTEN
350
36
  3
COLORCHANGE
350
3A
  3
CONCEPTUAL
350
34
  3
DIM
350
35
  3
EDGECOLOROFF
350
3D
  3
FACEPATTERN
350
39
  3
FLAT
350
2B
  3
FLATWITHEDGES
350
2C
  3
GOURAUD
350
2D
  3
GOURAUDWITHEDGES
350
2E
  3
HIDDEN
350
31
  3
JITTEROFF
350
3B
  3
LINEPATTERN
350
38
  3
OVERHANGOFF
350
3C
  3
REALISTIC
350
33
  3
SHADED
350
42
  3
SHADED_WITH_EDGES
350
41
  3
SHADES_OF_GRAY
350
3E
  3
SKETCHY
350
3F
  3
THICKEN
350
37
  3
WIREFRAME
350
30
  3
X-RAY
350
40
  0
DICTIONARY
  5
8A
102
{ACAD_REACTORS
330
C
102
}
330
C
100
AcDbDictionary
  3
CEPSNID
350
94
  3
CEPSNTYPE
350
93
  3
DIMSTYLEDATA
350
AA
  3
FINGERPRINTGUID
350
95
  3
HYPERLINKBASE
350
8D
  3
INSUNITS
350
92
  3
LAYOUTDICT
350
8F
  3
LWETCUNION
350
91
  3
PLOTSETDICT
350
90
  3
PSVPSCALE
350
97
  3
PUCSBASE
350
9A
  3
PUCSORGBACK
350
A0
  3
PUCSORGBOTTOM
350
9C
  3
PUCSORGFRONT
350
9F
  3
PUCSORGLEFT
350
9D
  3
PUCSORGRIGHT
350
9E
  3
PUCSORGTOP
350
9B
  3
PUCSORTHOREF
350
98
  3
PUCSORTHOVIEW
350
99
  3
STYLESHEET
350
8E
  3
TSTACKALIGN
350
8B
  3
TSTACKSIZE
350
8C
  3
UCSBASE
350
A3
  3
UCSORGBACK
350
A9
  3
UCSORGBOTTOM
350
A5
  3
UCSORGFRONT
350
A8
  3
UCSORGLEFT
350
A6
  3
UCSORGRIGHT
350
A7
  3
UCSORGTOP
350
A4
  3
UCSORTHOREF
350
A1
  3
UCSORTHOVIEW
350
A2
  3
VERSIONGUID
350
96
  0
DICTIONARY
  5
AB
102
{ACAD_REACTORS
330
C
102
}
330
C
100
AcDbDictionary
  3
CANNOSCALE
350
B4
  3
CMLEADERSTYLE
350
AD
  3
CTABLESTYLE
350
AC
  3
DIMASSOC
350
B0
  3
HIDETEXT
350
B1
  3
MSLTSCALE
350
B5
  0
XRECORD
  5
B3
102
{ACAD_REACTORS
330
B2
102
}
330
B2
100
AcDbXrecord
102
VTR_0.000_0.000_1.000_1.000_VISUALSTYLE
340
2F
102
VTR_0.000_0.000_1.000_1.000_GRIDDISPLAY
 70
     3
102
VTR_0.000_0.000_1.000_1.000_GRIDMAJOR
 70
     5
102
VTR_0.000_0.000_1.000_1.000_DEFAULTLIGHTING
280
     1
102
VTR_0.000_0.000_1.000_1.000_DEFAULTLIGHTINGTYPE
 70
     1
102
VTR_0.000_0.000_1.000_1.000_BRIGHTNESS
141
0.0
102
VTR_0.000_0.000_1.000_1.000_CONTRAST
142
0.0
  0
MATERIAL
  5
45
102
{ACAD_REACTORS
330
43
102
}
102
{ACAD_XDICTIONARY
360
B8
102
}
330
43
100
AcDbMaterial
  1
BYBLOCK
  0
MATERIAL
  5
44
102
{ACAD_REACTORS
330
43
102
}
102
{ACAD_XDICTIONARY
360
B6
102
}
330
43
100
AcDbMaterial
  1
BYLAYER
  0
MATERIAL
  5
46
102
{ACAD_REACTORS
330
43
102
}
102
{ACAD_XDICTIONARY
360
BA
102
}
330
43
100
AcDbMaterial
  1
GLOBAL
  0
ACAD_PROXY_OBJECT
  5
6C
102
{ACAD_REACTORS
330
6B
102
}
330
6B
100
AcDbProxyObject
 90
      499
 91
      505
 93
      610
310
40901902A4063FBFFFFFE056BD1B81E855B9FC0AD7A3703D0AD73F4214DD185B99185C9900AD7A3703D0AC73F90141901A02B5E8DC0F42B1CFC02B5E8DC0F42B1CFE5764000000000000300FC0
340
14
340
0
340
11
340
0
 94
        0
1001
ACAD_MLEADERVER
1070
     2
  0
MLINESTYLE
  5
18
102
{ACAD_REACTORS
330
17
102
}
330
17
100
AcDbMlineStyle
  2
Standard
 70
     0
  3

 62
   256
 51
90.0
 52
90.0
 71
     2
 49
0.5
 62
   256
  6
BYLAYER
 49
-0.5
 62
   256
  6
BYLAYER
  0
ACAD_PROXY_OBJECT
  5
48
102
{ACAD_REACTORS
330
47
102
}
330
47
100
AcDbProxyObject
 90
      499
 91
      503
 93
       41
310
903313A31580
  0
ACAD_PROXY_OBJECT
  5
49
102
{ACAD_REACTORS
330
47
102
}
330
47
100
AcDbProxyObject
 90
      499
 91
      503
 93
      105
310
903313A324000000000000004000
  0
ACAD_PROXY_OBJECT
  5
4A
102
{ACAD_REACTORS
330
47
102
}
330
47
100
AcDbProxyObject
 90
      499
 91
      503
 93
      105
310
903313A344000000000000104000
  0
ACAD_PROXY_OBJECT
  5
4B
102
{ACAD_REACTORS
330
47
102
}
330
47
100
AcDbProxyObject
 90
      499
 91
      503
 93
      105
310
903313A354000000000000144000
  0
ACAD_PROXY_OBJECT
  5
4C
102
{ACAD_REACTORS
330
47
102
}
330
47
100
AcDbProxyObject
 90
      499
 91
      503
 93
      105
310
903313A384000000000000204000
  0
ACAD_PROXY_OBJECT
  5
4D
102
{ACAD_REACTORS
330
47
102
}
330
47
100
AcDbProxyObject
 90
      499
 91
      503
 93
      113
310
904313A31304000000000000244000
  0
ACAD_PROXY_OBJECT
  5
4E
102
{ACAD_REACTORS
330
47
102
}
330
47
100
AcDbProxyObject
 90
      499
 91
      503
 93
      113
310
904313A31364000000000000304000
  0
ACAD_PROXY_OBJECT
  5
4F
102
{ACAD_REACTORS
330
47
102
}
330
47
100
AcDbProxyObject
 90
      499
 91
      503
 93
      113
310
904313A32304000000000000344000
  0
ACAD_PROXY_OBJECT
  5
50
102
{ACAD_REACTORS
330
47
102
}
330
47
100
AcDbProxyObject
 90
      499
 91
      503
 93
      113
310
904313A333040000000000003E4000
  0
ACAD_PROXY_OBJECT
  5
51
102
{ACAD_REACTORS
330
47
102
}
330
47
100
AcDbProxyObject
 90
      499
 91
      503
 93
      113
310
904313A34304000000000000444000
  0
ACAD_PROXY_OBJECT
  5
52
102
{ACAD_REACTORS
330
47
102
}
330
47
100
AcDbProxyObject
 90
      499
 91
      503
 93
      113
310
904313A35304000000000000494000
  0
ACAD_PROXY_OBJECT
  5
53
102
{ACAD_REACTORS
330
47
102
}
330
47
100
AcDbProxyObject
 90
      499
 91
      503
 93
      121
310
905313A3130304000000000000594000
  0
ACAD_PROXY_OBJECT
  5
54
102
{ACAD_REACTORS
330
47
102
}
330
47
100
AcDbProxyObject
 90
      499
 91
      503
 93
      105
310
903323A310000000000000010100
  0
ACAD_PROXY_OBJECT
  5
55
102
{ACAD_REACTORS
330
47
102
}
330
47
100
AcDbProxyObject
 90
      499
 91
      503
 93
      105
310
903343A310000000000000410100
  0
ACAD_PROXY_OBJECT
  5
56
102
{ACAD_REACTORS
330
47
102
}
330
47
100
AcDbProxyObject
 90
      499
 91
      503
 93
      105
310
903383A310000000000000810100
  0
ACAD_PROXY_OBJECT
  5
57
102
{ACAD_REACTORS
330
47
102
}
330
47
100
AcDbProxyObject
 90
      499
 91
      503
 93
      113
310
90431303A310000000000000910100
  0
ACAD_PROXY_OBJECT
  5
58
102
{ACAD_REACTORS
330
47
102
}
330
47
100
AcDbProxyObject
 90
      499
 91
      503
 93
      121
310
9053130303A310000000000001650100
  0
ACAD_PROXY_OBJECT
  5
59
102
{ACAD_REACTORS
330
47
102
}
330
47
100
AcDbProxyObject
 90
      499
 91
      503
 93
      257
310
90E312F31323822203D2031272D3022000000000000200FC000000000000284000
  0
ACAD_PROXY_OBJECT
  5
5A
102
{ACAD_REACTORS
330
47
102
}
330
47
100
AcDbProxyObject
 90
      499
 91
      503
 93
      249
310
90D312F363422203D2031272D3022000000000000240FC000000000000284000
  0
ACAD_PROXY_OBJECT
  5
5B
102
{ACAD_REACTORS
330
47
102
}
330
47
100
AcDbProxyObject
 90
      499
 91
      503
 93
      249
310
90D312F333222203D2031272D3022000000000000280FC000000000000284000
  0
ACAD_PROXY_OBJECT
  5
5C
102
{ACAD_REACTORS
330
47
102
}
330
47
100
AcDbProxyObject
 90
      499
 91
      503
 93
      249
310
90D312F313622203D2031272D30220000000000002C0FC000000000000284000
  0
ACAD_PROXY_OBJECT
  5
5D
102
{ACAD_REACTORS
330
47
102
}
330
47
100
AcDbProxyObject
 90
      499
 91
      503
 93
      249
310
90D332F333222203D2031272D30220000000000002E0FC000000000000284000
  0
ACAD_PROXY_OBJECT
  5
5E
102
{ACAD_REACTORS
330
47
102
}
330
47
100
AcDbProxyObject
 90
      499
 91
      503
 93
      241
310
90C312F3822203D2031272D3022000000000000300FC000000000000284000
  0
ACAD_PROXY_OBJECT
  5
5F
102
{ACAD_REACTORS
330
47
102
}
330
47
100
AcDbProxyObject
 90
      499
 91
      503
 93
      249
310
90D332F313622203D2031272D3022000000000000320FC000000000000284000
  0
ACAD_PROXY_OBJECT
  5
60
102
{ACAD_REACTORS
330
47
102
}
330
47
100
AcDbProxyObject
 90
      499
 91
      503
 93
      241
310
90C312F3422203D2031272D3022000000000000340FC000000000000284000
  0
ACAD_PROXY_OBJECT
  5
61
102
{ACAD_REACTORS
330
47
102
}
330
47
100
AcDbProxyObject
 90
      499
 91
      503
 93
      241
310
90C332F3822203D2031272D3022000000000000360FC000000000000284000
  0
ACAD_PROXY_OBJECT
  5
62
102
{ACAD_REACTORS
330
47
102
}
330
47
100
AcDbProxyObject
 90
      499
 91
      503
 93
      241
310
90C312F3222203D2031272D3022000000000000380FC000000000000284000
  0
ACAD_PROXY_OBJECT
  5
63
102
{ACAD_REACTORS
330
47
102
}
330
47
100
AcDbProxyObject
 90
      499
 91
      503
 93
      241
310
90C332F3422203D2031272D30220000000000003A0FC000000000000284000
  0
ACAD_PROXY_OBJECT
  5
64
102
{ACAD_REACTORS
330
47
102
}
330
47
100
AcDbProxyObject
 90
      499
 91
      503
 93
      161
310
90A3122203D2031272D30224000000000000284000
  0
ACAD_PROXY_OBJECT
  5
65
102
{ACAD_REACTORS
330
47
102
}
330
47
100
AcDbProxyObject
 90
      499
 91
      503
 93
      257
310
90E312D312F3222203D2031272D30220000000000003E0FC000000000000284000
  0
ACAD_PROXY_OBJECT
  5
66
102
{ACAD_REACTORS
330
47
102
}
330
47
100
AcDbProxyObject
 90
      499
 91
      503
 93
      225
310
90A3322203D2031272D302200000000000002100000000000000284000
  0
ACAD_PROXY_OBJECT
  5
67
102
{ACAD_REACTORS
330
47
102
}
330
47
100
AcDbProxyObject
 90
      499
 91
      503
 93
      225
310
90A3622203D2031272D302200000000000006100000000000000284000
  0
ACAD_PROXY_OBJECT
  5
68
102
{ACAD_REACTORS
330
47
102
}
330
47
100
AcDbProxyObject
 90
      499
 91
      503
 93
      249
310
90D31272D3022203D2031272D30220000000000000A100000000000000284000
  0
ACAD_PROXY_OBJECT
  5
2F
102
{ACAD_REACTORS
330
2A
102
}
330
2A
100
AcDbProxyObject
 90
      499
 91
      501
 93
      436
310
42CC9915DA5C99599C985B595049028333333333333E33F0000000000000F90107901411070040501600405405064090741402480A0340
1001
ACAD
1000
AcDbSavedByObjectVersion
1070
     0
  0
ACAD_PROXY_OBJECT
  5
32
102
{ACAD_REACTORS
330
2A
102
}
330
2A
100
AcDbProxyObject
 90
      499
 91
      501
 93
      388
310
4150985CDA58D07406404333333333333E33F0000000000000F90107A41107004050150841D405064090741402480A0350
1001
ACAD
1000
AcDbSavedByObjectVersion
1070
     0
  0
ACAD_PROXY_OBJECT
  5
36
102
{ACAD_REACTORS
330
2A
102
}
330
2A
100
AcDbProxyObject
 90
      499
 91
      501
 93
      428
310
42109C9A59DA1D195B90C409028333333333333E33F0000000000000F9010790141107004050150841D405064090741402480A029950
1001
ACAD
1000
AcDbSavedByObjectVersion
1070
     0
  0
ACAD_PROXY_OBJECT
  5
3A
102
{ACAD_REACTORS
330
2A
102
}
330
2A
100
AcDbProxyObject
 90
      499
 91
      501
 93
      452
310
42D0DBDB1BDC90DA185B99D95104090240C333333333333E33F0000000000000F90108901411070040501508421405064090741402480A0350
1001
ACAD
1000
AcDbSavedByObjectVersion
1070
     0
  0
ACAD_PROXY_OBJECT
  5
34
102
{ACAD_REACTORS
330
2A
102
}
330
2A
100
AcDbProxyObject
 90
      499
 91
      501
 93
      500
310
4290DBDB98D95C1D1D585B10940D028333333333333E33F0000000000000F90107902409070040501000000000018199010841D405064090740C02480A0340
1001
ACAD
1000
AcDbSavedByObjectVersion
1070
     0
  0
ACAD_PROXY_OBJECT
  5
35
102
{ACAD_REACTORS
330
2A
102
}
330
2A
100
AcDbProxyObject
 90
      499
 91
      501
 93
      412
310
40D11A5B50B409028333333333333E33F0000000000000F9010790141107004050150841D405064090741402480A02677FFFFFD0
1001
ACAD
1000
AcDbSavedByObjectVersion
1070
     0
  0
ACAD_PROXY_OBJECT
  5
3D
102
{ACAD_REACTORS
330
2A
102
}
330
2A
100
AcDbProxyObject
 90
      499
 91
      501
 93
      452
310
43115919D950DBDB1BDC93D999916409028333333333333E33F0000000000000F9010790141107004050150841D405064090741402480A0350
1001
ACAD
1000
AcDbSavedByObjectVersion
1070
     0
  0
ACAD_PROXY_OBJECT
  5
39
102
{ACAD_REACTORS
330
2A
102
}
330
2A
100
AcDbProxyObject
 90
      499
 91
      501
 93
      444
310
42D19858D95C185D1D195C9B90F409028333333333333E33F0000000000000F9010790141107004050150841D405064090741402480A0350
1001
ACAD
1000
AcDbSavedByObjectVersion
1070
     0
  0
ACAD_PROXY_OBJECT
  5
2B
102
{ACAD_REACTORS
330
2A
102
}
330
2A
100
AcDbProxyObject
 90
      499
 91
      501
 93
      380
310
41119B185D240901404333333333333E33F0000000000000F9010740A907004050150841D405064090741402480A1B50
1001
ACAD
1000
AcDbSavedByObjectVersion
1070
     0
  0
ACAD_PROXY_OBJECT
  5
2C
102
{ACAD_REACTORS
330
2A
102
}
330
2A
100
AcDbProxyObject
 90
      499
 91
      501
 93
      468
310
43519B185D15DA5D1A115919D95CD0140901404333333333333E33F0000000000000F90107409019070040501600405405064090741402480A1B50
1001
ACAD
1000
AcDbSavedByObjectVersion
1070
     0
  0
ACAD_PROXY_OBJECT
  5
2D
102
{ACAD_REACTORS
330
2A
102
}
330
2A
100
AcDbProxyObject
 90
      499
 91
      501
 93
      404
310
41D1DBDD5C985D5910240902404333333333333E33F0000000000000F9010740A9070040501641D405064090741402480A1B50
1001
ACAD
1000
AcDbSavedByObjectVersion
1070
     0
  0
ACAD_PROXY_OBJECT
  5
2E
102
{ACAD_REACTORS
330
2A
102
}
330
2A
100
AcDbProxyObject
 90
      499
 91
      501
 93
      492
310
4411DBDD5C985D5915DA5D1A115919D95CD0340902404333333333333E33F0000000000000F90107409019070040501600405405064090741402480A1B50
1001
ACAD
1000
AcDbSavedByObjectVersion
1070
     0
  0
ACAD_PROXY_OBJECT
  5
31
102
{ACAD_REACTORS
330
2A
102
}
330
2A
100
AcDbProxyObject
 90
      499
 91
      501
 93
      476
310
41921A5919195B90640502408333333333333E33F0000000000000F901079024090700405020000000000001110200405405064090740C02480A0340
1001
ACAD
1000
AcDbSavedByObjectVersion
1070
     0
  0
ACAD_PROXY_OBJECT
  5
3B
102
{ACAD_REACTORS
330
2A
102
}
330
2A
100
AcDbProxyObject
 90
      499
 91
      501
 93
      428
310
42529A5D1D195C93D999914409028333333333333E33F0000000000000F9010790141107004050150A41D405064090741402480A0350
1001
ACAD
1000
AcDbSavedByObjectVersion
1070
     0
  0
ACAD_PROXY_OBJECT
  5
38
102
{ACAD_REACTORS
330
2A
102
}
330
2A
100
AcDbProxyObject
 90
      499
 91
      501
 93
      444
310
42D31A5B995C185D1D195C9B90E409028333333333333E33F0000000000000F9010790141107004050750841D405064090741402483A0350
1001
ACAD
1000
AcDbSavedByObjectVersion
1070
     0
  0
ACAD_PROXY_OBJECT
  5
3C
102
{ACAD_REACTORS
330
2A
102
}
330
2A
100
AcDbProxyObject
 90
      499
 91
      501
 93
      444
310
42D3DD995C9A185B99D3D999915409028333333333333E33F0000000000000F9010790141107004050150941D405064090741402480A0350
1001
ACAD
1000
AcDbSavedByObjectVersion
1070
     0
  0
ACAD_PROXY_OBJECT
  5
33
102
{ACAD_REACTORS
330
2A
102
}
330
2A
100
AcDbProxyObject
 90
      499
 91
      501
 93
      428
310
425499585B1A5CDD1A58D08409038333333333333E33F0000000000000F9010740A907004050150800405405064090740C02480A1B40
1001
ACAD
1000
AcDbSavedByObjectVersion
1070
     0
  0
ACAD_PROXY_OBJECT
  5
42
102
{ACAD_REACTORS
330
2A
102
}
330
2A
100
AcDbProxyObject
 90
      499
 91
      501
 93
      420
310
4194DA1859195911B40902404333333333333E33F0000000000000F9010740A41107004050150800405405064090840C02480A0B40
1001
ACAD
1000
AcDbSavedByObjectVersion
1070
     0
  0
ACAD_PROXY_OBJECT
  5
41
102
{ACAD_REACTORS
330
2A
102
}
330
2A
100
AcDbProxyObject
 90
      499
 91
      501
 93
      516
310
4454DA18591959081DDA5D1A08195919D95CD1A40902404333333333333E33F0000000000000F901074090142907004050250800405405064090740C02480A0B40
1001
ACAD
1000
AcDbSavedByObjectVersion
1070
     0
  0
ACAD_PROXY_OBJECT
  5
3E
102
{ACAD_REACTORS
330
2A
102
}
330
2A
100
AcDbProxyObject
 90
      499
 91
      501
 93
      532
310
4394DA1859195CC81BD98811DC985E5174090240C333333333333E33F0000000000000F901079024090741D01000000000000111010841D405064090740C02480A0340
1001
ACAD
1000
AcDbSavedByObjectVersion
1070
     0
  0
ACAD_PROXY_OBJECT
  5
3F
102
{ACAD_REACTORS
330
2A
102
}
330
2A
100
AcDbProxyObject
 90
      499
 91
      501
 93
      476
310
41D4DAD95D18DA1E51840502408333333333333E33F0000000000000F901079024090741D01000000000000111010B41D405064090741802480A0340
1001
ACAD
1000
AcDbSavedByObjectVersion
1070
     0
  0
ACAD_PROXY_OBJECT
  5
37
102
{ACAD_REACTORS
330
2A
102
}
330
2A
100
AcDbProxyObject
 90
      499
 91
      501
 93
      412
310
41D51A1A58DAD95B90D409028333333333333E33F0000000000000F9010790141107004050150C41D405064090741402480A0350
1001
ACAD
1000
AcDbSavedByObjectVersion
1070
     0
  0
ACAD_PROXY_OBJECT
  5
30
102
{ACAD_REACTORS
330
2A
102
}
330
2A
100
AcDbProxyObject
 90
      499
 91
      501
 93
      420
310
4255DA5C99599C985B595059028333333333333E33F0000000000000F90107901411070040501600405405064090740C02480A0340
1001
ACAD
1000
AcDbSavedByObjectVersion
1070
     0
  0
ACAD_PROXY_OBJECT
  5
40
102
{ACAD_REACTORS
330
2A
102
}
330
2A
100
AcDbProxyObject
 90
      499
 91
      501
 93
      404
310
41560B54985E51940902404000000000000E03F0000000000000F9010740501907004050150841D405064090740C02480A1B40
1001
ACAD
1000
AcDbSavedByObjectVersion
1070
     0
  0
XRECORD
  5
94
102
{ACAD_REACTORS
330
8A
102
}
330
8A
100
AcDbXrecord
340
0
  0
XRECORD
  5
93
102
{ACAD_REACTORS
330
8A
102
}
330
8A
100
AcDbXrecord
 90
        0
  0
XRECORD
  5
AA
102
{ACAD_REACTORS
330
8A
102
}
330
8A
100
AcDbXrecord
1000
DSTYLE
1002
{
1070
    41
 40
0.06
1070
   340
340
11
1070
   140
 40
0.0482483533954122
1002
}
  0
XRECORD
  5
95
102
{ACAD_REACTORS
330
8A
102
}
330
8A
100
AcDbXrecord
  1
{560c0295-87a3-4785-901d-adf2c22741c8}
  0
XRECORD
  5
8D
102
{ACAD_REACTORS
330
8A
102
}
330
8A
100
AcDbXrecord
  1

  0
XRECORD
  5
92
102
{ACAD_REACTORS
330
8A
102
}
330
8A
100
AcDbXrecord
 90
        1
  0
XRECORD
  5
8F
102
{ACAD_REACTORS
330
8A
102
}
330
8A
100
AcDbXrecord
340
1A
  0
XRECORD
  5
91
102
{ACAD_REACTORS
330
8A
102
}
330
8A
100
AcDbXrecord
 90
    10781
  0
XRECORD
  5
90
102
{ACAD_REACTORS
330
8A
102
}
330
8A
100
AcDbXrecord
340
19
  0
XRECORD
  5
97
102
{ACAD_REACTORS
330
8A
102
}
330
8A
100
AcDbXrecord
 40
0.0
  0
XRECORD
  5
9A
102
{ACAD_REACTORS
330
8A
102
}
330
8A
100
AcDbXrecord
340
0
  0
XRECORD
  5
A0
102
{ACAD_REACTORS
330
8A
102
}
330
8A
100
AcDbXrecord
 10
0.0
 20
0.0
 30
0.0
  0
XRECORD
  5
9C
102
{ACAD_REACTORS
330
8A
102
}
330
8A
100
AcDbXrecord
 10
0.0
 20
0.0
 30
0.0
  0
XRECORD
  5
9F
102
{ACAD_REACTORS
330
8A
102
}
330
8A
100
AcDbXrecord
 10
0.0
 20
0.0
 30
0.0
  0
XRECORD
  5
9D
102
{ACAD_REACTORS
330
8A
102
}
330
8A
100
AcDbXrecord
 10
0.0
 20
0.0
 30
0.0
  0
XRECORD
  5
9E
102
{ACAD_REACTORS
330
8A
102
}
330
8A
100
AcDbXrecord
 10
0.0
 20
0.0
 30
0.0
  0
XRECORD
  5
9B
102
{ACAD_REACTORS
330
8A
102
}
330
8A
100
AcDbXrecord
 10
0.0
 20
0.0
 30
0.0
  0
XRECORD
  5
98
102
{ACAD_REACTORS
330
8A
102
}
330
8A
100
AcDbXrecord
340
0
  0
XRECORD
  5
99
102
{ACAD_REACTORS
330
8A
102
}
330
8A
100
AcDbXrecord
 70
     0
  0
XRECORD
  5
8E
102
{ACAD_REACTORS
330
8A
102
}
330
8A
100
AcDbXrecord
  1

  0
XRECORD
  5
8B
102
{ACAD_REACTORS
330
8A
102
}
330
8A
100
AcDbXrecord
 90
        1
  0
XRECORD
  5
8C
102
{ACAD_REACTORS
330
8A
102
}
330
8A
100
AcDbXrecord
 90
       70
  0
XRECORD
  5
A3
102
{ACAD_REACTORS
330
8A
102
}
330
8A
100
AcDbXrecord
340
0
  0
XRECORD
  5
A9
102
{ACAD_REACTORS
330
8A
102
}
330
8A
100
AcDbXrecord
 10
0.0
 20
0.0
 30
0.0
  0
XRECORD
  5
A5
102
{ACAD_REACTORS
330
8A
102
}
330
8A
100
AcDbXrecord
 10
0.0
 20
0.0
 30
0.0
  0
XRECORD
  5
A8
102
{ACAD_REACTORS
330
8A
102
}
330
8A
100
AcDbXrecord
 10
0.0
 20
0.0
 30
0.0
  0
XRECORD
  5
A6
102
{ACAD_REACTORS
330
8A
102
}
330
8A
100
AcDbXrecord
 10
0.0
 20
0.0
 30
0.0
  0
XRECORD
  5
A7
102
{ACAD_REACTORS
330
8A
102
}
330
8A
100
AcDbXrecord
 10
0.0
 20
0.0
 30
0.0
  0
XRECORD
  5
A4
102
{ACAD_REACTORS
330
8A
102
}
330
8A
100
AcDbXrecord
 10
0.0
 20
0.0
 30
0.0
  0
XRECORD
  5
A1
102
{ACAD_REACTORS
330
8A
102
}
330
8A
100
AcDbXrecord
340
0
  0
XRECORD
  5
A2
102
{ACAD_REACTORS
330
8A
102
}
330
8A
100
AcDbXrecord
 70
     0
  0
XRECORD
  5
96
102
{ACAD_REACTORS
330
8A
102
}
330
8A
100
AcDbXrecord
  1
{FAEB1C32-E019-11D5-929B-00C0DF256EC4}
  0
DICTIONARYVAR
  5
B4
102
{ACAD_REACTORS
330
AB
102
}
330
AB
100
DictionaryVariables
280
     0
  1
1:1
  0
DICTIONARYVAR
  5
AD
102
{ACAD_REACTORS
330
AB
102
}
330
AB
100
DictionaryVariables
280
     0
  1
Standard
  0
DICTIONARYVAR
  5
AC
102
{ACAD_REACTORS
330
AB
102
}
330
AB
100
DictionaryVariables
280
     0
  1
Standard
  0
DICTIONARYVAR
  5
B0
102
{ACAD_REACTORS
330
AB
102
}
330
AB
100
DictionaryVariables
280
     0
  1
2
  0
DICTIONARYVAR
  5
B1
102
{ACAD_REACTORS
330
AB
102
}
330
AB
100
DictionaryVariables
280
     0
  1
1
  0
DICTIONARYVAR
  5
B5
102
{ACAD_REACTORS
330
AB
102
}
330
AB
100
DictionaryVariables
280
     0
  1
1
  0
DICTIONARY
  5
B8
330
45
100
AcDbDictionary
280
     1
  3
ACAD_XREC_ROUNDTRIP
360
B9
  0
DICTIONARY
  5
B6
330
44
100
AcDbDictionary
280
     1
  3
ACAD_XREC_ROUNDTRIP
360
B7
  0
DICTIONARY
  5
BA
330
46
100
AcDbDictionary
280
     1
  3
ACAD_XREC_ROUNDTRIP
360
BB
  0
XRECORD
  5
B9
102
{ACAD_REACTORS
330
B8
102
}
330
B8
100
AcDbXrecord
102
MATERIAL
148
0.0
149
0.0
149
0.0
 93
        0
 94
      127
282
     0
 72
     1
 77
     1
171
     1
175
     1
179
     1
273
     0
  0
XRECORD
  5
B7
102
{ACAD_REACTORS
330
B6
102
}
330
B6
100
AcDbXrecord
102
MATERIAL
148
0.0
149
0.0
149
0.0
 93
        0
 94
      127
282
     0
 72
     1
 77
     1
171
     1
175
     1
179
     1
273
     0
  0
XRECORD
  5
BB
102
{ACAD_REACTORS
330
BA
102
}
330
BA
100
AcDbXrecord
102
MATERIAL
148
0.0
149
0.0
149
0.0
 93
        0
 94
      127
282
     0
 72
     1
 77
     1
171
     1
175
     1
179
     1
273
     0
  0
ENDSEC
  0
EOF
